{"glyphs":{"0":{"ha":833,"x_min":50,"x_max":783,"o":"m 417 -17 q 253 17 322 -17 q 138 115 183 51 q 72 272 93 179 q 50 485 50 365 q 72 697 50 603 q 138 854 93 790 q 253 952 183 918 q 417 986 322 986 q 694 854 606 986 q 783 485 783 722 q 694 115 783 247 q 417 -17 606 -17 m 417 129 q 558 201 517 129 q 599 399 599 272 l 599 571 q 558 769 599 697 q 417 840 517 840 q 276 769 317 840 q 235 571 235 697 l 235 399 q 276 201 235 272 q 417 129 317 129 m 417 403 q 349 422 368 403 q 331 469 331 442 l 331 500 q 349 547 331 528 q 417 567 368 567 q 484 547 465 567 q 503 500 503 528 l 503 469 q 484 422 503 442 q 417 403 465 403 z "},"1":{"ha":833,"x_min":56,"x_max":794,"o":"m 126 0 l 126 149 l 393 149 l 393 838 l 381 838 l 169 588 l 56 683 l 296 969 l 575 969 l 575 149 l 794 149 l 794 0 l 126 0 z "},"2":{"ha":833,"x_min":64,"x_max":764,"o":"m 764 0 l 81 0 l 81 169 l 392 435 q 507 556 469 501 q 544 674 544 611 l 544 688 q 506 793 544 757 q 397 829 467 829 q 281 788 321 829 q 222 685 240 746 l 64 744 q 108 835 79 792 q 178 913 136 879 q 279 966 221 946 q 413 986 338 986 q 551 965 490 986 q 653 905 611 943 q 716 814 694 867 q 738 699 738 761 q 719 589 738 639 q 667 494 700 539 q 588 407 633 449 q 490 324 543 365 l 279 153 l 764 153 l 764 0 z "},"3":{"ha":833,"x_min":43,"x_max":756,"o":"m 378 578 q 506 613 465 578 q 547 700 547 647 l 547 710 q 508 803 547 769 q 399 836 468 836 q 282 806 332 836 q 196 719 232 775 l 78 825 q 134 888 103 858 q 205 940 165 918 q 293 974 244 961 q 404 986 342 986 q 540 969 478 986 q 645 918 601 951 q 713 838 689 885 q 738 733 738 792 q 722 650 738 688 q 681 585 707 613 q 622 539 656 557 q 549 513 588 521 l 549 506 q 629 478 592 497 q 694 431 667 460 q 739 360 722 401 q 756 268 756 319 q 729 151 756 204 q 655 61 703 99 q 540 3 607 24 q 389 -17 472 -17 q 265 -2 319 -17 q 169 38 211 13 q 97 95 128 63 q 43 163 67 128 l 178 267 q 260 171 213 208 q 392 133 308 133 q 520 172 475 133 q 565 278 565 210 l 565 289 q 517 391 565 356 q 379 426 468 426 l 282 426 l 282 578 l 378 578 z "},"4":{"ha":833,"x_min":39,"x_max":792,"o":"m 488 0 l 488 188 l 39 188 l 39 343 l 435 969 l 661 969 l 661 329 l 792 329 l 792 188 l 661 188 l 661 0 l 488 0 m 188 329 l 488 329 l 488 792 l 476 792 l 188 329 z "},"5":{"ha":833,"x_min":71,"x_max":774,"o":"m 719 811 l 275 811 l 251 486 l 263 486 q 299 542 279 517 q 344 586 318 568 q 402 614 369 604 q 478 624 435 624 q 593 603 539 624 q 688 543 647 582 q 751 447 728 504 q 774 318 774 390 q 749 185 774 246 q 678 78 725 124 q 565 8 632 33 q 410 -17 497 -17 q 288 -2 342 -17 q 194 38 235 13 q 124 95 154 63 q 71 163 93 128 l 203 267 q 240 215 219 239 q 285 172 260 190 q 341 144 310 154 q 413 133 372 133 q 540 178 496 133 q 583 303 583 224 l 583 314 q 539 433 583 390 q 414 476 494 476 q 315 453 353 476 q 253 404 276 431 l 104 425 l 140 969 l 719 969 l 719 811 z "},"6":{"ha":833,"x_min":64,"x_max":776,"o":"m 421 -17 q 270 10 336 -17 q 158 87 204 38 q 88 206 113 136 q 64 364 64 276 q 96 560 64 468 q 178 730 128 653 q 292 868 229 807 q 417 969 354 929 l 664 969 q 508 852 576 908 q 388 738 439 796 q 303 616 338 679 q 253 478 269 553 l 264 475 q 297 528 278 503 q 344 574 317 554 q 406 606 371 594 q 489 618 442 618 q 603 597 550 618 q 694 537 656 576 q 754 442 732 497 q 776 317 776 386 q 751 182 776 243 q 680 76 726 121 q 567 8 633 32 q 421 -17 501 -17 m 419 126 q 546 170 503 126 q 589 294 589 214 l 589 311 q 545 435 589 392 q 419 478 501 478 q 296 435 340 478 q 251 311 251 392 l 251 294 q 294 170 251 214 q 419 126 338 126 z "},"7":{"ha":833,"x_min":76,"x_max":758,"o":"m 232 0 l 578 821 l 232 821 l 232 643 l 76 643 l 76 969 l 758 969 l 758 811 l 424 0 l 232 0 z "},"8":{"ha":833,"x_min":58,"x_max":775,"o":"m 417 -17 q 264 5 331 -17 q 151 64 197 26 q 82 153 106 101 q 58 265 58 204 q 112 419 58 361 q 253 501 165 478 l 253 513 q 133 594 178 539 q 88 735 88 650 q 110 837 88 790 q 174 917 132 883 q 276 968 215 950 q 417 986 338 986 q 557 968 496 986 q 660 917 618 950 q 724 837 701 883 q 746 735 746 790 q 701 594 746 650 q 581 513 656 539 l 581 501 q 722 419 668 478 q 775 265 775 361 q 751 153 775 204 q 682 64 728 101 q 569 5 636 26 q 417 -17 503 -17 m 417 125 q 542 162 499 125 q 586 264 586 199 l 586 292 q 543 395 586 358 q 417 432 500 432 q 290 395 333 432 q 247 292 247 358 l 247 264 q 291 162 247 199 q 417 125 335 125 m 417 567 q 533 601 493 567 q 574 697 574 636 l 574 717 q 533 810 574 776 q 417 844 493 844 q 300 810 340 844 q 260 717 260 776 l 260 697 q 300 601 260 636 q 417 567 340 567 z "},"9":{"ha":833,"x_min":57,"x_max":769,"o":"m 769 606 q 738 409 769 501 q 655 240 706 317 q 542 101 604 163 q 417 0 479 40 l 169 0 q 326 117 257 61 q 445 232 394 174 q 530 353 496 290 q 581 492 564 417 l 569 494 q 536 440 556 467 q 490 394 517 414 q 427 363 463 375 q 344 351 392 351 q 231 372 283 351 q 139 433 178 393 q 78 528 100 472 q 57 653 57 583 q 82 788 57 726 q 153 893 107 849 q 266 962 200 938 q 413 986 332 986 q 563 959 497 986 q 675 883 629 932 q 745 763 721 833 q 769 606 769 693 m 414 492 q 538 535 493 492 q 582 658 582 578 l 582 675 q 539 799 582 756 q 414 843 496 843 q 288 799 331 843 q 244 675 244 756 l 244 658 q 288 535 244 578 q 414 492 332 492 z "},"a":{"ha":833,"x_min":78,"x_max":785,"o":"m 681 0 q 580 33 615 0 q 538 124 544 65 l 531 124 q 454 20 511 57 q 314 -17 397 -17 q 142 40 206 -17 q 78 199 78 97 q 396 415 78 415 l 522 415 l 522 463 q 489 565 522 531 q 381 600 456 600 q 271 574 313 600 q 200 506 229 547 l 99 592 q 206 692 132 651 q 399 733 281 733 q 620 667 540 733 q 700 471 700 601 l 700 133 l 785 133 l 785 0 l 681 0 m 374 106 q 480 135 438 106 q 522 217 522 165 l 522 313 l 400 313 q 254 221 254 313 l 254 193 q 286 128 254 150 q 374 106 318 106 z "},"b":{"ha":833,"x_min":96,"x_max":771,"o":"m 96 1028 l 274 1028 l 274 590 l 283 590 q 363 694 313 656 q 497 733 414 733 q 609 710 558 733 q 696 641 660 688 q 751 524 732 594 q 771 358 771 453 q 751 193 771 264 q 696 76 732 122 q 609 6 660 29 q 497 -17 558 -17 q 363 22 414 -17 q 283 126 313 61 l 274 126 l 274 0 l 96 0 l 96 1028 m 422 125 q 542 172 500 125 q 585 301 585 219 l 585 415 q 542 544 585 497 q 422 592 500 592 q 317 562 361 592 q 274 471 274 532 l 274 246 q 317 155 274 185 q 422 125 361 125 z "},"c":{"ha":833,"x_min":93,"x_max":743,"o":"m 444 -17 q 297 10 363 -17 q 187 85 232 36 q 117 203 142 133 q 93 358 93 272 q 117 514 93 444 q 187 632 142 583 q 297 707 232 681 q 443 733 361 733 q 626 686 557 733 q 732 561 696 639 l 594 486 q 540 560 575 532 q 443 589 504 589 q 322 543 364 589 q 279 418 279 497 l 279 299 q 322 174 279 221 q 446 128 364 128 q 548 157 510 128 q 610 235 586 186 l 743 156 q 634 31 707 79 q 444 -17 561 -17 z "},"d":{"ha":833,"x_min":63,"x_max":738,"o":"m 560 126 l 550 126 q 470 22 521 61 q 336 -17 419 -17 q 224 6 275 -17 q 138 76 174 29 q 82 193 101 122 q 63 358 63 264 q 138 640 63 547 q 336 733 213 733 q 470 694 419 733 q 550 590 521 656 l 560 590 l 560 1028 l 738 1028 l 738 0 l 560 0 l 560 126 m 411 125 q 469 133 442 125 q 516 155 496 140 q 548 192 536 169 q 560 246 560 215 l 560 471 q 548 524 560 501 q 516 562 536 547 q 469 584 496 576 q 411 592 442 592 q 291 544 333 592 q 249 415 249 497 l 249 301 q 291 172 249 219 q 411 125 333 125 z "},"e":{"ha":833,"x_min":76,"x_max":757,"o":"m 433 -17 q 281 10 347 -17 q 169 85 214 36 q 100 202 124 133 q 76 357 76 271 q 101 514 76 444 q 169 632 125 583 q 277 707 214 681 q 419 733 340 733 q 560 708 497 733 q 666 635 622 682 q 733 521 710 588 q 757 374 757 454 l 757 315 l 254 315 l 254 297 q 303 172 254 219 q 439 124 351 124 q 553 151 506 124 q 633 222 601 178 l 735 121 q 622 24 696 64 q 433 -17 547 -17 m 421 603 q 300 556 346 603 q 254 431 254 508 l 254 421 l 579 421 l 579 433 q 537 557 579 511 q 421 603 494 603 z "},"f":{"ha":833,"x_min":90,"x_max":767,"o":"m 104 140 l 324 140 l 324 576 l 90 576 l 90 717 l 324 717 l 324 833 q 335 912 324 876 q 372 973 347 947 q 435 1013 397 999 q 525 1028 474 1028 l 767 1028 l 767 888 l 501 888 l 501 717 l 767 717 l 767 576 l 501 576 l 501 140 l 735 140 l 735 0 l 104 0 l 104 140 z "},"g":{"ha":833,"x_min":74,"x_max":800,"o":"m 800 -75 q 706 -241 800 -187 q 414 -294 613 -294 q 251 -283 317 -294 q 147 -249 186 -271 q 90 -195 107 -226 q 74 -125 74 -164 q 108 -33 74 -65 q 206 14 143 -1 l 206 25 q 140 64 164 39 q 115 133 115 89 q 151 213 115 186 q 244 253 186 239 l 244 260 q 144 346 181 290 q 108 481 108 401 q 130 587 108 540 q 191 666 151 633 q 286 716 231 699 q 410 733 342 733 q 540 714 482 733 l 540 744 q 567 814 540 786 q 643 842 594 842 l 772 842 l 772 708 l 603 708 l 603 685 q 684 602 656 653 q 713 481 713 551 q 691 374 713 421 q 630 294 669 326 q 534 245 590 263 q 410 228 478 228 q 356 230 382 228 q 307 239 331 232 q 269 217 288 232 q 251 176 251 201 q 283 135 251 143 q 360 128 315 128 l 522 128 q 650 113 597 128 q 736 72 703 99 q 785 7 769 44 q 800 -75 800 -31 m 633 -87 q 608 -37 633 -56 q 513 -18 582 -18 l 265 -18 q 224 -87 224 -42 q 255 -150 224 -125 q 361 -175 286 -175 l 476 -175 q 633 -87 633 -175 m 410 344 q 510 377 478 344 q 542 463 542 410 l 542 499 q 510 584 542 551 q 410 617 478 617 q 311 584 343 617 q 279 499 279 551 l 279 463 q 311 377 279 410 q 410 344 343 344 z "},"h":{"ha":833,"x_min":104,"x_max":736,"o":"m 104 1028 l 282 1028 l 282 590 l 289 590 q 362 691 313 649 q 499 733 411 733 q 670 663 604 733 q 736 463 736 593 l 736 0 l 558 0 l 558 438 q 424 593 558 593 q 371 586 396 593 q 326 565 346 579 q 294 529 306 550 q 282 479 282 508 l 282 0 l 104 0 l 104 1028 z "},"i":{"ha":833,"x_min":136,"x_max":769,"o":"m 461 828 q 373 854 399 828 q 347 918 347 881 l 347 951 q 373 1015 347 989 q 461 1042 399 1042 q 549 1015 524 1042 q 575 951 575 989 l 575 918 q 549 854 575 881 q 461 828 524 828 m 136 140 l 372 140 l 372 576 l 136 576 l 136 717 l 550 717 l 550 140 l 769 140 l 769 0 l 136 0 l 136 140 z "},"j":{"ha":833,"x_min":126,"x_max":632,"o":"m 132 -137 l 428 -137 l 428 576 l 126 576 l 126 717 l 606 717 l 606 -83 q 557 -224 606 -169 q 406 -278 508 -278 l 132 -278 l 132 -137 m 518 828 q 430 854 456 828 q 404 918 404 881 l 404 951 q 430 1015 404 989 q 518 1042 456 1042 q 606 1015 581 1042 q 632 951 632 989 l 632 918 q 606 854 632 881 q 518 828 581 828 z "},"k":{"ha":833,"x_min":107,"x_max":811,"o":"m 107 1028 l 285 1028 l 285 425 l 293 425 l 397 539 l 574 717 l 781 717 l 496 435 l 811 0 l 599 0 l 369 333 l 285 253 l 285 0 l 107 0 l 107 1028 z "},"l":{"ha":833,"x_min":100,"x_max":735,"o":"m 100 140 l 328 140 l 328 888 l 100 888 l 100 1028 l 506 1028 l 506 140 l 735 140 l 735 0 l 100 0 l 100 140 z "},"m":{"ha":833,"x_min":51,"x_max":781,"o":"m 51 0 l 51 717 l 199 717 l 199 618 l 207 618 q 255 699 224 665 q 343 733 286 733 q 429 702 397 733 q 471 614 461 671 l 478 614 q 531 698 496 663 q 632 733 567 733 q 746 676 711 733 q 781 508 781 619 l 781 0 l 635 0 l 635 488 q 617 575 635 550 q 565 600 600 600 q 512 579 533 600 q 490 515 490 558 l 490 0 l 343 0 l 343 488 q 326 575 343 550 q 275 600 310 600 q 220 579 242 600 q 199 515 199 558 l 199 0 l 51 0 z "},"n":{"ha":833,"x_min":104,"x_max":736,"o":"m 104 0 l 104 717 l 282 717 l 282 590 l 289 590 q 362 691 313 649 q 499 733 411 733 q 670 663 604 733 q 736 463 736 593 l 736 0 l 558 0 l 558 438 q 424 593 558 593 q 371 586 396 593 q 326 565 346 579 q 294 529 306 550 q 282 479 282 508 l 282 0 l 104 0 z "},"o":{"ha":833,"x_min":67,"x_max":767,"o":"m 417 -17 q 270 10 335 -17 q 160 85 206 36 q 91 203 115 133 q 67 358 67 272 q 91 514 67 444 q 160 632 115 583 q 270 707 206 681 q 417 733 335 733 q 563 707 497 733 q 673 632 628 681 q 742 514 718 583 q 767 358 767 444 q 742 203 767 272 q 673 85 718 133 q 563 10 628 36 q 417 -17 497 -17 m 417 119 q 538 166 493 119 q 582 303 582 213 l 582 414 q 538 551 582 504 q 417 597 493 597 q 296 551 340 597 q 251 414 251 504 l 251 303 q 296 166 251 213 q 417 119 340 119 z "},"p":{"ha":833,"x_min":96,"x_max":771,"o":"m 96 717 l 274 717 l 274 590 l 283 590 q 363 694 313 656 q 497 733 414 733 q 609 710 558 733 q 696 641 660 688 q 751 524 732 594 q 771 358 771 453 q 751 193 771 264 q 696 76 732 122 q 609 6 660 29 q 497 -17 558 -17 q 363 22 414 -17 q 283 126 313 61 l 274 126 l 274 -278 l 96 -278 l 96 717 m 422 125 q 542 172 500 125 q 585 301 585 219 l 585 415 q 542 544 585 497 q 422 592 500 592 q 317 562 361 592 q 274 471 274 532 l 274 246 q 317 155 274 185 q 422 125 361 125 z "},"q":{"ha":833,"x_min":63,"x_max":738,"o":"m 560 126 l 550 126 q 470 22 521 61 q 336 -17 419 -17 q 224 6 275 -17 q 138 76 174 29 q 82 193 101 122 q 63 358 63 264 q 138 640 63 547 q 336 733 213 733 q 470 694 419 733 q 550 590 521 656 l 560 590 l 560 717 l 738 717 l 738 -278 l 560 -278 l 560 126 m 411 125 q 469 133 442 125 q 516 155 496 140 q 548 192 536 169 q 560 246 560 215 l 560 471 q 548 524 560 501 q 516 562 536 547 q 469 584 496 576 q 411 592 442 592 q 291 544 333 592 q 249 415 249 497 l 249 301 q 291 172 249 219 q 411 125 333 125 z "},"r":{"ha":833,"x_min":104,"x_max":779,"o":"m 104 140 l 282 140 l 282 576 l 104 576 l 104 717 l 460 717 l 460 521 l 471 521 q 498 594 481 558 q 542 656 515 629 q 608 700 569 683 q 701 717 647 717 l 779 717 l 779 550 l 632 550 q 506 503 551 550 q 460 382 460 456 l 460 140 l 708 140 l 708 0 l 104 0 l 104 140 z "},"s":{"ha":833,"x_min":75,"x_max":738,"o":"m 414 -17 q 210 20 296 -17 q 75 119 124 57 l 179 214 q 281 139 224 165 q 415 113 339 113 q 522 135 482 113 q 563 203 563 157 q 535 256 563 242 q 464 276 508 269 l 349 294 q 262 315 304 301 q 187 351 219 328 q 135 412 154 375 q 115 501 115 449 q 199 674 115 614 q 431 733 283 733 q 608 704 535 733 q 728 622 681 675 l 635 519 q 553 578 604 553 q 425 604 503 604 q 289 519 289 604 q 317 466 289 481 q 389 444 344 451 l 503 426 q 591 406 549 419 q 666 369 633 393 q 718 310 699 346 q 738 221 738 274 q 652 47 738 110 q 414 -17 567 -17 z "},"t":{"ha":833,"x_min":57,"x_max":735,"o":"m 465 0 q 314 54 363 0 q 265 194 265 108 l 265 576 l 57 576 l 57 717 l 199 717 q 260 734 242 717 q 278 796 278 751 l 278 969 l 443 969 l 443 717 l 735 717 l 735 576 l 443 576 l 443 140 l 735 140 l 735 0 l 465 0 z "},"u":{"ha":833,"x_min":97,"x_max":729,"o":"m 551 126 l 544 126 q 472 26 521 68 q 335 -17 422 -17 q 163 53 229 -17 q 97 254 97 124 l 97 717 l 275 717 l 275 279 q 410 124 275 124 q 462 131 436 124 q 508 152 488 138 q 540 188 528 167 q 551 238 551 208 l 551 717 l 729 717 l 729 0 l 551 0 l 551 126 z "},"v":{"ha":833,"x_min":53,"x_max":781,"o":"m 310 0 l 53 717 l 239 717 l 335 413 l 415 149 l 425 149 l 506 413 l 601 717 l 781 717 l 524 0 l 310 0 z "},"w":{"ha":833,"x_min":19,"x_max":814,"o":"m 19 717 l 168 717 l 229 125 l 242 125 l 339 717 l 501 717 l 597 125 l 610 125 l 672 717 l 814 717 l 722 0 l 507 0 l 424 526 l 411 526 l 326 0 l 111 0 l 19 717 z "},"x":{"ha":833,"x_min":47,"x_max":786,"o":"m 47 0 l 315 364 l 63 717 l 267 717 l 353 590 l 419 490 l 429 490 l 496 590 l 582 717 l 771 717 l 518 372 l 786 0 l 581 0 l 482 144 l 414 246 l 404 246 l 336 144 l 238 0 l 47 0 z "},"y":{"ha":833,"x_min":40,"x_max":793,"o":"m 613 717 l 793 717 l 450 -128 q 372 -240 421 -201 q 235 -278 324 -278 l 104 -278 l 104 -137 l 275 -137 l 329 7 l 40 717 l 229 717 l 339 417 l 415 189 l 425 189 l 501 417 l 613 717 z "},"z":{"ha":833,"x_min":100,"x_max":733,"o":"m 100 0 l 100 151 l 517 576 l 114 576 l 114 717 l 719 717 l 719 565 l 303 140 l 733 140 l 733 0 l 100 0 z "},"A":{"ha":833,"x_min":18,"x_max":817,"o":"m 624 0 l 556 246 l 268 246 l 201 0 l 18 0 l 290 969 l 543 969 l 817 0 l 624 0 m 418 790 l 407 790 l 300 394 l 525 394 l 418 790 z "},"B":{"ha":833,"x_min":111,"x_max":767,"o":"m 111 969 l 449 969 q 660 901 586 969 q 735 714 735 832 q 694 581 735 631 q 578 508 653 531 l 578 501 q 716 426 665 481 q 767 271 767 371 q 747 160 767 210 q 690 75 726 111 q 601 19 653 39 q 483 0 549 0 l 111 0 l 111 969 m 428 132 q 542 160 504 132 q 581 258 581 189 l 581 304 q 542 401 581 372 q 428 429 504 429 l 289 429 l 289 132 l 428 132 m 404 556 q 513 582 478 556 q 549 674 549 608 l 549 719 q 513 811 549 785 q 404 838 478 838 l 289 838 l 289 556 l 404 556 z "},"C":{"ha":833,"x_min":69,"x_max":772,"o":"m 442 -17 q 160 114 251 -17 q 69 485 69 244 q 160 855 69 724 q 442 986 251 986 q 569 967 514 986 q 664 913 624 947 q 731 831 704 879 q 772 726 757 783 l 606 679 q 583 742 596 713 q 552 792 571 771 q 506 826 533 814 q 439 838 478 838 q 303 765 344 838 q 263 568 263 693 l 263 401 q 303 204 263 276 q 439 132 344 132 q 506 144 478 132 q 552 177 533 156 q 583 228 571 199 q 606 290 596 257 l 772 243 q 731 138 757 186 q 664 56 704 90 q 569 3 624 22 q 442 -17 514 -17 z "},"D":{"ha":833,"x_min":101,"x_max":776,"o":"m 101 969 l 403 969 q 684 844 592 969 q 776 485 776 719 q 684 124 776 249 q 403 0 592 0 l 101 0 l 101 969 m 390 146 q 538 211 490 146 q 586 401 586 276 l 586 569 q 538 758 586 693 q 390 824 490 824 l 281 824 l 281 146 l 390 146 z "},"E":{"ha":833,"x_min":115,"x_max":728,"o":"m 115 0 l 115 969 l 728 969 l 728 819 l 297 819 l 297 567 l 713 567 l 713 417 l 297 417 l 297 150 l 728 150 l 728 0 l 115 0 z "},"F":{"ha":833,"x_min":115,"x_max":749,"o":"m 115 0 l 115 969 l 749 969 l 749 819 l 297 819 l 297 567 l 704 567 l 704 417 l 297 417 l 297 0 l 115 0 z "},"G":{"ha":833,"x_min":57,"x_max":747,"o":"m 585 135 l 574 135 q 543 78 561 106 q 499 29 525 50 q 437 -4 472 8 q 356 -17 401 -17 q 133 113 208 -17 q 57 478 57 243 q 146 856 57 725 q 419 986 235 986 q 547 967 492 986 q 641 913 601 947 q 706 830 681 878 q 747 726 732 782 l 581 679 q 559 739 571 710 q 528 790 547 768 q 483 824 510 811 q 418 838 457 838 q 289 765 328 838 q 250 568 250 693 l 250 413 q 259 298 250 350 q 289 208 268 246 q 343 151 310 171 q 426 131 376 131 q 544 177 504 131 q 585 296 585 224 l 585 375 l 408 375 l 408 507 l 747 507 l 747 0 l 585 0 l 585 135 z "},"H":{"ha":833,"x_min":93,"x_max":740,"o":"m 558 417 l 275 417 l 275 0 l 93 0 l 93 969 l 275 969 l 275 567 l 558 567 l 558 969 l 740 969 l 740 0 l 558 0 l 558 417 z "},"I":{"ha":833,"x_min":108,"x_max":725,"o":"m 108 0 l 108 136 l 326 136 l 326 833 l 108 833 l 108 969 l 725 969 l 725 833 l 507 833 l 507 136 l 725 136 l 725 0 l 108 0 z "},"J":{"ha":833,"x_min":68,"x_max":697,"o":"m 697 969 l 697 265 q 675 148 697 200 q 612 60 653 96 q 513 3 571 24 q 385 -17 456 -17 q 169 53 247 -17 q 68 238 90 122 l 239 274 q 284 173 251 213 q 385 133 317 133 q 481 170 447 133 q 514 286 514 207 l 514 819 l 186 819 l 186 969 l 697 969 z "},"K":{"ha":833,"x_min":101,"x_max":828,"o":"m 385 425 l 283 292 l 283 0 l 101 0 l 101 969 l 283 969 l 283 533 l 292 533 l 404 694 l 608 969 l 814 969 l 510 561 l 828 0 l 622 0 l 385 425 z "},"L":{"ha":833,"x_min":139,"x_max":750,"o":"m 139 0 l 139 969 l 321 969 l 321 150 l 750 150 l 750 0 l 139 0 z "},"M":{"ha":833,"x_min":67,"x_max":767,"o":"m 608 449 l 617 729 l 604 729 l 417 231 l 229 729 l 217 729 l 225 449 l 225 0 l 67 0 l 67 969 l 283 969 l 418 613 l 428 613 l 564 969 l 767 969 l 767 0 l 608 0 l 608 449 z "},"N":{"ha":833,"x_min":93,"x_max":740,"o":"m 263 696 l 249 696 l 249 0 l 93 0 l 93 969 l 317 969 l 571 274 l 585 274 l 585 969 l 740 969 l 740 0 l 517 0 l 263 696 z "},"O":{"ha":833,"x_min":50,"x_max":783,"o":"m 417 -17 q 253 17 322 -17 q 138 115 183 51 q 72 272 93 179 q 50 485 50 365 q 72 697 50 603 q 138 854 93 790 q 253 952 183 918 q 417 986 322 986 q 694 854 606 986 q 783 485 783 722 q 694 115 783 247 q 417 -17 606 -17 m 417 132 q 499 151 465 132 q 552 204 532 169 q 581 290 572 239 q 590 403 590 340 l 590 568 q 552 765 590 693 q 417 838 514 838 q 281 765 319 838 q 243 568 243 693 l 243 401 q 281 204 243 276 q 417 132 319 132 z "},"P":{"ha":833,"x_min":111,"x_max":771,"o":"m 111 0 l 111 969 l 479 969 q 696 889 621 969 q 771 669 771 808 q 696 450 771 531 q 479 369 621 369 l 293 369 l 293 0 l 111 0 m 293 518 l 442 518 q 547 548 515 518 q 579 643 579 578 l 579 696 q 547 791 579 761 q 442 821 515 821 l 293 821 l 293 518 z "},"Q":{"ha":833,"x_min":50,"x_max":783,"o":"m 717 -254 l 529 -254 q 382 -202 426 -254 q 338 -64 338 -150 l 338 -10 q 119 144 189 17 q 50 485 50 272 q 72 697 50 603 q 138 854 93 790 q 253 952 183 918 q 417 986 322 986 q 694 854 606 986 q 783 485 783 722 q 714 144 783 272 q 496 -10 644 17 l 496 -122 l 717 -122 l 717 -254 m 417 132 q 499 151 465 132 q 552 204 532 169 q 581 290 572 239 q 590 403 590 340 l 590 568 q 552 765 590 693 q 417 838 514 838 q 281 765 319 838 q 243 568 243 693 l 243 401 q 281 204 243 276 q 417 132 319 132 z "},"R":{"ha":833,"x_min":111,"x_max":788,"o":"m 293 0 l 111 0 l 111 969 l 479 969 q 696 889 621 969 q 771 669 771 808 q 722 490 771 563 q 581 397 672 417 l 788 0 l 588 0 l 403 376 l 293 376 l 293 0 m 442 518 q 547 548 515 518 q 579 643 579 578 l 579 696 q 547 791 579 761 q 442 821 515 821 l 293 821 l 293 518 l 442 518 z "},"S":{"ha":833,"x_min":49,"x_max":767,"o":"m 406 -17 q 192 26 281 -17 q 49 140 104 69 l 158 254 q 276 162 213 192 q 411 132 339 132 q 539 169 494 132 q 583 278 583 207 q 550 366 583 336 q 438 408 517 396 l 335 425 q 143 523 200 449 q 86 699 86 597 q 176 912 86 838 q 426 986 267 986 q 623 950 540 986 q 756 851 706 914 l 649 738 q 556 810 610 783 q 428 838 501 838 q 269 707 269 838 q 303 622 269 651 q 417 579 336 593 l 518 561 q 706 468 644 538 q 767 290 767 399 q 743 166 767 222 q 674 69 719 110 q 560 6 628 28 q 406 -17 493 -17 z "},"T":{"ha":833,"x_min":35,"x_max":799,"o":"m 507 819 l 507 0 l 326 0 l 326 819 l 35 819 l 35 969 l 799 969 l 799 819 l 507 819 z "},"U":{"ha":833,"x_min":86,"x_max":747,"o":"m 268 969 l 268 365 q 272 268 268 311 q 290 195 275 225 q 334 149 304 165 q 417 132 364 132 q 499 149 469 132 q 544 195 529 165 q 562 268 558 225 q 565 365 565 311 l 565 969 l 747 969 l 747 393 q 735 214 747 290 q 686 86 722 138 q 585 9 650 35 q 417 -17 521 -17 q 248 9 313 -17 q 147 86 183 35 q 99 214 111 138 q 86 393 86 290 l 86 969 l 268 969 z "},"V":{"ha":833,"x_min":24,"x_max":810,"o":"m 289 0 l 24 969 l 224 969 l 344 479 l 415 174 l 425 174 l 497 479 l 619 969 l 810 969 l 544 0 l 289 0 z "},"W":{"ha":833,"x_min":25,"x_max":808,"o":"m 90 0 l 25 969 l 182 969 l 213 411 l 225 181 l 238 181 l 335 746 l 504 746 l 601 181 l 614 181 l 626 411 l 657 969 l 808 969 l 743 0 l 508 0 l 422 549 l 411 549 l 325 0 l 90 0 z "},"X":{"ha":833,"x_min":19,"x_max":814,"o":"m 814 0 l 608 0 l 503 193 l 418 363 l 407 363 l 319 193 l 211 0 l 19 0 l 304 500 l 38 969 l 244 969 l 333 806 l 418 638 l 428 638 l 514 806 l 607 969 l 799 969 l 531 497 l 814 0 z "},"Y":{"ha":833,"x_min":11,"x_max":822,"o":"m 326 0 l 326 354 l 11 969 l 214 969 l 326 736 l 414 538 l 424 538 l 513 736 l 626 969 l 822 969 l 507 354 l 507 0 l 326 0 z "},"Z":{"ha":833,"x_min":67,"x_max":767,"o":"m 767 0 l 67 0 l 67 160 l 549 819 l 83 819 l 83 969 l 749 969 l 749 810 l 268 150 l 767 150 l 767 0 z "},"&":{"ha":833,"x_min":24,"x_max":821,"o":"m 292 -17 q 177 6 226 -17 q 93 65 128 28 q 41 153 58 103 q 24 260 24 203 q 64 413 24 343 q 193 531 104 482 q 126 638 149 589 q 103 744 103 688 q 123 842 103 797 q 178 918 143 886 q 263 968 214 950 q 368 986 311 986 q 460 972 418 986 q 534 935 501 958 q 589 883 567 913 q 622 821 611 853 l 496 754 q 447 824 481 799 q 368 850 413 850 q 290 821 319 850 q 261 747 261 792 l 261 739 q 267 700 261 718 q 285 660 272 682 q 319 610 299 638 q 372 543 340 582 l 464 426 l 542 318 l 550 318 q 557 372 554 343 q 562 433 560 401 q 565 494 564 464 q 565 550 565 524 l 797 550 l 797 415 l 699 415 q 678 316 690 364 q 643 214 667 268 l 821 0 l 628 0 l 514 138 l 504 138 q 435 25 492 67 q 292 -17 379 -17 m 336 124 q 410 139 376 124 q 464 190 443 154 l 267 438 q 207 360 222 401 q 192 274 192 319 l 192 267 q 231 160 192 197 q 336 124 269 124 z "},"@":{"ha":833,"x_min":63,"x_max":757,"o":"m 624 -156 l 469 -156 q 279 -120 357 -156 q 153 -12 201 -85 q 84 167 106 60 q 63 421 63 275 q 86 689 63 581 q 155 863 110 797 q 266 958 200 929 q 418 986 332 986 q 569 960 506 986 q 675 888 633 933 q 737 778 717 842 q 757 643 757 715 l 757 126 l 624 126 l 624 210 l 614 210 q 566 137 599 163 q 481 111 533 111 q 351 183 399 111 q 304 408 304 254 q 351 634 304 563 q 481 706 399 706 q 566 679 533 706 q 614 607 599 653 l 624 607 l 624 643 q 572 814 624 761 q 425 867 519 867 q 329 848 371 867 q 260 786 288 829 q 217 672 232 743 q 203 497 203 601 l 203 318 q 216 172 203 238 q 260 60 229 107 q 343 -11 292 14 q 469 -36 394 -36 l 624 -36 l 624 -156 m 535 218 q 600 242 576 218 q 624 308 624 265 l 624 508 q 600 575 624 551 q 535 599 576 599 q 467 567 490 599 q 444 453 444 535 l 444 364 q 467 250 444 282 q 535 218 490 218 z "},"-":{"ha":833,"x_min":201,"x_max":632,"o":"m 201 336 l 201 510 l 632 510 l 632 336 l 201 336 z "},"­":{"ha":833,"x_min":201,"x_max":632,"o":"m 201 336 l 201 510 l 632 510 l 632 336 l 201 336 z "},"–":{"ha":833,"x_min":83,"x_max":750,"o":"m 83 349 l 83 497 l 750 497 l 750 349 l 83 349 z "},"—":{"ha":833,"x_min":0,"x_max":833,"o":"m 0 349 l 0 497 l 833 497 l 833 349 l 0 349 z "},"_":{"ha":833,"x_min":83,"x_max":750,"o":"m 83 -257 l 83 -108 l 750 -108 l 750 -257 l 83 -257 z "},".":{"ha":833,"x_min":283,"x_max":550,"o":"m 417 -15 q 314 15 344 -15 q 283 90 283 46 l 283 132 q 314 207 283 176 q 417 238 344 238 q 519 207 489 238 q 550 132 550 176 l 550 90 q 519 15 550 46 q 417 -15 489 -15 z "},"…":{"ha":833,"x_min":47,"x_max":786,"o":"m 144 -8 q 70 13 93 -8 q 47 65 47 35 l 47 122 q 70 174 47 153 q 144 196 93 196 q 217 174 193 196 q 240 122 240 153 l 240 65 q 217 13 240 35 q 144 -8 193 -8 m 417 -8 q 343 13 367 -8 q 319 65 319 35 l 319 122 q 343 174 319 153 q 417 196 367 196 q 490 174 467 196 q 514 122 514 153 l 514 65 q 490 13 514 35 q 417 -8 467 -8 m 689 -8 q 617 13 640 -8 q 593 65 593 35 l 593 122 q 617 174 593 153 q 689 196 640 196 q 763 174 739 196 q 786 122 786 153 l 786 65 q 763 13 786 35 q 689 -8 739 -8 z "},":":{"ha":833,"x_min":283,"x_max":550,"o":"m 417 -15 q 314 15 344 -15 q 283 90 283 46 l 283 132 q 314 207 283 176 q 417 238 344 238 q 519 207 489 238 q 550 132 550 176 l 550 90 q 519 15 550 46 q 417 -15 489 -15 m 417 478 q 314 508 344 478 q 283 583 283 539 l 283 625 q 314 700 283 669 q 417 731 344 731 q 519 700 489 731 q 550 625 550 669 l 550 583 q 519 508 550 539 q 417 478 489 478 z "},",":{"ha":833,"x_min":250,"x_max":567,"o":"m 328 226 l 567 226 l 385 -206 l 250 -206 l 328 226 z "},";":{"ha":833,"x_min":250,"x_max":567,"o":"m 328 226 l 567 226 l 385 -206 l 250 -206 l 328 226 m 417 478 q 314 508 344 478 q 283 583 283 539 l 283 625 q 314 700 283 669 q 417 731 344 731 q 519 700 489 731 q 550 625 550 669 l 550 583 q 519 508 550 539 q 417 478 489 478 z "},"'":{"ha":833,"x_min":336,"x_max":497,"o":"m 336 594 l 336 1028 l 497 1028 l 497 594 l 336 594 z "},"\"":{"ha":833,"x_min":192,"x_max":643,"o":"m 192 594 l 192 1028 l 353 1028 l 353 594 l 192 594 m 482 594 l 482 1028 l 643 1028 l 643 594 l 482 594 z "},"‘":{"ha":833,"x_min":239,"x_max":554,"o":"m 421 1028 l 554 1028 l 478 594 l 239 594 l 421 1028 z "},"’":{"ha":833,"x_min":279,"x_max":594,"o":"m 356 1028 l 594 1028 l 413 594 l 279 594 l 356 1028 z "},"“":{"ha":833,"x_min":68,"x_max":732,"o":"m 250 1028 l 383 1028 l 307 594 l 68 594 l 250 1028 m 599 1028 l 732 1028 l 656 594 l 417 594 l 599 1028 z "},"”":{"ha":833,"x_min":108,"x_max":772,"o":"m 185 1028 l 424 1028 l 242 594 l 108 594 l 185 1028 m 533 1028 l 772 1028 l 590 594 l 457 594 l 533 1028 z "},"‚":{"ha":833,"x_min":250,"x_max":567,"o":"m 328 226 l 567 226 l 385 -206 l 250 -206 l 328 226 z "},"„":{"ha":833,"x_min":90,"x_max":756,"o":"m 168 226 l 407 226 l 225 -206 l 90 -206 l 168 226 m 517 226 l 756 226 l 574 -206 l 439 -206 l 517 226 z "},"‹":{"ha":833,"x_min":239,"x_max":574,"o":"m 519 60 l 239 296 l 239 457 l 519 693 l 574 576 l 386 376 l 574 176 l 519 60 z "},"›":{"ha":833,"x_min":260,"x_max":594,"o":"m 260 176 l 447 376 l 260 576 l 314 693 l 594 457 l 594 296 l 314 60 l 260 176 z "},"«":{"ha":833,"x_min":90,"x_max":758,"o":"m 371 60 l 90 296 l 90 457 l 371 693 l 425 576 l 238 376 l 425 176 l 371 60 m 704 60 l 424 296 l 424 457 l 704 693 l 758 576 l 571 376 l 758 176 l 704 60 z "},"»":{"ha":833,"x_min":76,"x_max":744,"o":"m 76 176 l 264 376 l 76 576 l 131 693 l 411 457 l 411 296 l 131 60 l 76 176 m 410 176 l 597 376 l 410 576 l 464 693 l 744 457 l 744 296 l 464 60 l 410 176 z "},"¡":{"ha":833,"x_min":290,"x_max":543,"o":"m 319 -253 l 319 29 l 388 383 l 446 383 l 514 29 l 514 -253 l 319 -253 m 417 493 q 319 522 347 493 q 290 593 290 551 l 290 632 q 319 703 290 674 q 417 732 347 732 q 515 703 486 732 q 543 632 543 674 l 543 593 q 515 522 543 551 q 417 493 486 493 z "},"!":{"ha":833,"x_min":290,"x_max":543,"o":"m 388 333 l 319 688 l 319 969 l 514 969 l 514 688 l 446 333 l 388 333 m 417 -15 q 319 14 347 -15 q 290 85 290 43 l 290 124 q 319 194 290 165 q 417 224 347 224 q 515 194 486 224 q 543 124 543 165 l 543 85 q 515 14 543 43 q 417 -15 486 -15 z "},"¿":{"ha":833,"x_min":108,"x_max":742,"o":"m 425 -269 q 296 -249 354 -269 q 196 -192 238 -229 q 131 -105 154 -156 q 108 8 108 -54 q 129 117 108 69 q 185 201 150 165 q 267 258 221 236 q 363 289 313 281 l 363 400 l 532 400 l 532 186 q 360 145 424 182 q 297 25 297 108 l 297 6 q 335 -87 297 -57 q 431 -117 372 -117 q 536 -80 496 -117 q 592 15 576 -43 l 742 -46 q 704 -129 729 -89 q 641 -201 679 -169 q 549 -251 603 -232 q 425 -269 496 -269 m 443 493 q 345 522 374 493 q 317 593 317 551 l 317 632 q 345 703 317 674 q 443 732 374 732 q 541 703 513 732 q 569 632 569 674 l 569 593 q 541 522 569 551 q 443 493 513 493 z "},"?":{"ha":833,"x_min":92,"x_max":725,"o":"m 301 317 l 301 531 q 473 572 410 535 q 536 692 536 608 l 536 711 q 499 803 536 774 q 403 833 461 833 q 297 797 338 833 q 242 701 257 760 l 92 763 q 129 846 104 806 q 192 917 154 886 q 284 967 231 949 q 408 986 338 986 q 538 966 479 986 q 638 909 596 946 q 702 822 679 872 q 725 708 725 771 q 704 599 725 647 q 648 516 683 551 q 567 458 613 481 q 471 428 521 436 l 471 317 l 301 317 m 390 -15 q 292 14 321 -15 q 264 85 264 43 l 264 124 q 292 194 264 165 q 390 224 321 224 q 488 194 460 224 q 517 124 517 165 l 517 85 q 488 14 517 43 q 390 -15 460 -15 z "},"(":{"ha":833,"x_min":254,"x_max":721,"o":"m 254 432 q 277 627 254 533 q 340 801 300 721 q 432 947 379 882 q 543 1056 485 1011 l 721 1056 q 601 951 658 1011 q 501 820 544 892 q 433 667 458 749 q 407 499 407 586 l 407 365 q 433 197 407 278 q 501 44 458 115 q 601 -87 544 -28 q 721 -192 658 -147 l 543 -192 q 432 -83 485 -149 q 340 63 379 -18 q 277 237 300 143 q 254 432 254 331 z "},")":{"ha":833,"x_min":113,"x_max":579,"o":"m 579 432 q 556 237 579 331 q 494 63 533 143 q 401 -83 454 -18 q 290 -192 349 -149 l 113 -192 q 232 -87 175 -147 q 332 44 289 -28 q 401 197 375 115 q 426 365 426 278 l 426 499 q 401 667 426 586 q 332 820 375 749 q 232 951 289 892 q 113 1056 175 1011 l 290 1056 q 401 947 349 1011 q 494 801 454 882 q 556 627 533 721 q 579 432 579 533 z "},"[":{"ha":833,"x_min":271,"x_max":703,"o":"m 271 -192 l 271 1056 l 703 1056 l 703 933 l 415 933 l 415 -69 l 703 -69 l 703 -192 l 271 -192 z "},"]":{"ha":833,"x_min":131,"x_max":563,"o":"m 563 1056 l 563 -192 l 131 -192 l 131 -69 l 418 -69 l 418 933 l 131 933 l 131 1056 l 563 1056 z "},"{":{"ha":833,"x_min":133,"x_max":700,"o":"m 454 -192 q 333 -153 371 -192 q 296 -53 296 -114 l 296 17 q 303 80 296 53 q 322 128 311 107 q 347 165 333 149 q 374 197 361 182 q 406 245 397 225 q 415 288 415 265 q 254 371 415 371 l 133 371 l 133 493 l 254 493 q 415 576 415 493 q 406 619 415 599 q 374 667 397 639 q 347 699 361 682 q 322 736 333 715 q 303 784 311 757 q 296 847 296 811 l 296 917 q 333 1017 296 978 q 454 1056 371 1056 l 700 1056 l 700 933 l 440 933 l 440 856 q 457 772 440 801 q 496 715 474 743 q 540 653 519 686 q 561 575 561 619 q 521 481 561 517 q 401 436 481 446 l 401 428 q 521 383 481 418 q 561 289 561 347 q 540 211 561 244 q 496 149 519 178 q 457 92 474 121 q 440 8 440 63 l 440 -69 l 700 -69 l 700 -192 l 454 -192 z "},"}":{"ha":833,"x_min":133,"x_max":700,"o":"m 379 1056 q 500 1017 463 1056 q 538 917 538 978 l 538 847 q 530 784 538 811 q 511 736 522 757 q 486 699 500 715 q 460 667 472 682 q 427 619 436 639 q 418 576 418 599 q 579 493 418 493 l 700 493 l 700 371 l 579 371 q 418 288 418 371 q 427 245 418 265 q 460 197 436 225 q 486 165 472 182 q 511 128 500 149 q 530 80 522 107 q 538 17 538 53 l 538 -53 q 500 -153 538 -114 q 379 -192 463 -192 l 133 -192 l 133 -69 l 393 -69 l 393 8 q 376 92 393 63 q 338 149 360 121 q 293 211 314 178 q 272 289 272 244 q 313 383 272 347 q 432 428 353 418 l 432 436 q 313 481 353 446 q 272 575 272 517 q 293 653 272 619 q 338 715 314 686 q 376 772 360 743 q 393 856 393 801 l 393 933 l 133 933 l 133 1056 l 379 1056 z "},"/":{"ha":833,"x_min":108,"x_max":725,"o":"m 108 -192 l 565 1056 l 725 1056 l 268 -192 l 108 -192 z "},"\\":{"ha":833,"x_min":108,"x_max":725,"o":"m 565 -192 l 108 1056 l 268 1056 l 725 -192 l 565 -192 z "},"⁄":{"ha":833,"x_min":8,"x_max":825,"o":"m 694 969 l 825 969 l 590 553 l 460 553 l 694 969 m 243 417 l 374 417 l 139 0 l 8 0 l 243 417 z "},"∕":{"ha":833,"x_min":8,"x_max":825,"o":"m 694 969 l 825 969 l 590 553 l 460 553 l 694 969 m 243 417 l 374 417 l 139 0 l 8 0 l 243 417 z "},"%":{"ha":833,"x_min":10,"x_max":824,"o":"m 231 478 q 74 544 131 478 q 17 732 17 611 q 74 919 17 853 q 231 986 131 986 q 388 919 331 986 q 444 732 444 853 q 388 544 444 611 q 231 478 331 478 m 231 585 q 295 616 275 585 q 315 700 315 647 l 315 764 q 295 848 315 817 q 231 879 275 879 q 166 848 186 879 q 146 764 146 817 l 146 700 q 166 616 146 647 q 231 585 186 585 m 683 969 l 824 969 l 610 553 l 471 553 l 683 969 m 224 417 l 363 417 l 150 0 l 10 0 l 224 417 m 603 -17 q 446 50 503 -17 q 389 238 389 117 q 446 425 389 358 q 603 492 503 492 q 760 425 703 492 q 817 238 817 358 q 760 50 817 117 q 603 -17 703 -17 m 603 90 q 667 122 647 90 q 688 206 688 153 l 688 269 q 667 353 688 322 q 603 385 647 385 q 538 353 558 385 q 518 269 518 322 l 518 206 q 538 122 518 153 q 603 90 558 90 z "},"‰":{"ha":833,"x_min":0,"x_max":833,"o":"m 201 556 q 53 613 106 556 q 0 771 0 671 q 53 929 0 872 q 201 986 106 986 q 350 929 297 986 q 403 771 403 872 q 350 613 403 671 q 201 556 297 556 m 201 653 q 259 680 239 653 q 279 744 279 707 l 279 797 q 259 862 279 835 q 201 889 239 889 q 144 862 164 889 q 124 797 124 835 l 124 744 q 144 680 124 707 q 201 653 164 653 m 83 471 l 719 682 l 747 596 l 111 385 l 83 471 m 349 -17 q 203 41 256 -17 q 150 199 150 99 q 203 356 150 299 q 349 414 256 414 q 428 397 393 414 q 486 349 464 379 l 497 349 q 555 397 519 379 q 635 414 590 414 q 781 356 728 414 q 833 199 833 299 q 781 41 833 99 q 635 -17 728 -17 q 555 1 590 -17 q 497 49 519 18 l 486 49 q 428 1 464 18 q 349 -17 393 -17 m 351 81 q 409 108 389 81 q 429 172 429 135 l 429 225 q 409 290 429 263 q 351 317 389 317 q 294 290 314 317 q 274 225 274 263 l 274 172 q 294 108 274 135 q 351 81 314 81 m 632 81 q 690 108 669 81 q 710 172 710 135 l 710 225 q 690 290 710 263 q 632 317 669 317 q 574 290 594 317 q 554 225 554 263 l 554 172 q 574 108 554 135 q 632 81 594 81 z "},"|":{"ha":833,"x_min":340,"x_max":493,"o":"m 340 -192 l 340 1056 l 493 1056 l 493 -192 l 340 -192 z "},"¦":{"ha":833,"x_min":340,"x_max":493,"o":"m 340 557 l 340 1056 l 493 1056 l 493 557 l 340 557 m 340 -192 l 340 307 l 493 307 l 493 -192 l 340 -192 z "},"§":{"ha":833,"x_min":97,"x_max":744,"o":"m 700 4 q 678 -94 700 -50 q 616 -170 656 -139 q 522 -219 576 -201 q 400 -236 467 -236 q 261 -215 331 -236 q 133 -142 192 -194 l 225 -33 q 304 -87 260 -68 q 401 -106 349 -106 q 506 -78 468 -106 q 544 -1 544 -50 q 513 65 544 40 q 415 106 481 89 l 313 135 q 212 174 253 151 q 145 223 171 196 q 108 281 119 250 q 97 344 97 313 q 135 456 97 407 q 250 538 174 506 l 250 556 q 167 640 193 592 q 142 746 142 688 q 163 846 142 801 q 224 922 185 890 q 319 969 264 953 q 442 986 375 986 q 581 965 511 986 q 708 893 650 944 l 617 783 q 537 837 581 818 q 440 856 493 856 q 335 828 374 856 q 297 753 297 800 q 329 686 297 711 q 426 644 361 661 l 529 615 q 630 576 589 599 q 697 527 671 554 q 733 469 722 500 q 744 406 744 438 q 707 294 744 343 q 592 213 669 244 l 592 194 q 674 110 649 158 q 700 4 700 63 m 592 354 q 564 429 592 397 q 461 481 536 461 l 361 508 q 338 515 349 511 q 315 524 326 519 q 267 465 283 496 q 250 396 250 433 q 278 321 250 353 q 381 269 306 289 l 481 242 q 504 235 493 239 q 526 226 515 231 q 575 285 558 254 q 592 354 592 317 z "},"¶":{"ha":833,"x_min":39,"x_max":747,"o":"m 351 342 q 230 365 286 342 q 131 431 174 389 q 63 530 88 472 q 39 656 39 588 q 63 781 39 724 q 131 881 88 839 q 230 946 174 922 q 351 969 286 969 l 747 969 l 747 -207 l 600 -207 l 600 829 l 499 829 l 499 -207 l 351 -207 l 351 342 z "},"©":{"ha":833,"x_min":0,"x_max":833,"o":"m 417 25 q 253 57 329 25 q 122 149 178 89 q 33 293 65 208 q 0 485 0 378 q 33 676 0 590 q 122 821 65 761 q 253 913 178 881 q 417 944 329 944 q 580 913 504 944 q 712 821 656 881 q 801 676 768 761 q 833 485 833 590 q 801 293 833 378 q 712 149 768 208 q 580 57 656 89 q 417 25 504 25 m 417 101 q 548 128 488 101 q 652 201 608 154 q 721 310 696 247 q 746 443 746 372 l 746 526 q 721 660 746 597 q 652 769 696 722 q 548 842 608 815 q 417 868 488 868 q 285 842 346 868 q 181 769 225 815 q 113 660 138 722 q 88 526 88 597 l 88 443 q 113 310 88 372 q 181 201 138 247 q 285 128 225 154 q 417 101 346 101 m 428 219 q 250 292 315 219 q 185 485 185 364 q 202 594 185 544 q 252 678 219 643 q 329 731 285 713 q 428 750 374 750 q 556 713 507 750 q 629 617 606 675 l 525 563 q 488 615 510 596 q 429 635 465 635 q 359 606 385 635 q 333 532 333 578 l 333 438 q 358 363 333 392 q 431 335 383 335 q 494 355 471 335 q 535 407 518 375 l 638 353 q 564 259 614 299 q 428 219 514 219 z "},"®":{"ha":833,"x_min":163,"x_max":671,"o":"m 417 481 q 317 500 364 481 q 236 553 271 519 q 182 633 201 586 q 163 733 163 679 q 182 834 163 788 q 236 914 201 881 q 317 967 271 947 q 417 986 364 986 q 516 967 469 986 q 597 914 563 947 q 651 834 631 881 q 671 733 671 788 q 651 633 671 679 q 597 553 631 586 q 516 500 563 519 q 417 481 469 481 m 417 538 q 491 551 457 538 q 550 588 525 564 q 590 644 575 611 q 604 719 604 678 l 604 747 q 590 822 604 789 q 550 879 575 856 q 491 916 525 903 q 417 929 457 929 q 342 916 376 929 q 283 879 308 903 q 244 822 258 856 q 229 747 229 789 l 229 719 q 244 644 229 678 q 283 588 258 611 q 342 551 308 564 q 417 538 376 538 m 382 606 l 313 606 l 313 863 l 438 863 q 508 839 485 863 q 531 778 531 815 q 482 700 531 722 l 539 606 l 463 606 l 415 688 l 382 688 l 382 606 m 421 739 q 457 768 457 739 l 457 779 q 421 808 457 808 l 382 808 l 382 739 l 421 739 z "},"™":{"ha":833,"x_min":19,"x_max":763,"o":"m 122 572 l 122 892 l 19 892 l 19 969 l 331 969 l 331 892 l 228 892 l 228 572 l 122 572 m 368 572 l 368 969 l 483 969 l 565 810 l 572 810 l 654 969 l 763 969 l 763 572 l 672 572 l 672 719 l 681 844 l 675 844 l 565 638 l 456 844 l 450 844 l 458 719 l 458 572 l 368 572 z "},"ª":{"ha":833,"x_min":179,"x_max":668,"o":"m 596 479 q 497 564 506 479 l 492 564 q 438 494 478 519 q 339 468 399 468 q 222 507 264 468 q 179 615 179 546 q 235 729 179 692 q 400 767 292 767 l 486 767 l 486 794 q 464 867 486 843 q 392 890 442 890 q 315 872 344 890 q 267 825 286 853 l 194 889 q 269 958 218 929 q 404 986 321 986 q 558 939 503 986 q 614 800 614 892 l 614 575 l 668 575 l 668 479 l 596 479 m 401 692 q 304 631 304 692 l 304 613 q 325 570 304 585 q 382 556 346 556 q 456 576 425 556 q 486 633 486 596 l 486 692 l 401 692 z "},"º":{"ha":833,"x_min":174,"x_max":660,"o":"m 417 469 q 238 538 303 469 q 174 728 174 607 q 238 917 174 849 q 417 986 303 986 q 595 917 531 986 q 660 728 660 849 q 595 538 660 607 q 417 469 531 469 m 417 567 q 498 599 469 567 q 526 688 526 631 l 526 768 q 498 857 526 825 q 417 889 469 889 q 335 857 364 889 q 307 768 307 825 l 307 688 q 335 599 307 631 q 417 567 364 567 z "},"°":{"ha":833,"x_min":163,"x_max":671,"o":"m 417 478 q 317 497 363 478 q 236 551 271 517 q 182 631 201 585 q 163 732 163 678 q 182 833 163 786 q 236 913 201 879 q 317 967 271 947 q 417 986 363 986 q 517 967 471 986 q 597 913 563 947 q 651 833 632 879 q 671 732 671 786 q 651 631 671 678 q 597 551 632 585 q 517 497 563 517 q 417 478 471 478 m 417 597 q 509 635 475 597 q 543 732 543 674 q 509 828 543 790 q 417 867 475 867 q 324 828 358 867 q 290 732 290 790 q 324 635 290 674 q 417 597 358 597 z "},"′":{"ha":833,"x_min":294,"x_max":539,"o":"m 294 494 l 378 969 l 539 969 l 456 494 l 294 494 z "},"″":{"ha":833,"x_min":149,"x_max":685,"o":"m 149 494 l 232 969 l 393 969 l 310 494 l 149 494 m 440 494 l 524 969 l 685 969 l 601 494 l 440 494 z "},"*":{"ha":833,"x_min":47,"x_max":786,"o":"m 258 61 l 133 146 l 296 363 l 47 447 l 93 586 l 339 500 l 339 763 l 494 763 l 494 500 l 740 586 l 786 447 l 538 363 l 700 146 l 575 61 l 417 278 l 258 61 z "},"†":{"ha":833,"x_min":89,"x_max":744,"o":"m 340 -278 l 340 585 l 89 585 l 89 717 l 340 717 l 340 1028 l 493 1028 l 493 717 l 744 717 l 744 585 l 493 585 l 493 -278 l 340 -278 z "},"‡":{"ha":833,"x_min":89,"x_max":744,"o":"m 340 -278 l 340 33 l 89 33 l 89 165 l 340 165 l 340 585 l 89 585 l 89 717 l 340 717 l 340 1028 l 493 1028 l 493 717 l 744 717 l 744 585 l 493 585 l 493 165 l 744 165 l 744 33 l 493 33 l 493 -278 l 340 -278 z "},"#":{"ha":833,"x_min":15,"x_max":818,"o":"m 175 279 l 15 279 l 15 413 l 200 413 l 224 557 l 68 557 l 68 690 l 249 690 l 297 969 l 442 969 l 271 0 l 126 0 l 175 279 m 563 969 l 707 969 l 658 690 l 818 690 l 818 557 l 633 557 l 610 413 l 765 413 l 765 279 l 585 279 l 536 0 l 392 0 l 563 969 z "},"^":{"ha":833,"x_min":44,"x_max":789,"o":"m 647 351 l 419 808 l 407 808 l 179 351 l 44 417 l 322 969 l 511 969 l 789 417 l 647 351 z "},"~":{"ha":833,"x_min":57,"x_max":776,"o":"m 549 250 q 453 277 493 250 q 376 353 413 304 q 326 419 347 392 q 278 447 306 447 q 218 396 238 447 q 185 265 199 344 l 57 290 q 135 522 79 447 q 285 596 190 596 q 381 569 340 596 q 457 493 421 542 q 507 426 486 454 q 556 399 528 399 q 615 450 596 399 q 649 581 635 501 l 776 556 q 699 324 754 399 q 549 250 643 250 z "},"+":{"ha":833,"x_min":86,"x_max":747,"o":"m 339 86 l 339 353 l 86 353 l 86 496 l 339 496 l 339 763 l 494 763 l 494 496 l 747 496 l 747 353 l 494 353 l 494 86 l 339 86 z "},"−":{"ha":833,"x_min":86,"x_max":747,"o":"m 86 353 l 86 496 l 747 496 l 747 353 l 86 353 z "},"±":{"ha":833,"x_min":86,"x_max":747,"o":"m 339 242 l 339 486 l 86 486 l 86 629 l 339 629 l 339 874 l 494 874 l 494 629 l 747 629 l 747 486 l 494 486 l 494 242 l 339 242 m 86 0 l 86 144 l 747 144 l 747 0 l 86 0 z "},"×":{"ha":833,"x_min":104,"x_max":729,"o":"m 417 321 l 208 111 l 104 215 l 314 424 l 104 632 l 208 736 l 417 526 l 625 736 l 729 632 l 519 424 l 729 215 l 625 111 l 417 321 z "},"÷":{"ha":833,"x_min":86,"x_max":747,"o":"m 86 353 l 86 496 l 747 496 l 747 353 l 86 353 m 417 50 q 331 75 356 50 q 306 138 306 100 l 306 169 q 331 231 306 206 q 417 257 356 257 q 503 231 478 257 q 528 169 528 206 l 528 138 q 503 75 528 100 q 417 50 478 50 m 417 592 q 331 617 356 592 q 306 679 306 643 l 306 711 q 331 773 306 747 q 417 799 356 799 q 503 773 478 799 q 528 711 528 747 l 528 679 q 503 617 528 643 q 417 592 478 592 z "},"=":{"ha":833,"x_min":86,"x_max":747,"o":"m 86 506 l 86 649 l 747 649 l 747 506 l 86 506 m 86 199 l 86 342 l 747 342 l 747 199 l 86 199 z "},"≈":{"ha":833,"x_min":57,"x_max":776,"o":"m 568 456 q 488 469 528 456 q 404 504 449 482 q 339 536 368 522 q 281 550 310 550 q 224 525 244 550 q 185 456 203 500 l 57 503 q 131 643 78 589 q 265 697 185 697 q 345 684 306 697 q 429 649 385 671 q 494 617 465 631 q 553 603 524 603 q 610 628 589 603 q 649 697 631 653 l 776 650 q 702 510 756 564 q 568 456 649 456 m 568 150 q 488 163 528 150 q 404 199 449 176 q 339 231 368 217 q 281 244 310 244 q 224 219 244 244 q 185 150 203 194 l 57 197 q 131 338 78 283 q 265 392 185 392 q 345 378 306 392 q 429 343 385 365 q 494 311 465 325 q 553 297 524 297 q 610 322 589 297 q 649 392 631 347 l 776 344 q 702 204 756 258 q 568 150 649 150 z "},"≠":{"ha":833,"x_min":86,"x_max":747,"o":"m 146 64 l 219 199 l 86 199 l 86 342 l 300 342 l 390 506 l 86 506 l 86 649 l 463 649 l 536 783 l 688 783 l 614 649 l 747 649 l 747 506 l 533 506 l 443 342 l 747 342 l 747 199 l 371 199 l 297 64 l 146 64 z "},"<":{"ha":833,"x_min":118,"x_max":715,"o":"m 118 340 l 118 507 l 715 835 l 715 665 l 279 429 l 279 418 l 715 182 l 715 13 l 118 340 z "},">":{"ha":833,"x_min":118,"x_max":715,"o":"m 118 182 l 554 418 l 554 429 l 118 665 l 118 835 l 715 507 l 715 340 l 118 13 l 118 182 z "},"≤":{"ha":833,"x_min":118,"x_max":715,"o":"m 118 0 l 118 142 l 715 142 l 715 0 l 118 0 m 715 668 l 288 511 l 288 501 l 715 343 l 715 190 l 118 422 l 118 593 l 715 825 l 715 668 z "},"≥":{"ha":833,"x_min":118,"x_max":715,"o":"m 118 347 l 546 504 l 546 514 l 118 672 l 118 825 l 715 593 l 715 422 l 118 190 l 118 347 m 118 142 l 715 142 l 715 0 l 118 0 l 118 142 z "},"·":{"ha":833,"x_min":283,"x_max":550,"o":"m 417 296 q 314 326 344 296 q 283 401 283 357 l 283 443 q 314 518 283 488 q 417 549 344 549 q 519 518 489 549 q 550 443 550 488 l 550 401 q 519 326 550 357 q 417 296 489 296 z "},"•":{"ha":833,"x_min":217,"x_max":617,"o":"m 417 229 q 323 242 361 229 q 261 278 285 256 q 227 333 238 301 q 217 400 217 364 l 217 444 q 227 512 217 481 q 261 566 238 543 q 323 602 285 589 q 417 615 361 615 q 510 602 472 615 q 572 566 549 589 q 606 512 596 543 q 617 444 617 481 l 617 400 q 572 278 617 326 q 417 229 526 229 z "},"◊":{"ha":833,"x_min":44,"x_max":789,"o":"m 347 0 l 44 485 l 347 969 l 486 969 l 789 485 l 486 0 l 347 0 m 421 151 l 626 485 l 421 818 l 413 818 l 207 485 l 413 151 l 421 151 z "},"¬":{"ha":833,"x_min":86,"x_max":725,"o":"m 578 85 l 578 353 l 86 353 l 86 496 l 725 496 l 725 85 l 578 85 z "},"√":{"ha":833,"x_min":25,"x_max":818,"o":"m 313 0 l 144 569 l 25 569 l 25 717 l 263 717 l 336 457 l 419 131 l 429 131 l 518 457 l 665 969 l 818 969 l 532 0 l 313 0 z "},"∫":{"ha":833,"x_min":42,"x_max":756,"o":"m 42 -137 l 310 -137 l 310 833 q 322 912 310 876 q 358 973 333 947 q 422 1013 383 999 q 511 1028 460 1028 l 756 1028 l 756 888 l 488 888 l 488 -83 q 438 -224 488 -169 q 286 -278 389 -278 l 42 -278 l 42 -137 z "},"∞":{"ha":833,"x_min":15,"x_max":818,"o":"m 222 175 q 69 240 122 175 q 15 424 15 306 q 72 607 15 542 q 233 672 129 672 q 356 630 304 672 q 439 492 408 588 l 444 492 q 506 628 458 585 q 611 672 553 672 q 765 607 711 672 q 818 424 818 542 q 761 240 818 306 q 600 175 704 175 q 477 217 529 175 q 394 356 425 260 l 389 356 q 328 219 375 263 q 222 175 281 175 m 238 300 q 315 332 283 300 q 361 413 346 364 q 313 508 342 469 q 238 547 283 547 q 181 520 203 547 q 160 442 160 493 l 160 406 q 181 327 160 354 q 238 300 203 300 m 596 300 q 652 327 631 300 q 674 406 674 354 l 674 442 q 652 520 674 493 q 596 547 631 547 q 519 515 550 547 q 472 435 488 483 q 521 339 492 378 q 596 300 550 300 z "},"℮":{"ha":833,"x_min":36,"x_max":797,"o":"m 240 128 q 315 78 268 99 q 417 57 361 57 q 510 71 468 57 q 585 110 551 85 q 646 169 619 135 q 694 246 672 204 l 761 208 q 703 122 736 163 q 629 50 671 81 q 535 1 588 19 q 417 -17 482 -17 q 260 22 331 -17 q 140 126 190 60 q 63 285 90 193 q 36 485 36 376 q 63 685 36 593 q 140 843 90 776 q 260 948 190 910 q 417 986 331 986 q 573 948 503 986 q 693 843 643 910 q 770 685 743 776 q 797 485 797 593 l 240 485 l 240 128 m 593 551 l 593 849 q 518 897 564 878 q 417 915 472 915 q 315 897 361 915 q 240 849 269 878 l 240 551 l 593 551 z "},"ℓ":{"ha":833,"x_min":60,"x_max":753,"o":"m 456 -17 q 266 47 338 -17 q 194 222 194 111 l 194 229 q 166 210 183 221 q 136 192 149 199 l 60 314 q 133 359 96 335 q 194 401 169 383 l 194 763 q 213 892 194 839 q 263 980 231 946 q 340 1029 296 1014 q 435 1044 383 1044 q 610 978 550 1044 q 671 790 671 911 q 651 664 671 724 q 594 547 632 604 q 498 432 556 489 q 364 314 440 375 l 364 256 q 389 164 364 192 q 458 136 414 136 q 539 169 507 136 q 611 281 571 201 l 753 207 q 640 43 711 103 q 456 -17 568 -17 m 439 889 q 386 863 408 889 q 364 769 364 836 l 364 496 q 469 626 431 558 q 507 774 507 693 l 507 790 q 488 866 507 843 q 439 889 469 889 z "},"№":{"ha":833,"x_min":35,"x_max":826,"o":"m 667 461 q 547 524 586 461 q 507 721 507 588 q 547 917 507 854 q 667 981 586 981 q 787 917 747 981 q 826 721 826 854 q 787 524 826 588 q 667 461 747 461 m 35 0 l 35 969 l 257 969 l 304 499 l 336 135 l 350 135 l 350 969 l 464 969 l 464 0 l 242 0 l 194 471 l 163 835 l 149 835 l 149 0 l 35 0 m 667 560 q 711 588 701 560 q 721 669 721 617 l 721 772 q 711 853 721 825 q 667 882 701 882 q 622 853 632 882 q 613 772 613 825 l 613 669 q 622 588 613 617 q 667 560 632 560 m 515 326 l 515 425 l 818 425 l 818 326 l 515 326 z "},"∂":{"ha":833,"x_min":68,"x_max":767,"o":"m 767 379 q 742 203 767 278 q 672 80 717 129 q 563 7 626 31 q 421 -17 499 -17 q 272 9 338 -17 q 162 82 207 35 q 92 197 117 129 q 68 350 68 265 q 88 494 68 429 q 145 604 108 558 q 234 675 182 650 q 350 700 286 700 q 484 663 431 700 q 571 567 538 626 l 582 571 q 428 785 540 689 q 150 969 315 882 l 417 969 q 540 880 478 932 q 653 756 603 828 q 735 591 703 685 q 767 379 767 497 m 417 119 q 538 165 493 119 q 582 299 582 211 l 582 383 q 538 517 582 471 q 417 563 493 563 q 296 517 340 563 q 251 383 251 471 l 251 299 q 296 165 251 211 q 417 119 340 119 z "},"¤":{"ha":833,"x_min":76,"x_max":757,"o":"m 417 154 q 289 175 344 154 l 200 24 l 76 96 l 171 258 q 117 357 136 300 q 99 485 99 414 q 117 613 99 556 q 171 711 136 669 l 76 874 l 200 946 l 289 794 q 417 815 344 815 q 544 794 488 815 l 633 946 l 757 874 l 663 711 q 716 613 697 669 q 735 485 735 556 q 716 357 735 414 q 663 258 697 300 l 757 96 l 633 24 l 544 175 q 417 154 488 154 m 417 286 q 517 326 481 286 q 554 444 554 367 l 554 525 q 517 643 554 603 q 417 683 481 683 q 316 643 353 683 q 279 525 279 603 l 279 444 q 316 326 279 367 q 417 286 353 286 z "},"¢":{"ha":833,"x_min":93,"x_max":743,"o":"m 367 -158 l 367 -10 q 165 110 236 13 q 93 358 93 207 q 165 607 93 510 q 367 726 236 704 l 367 875 l 504 875 l 504 729 q 647 673 592 718 q 732 561 701 628 l 601 490 q 560 552 586 525 q 494 590 533 579 l 494 125 q 567 164 538 136 q 617 229 597 192 l 743 156 q 653 44 711 89 q 504 -12 594 -1 l 504 -158 l 367 -158 m 267 299 q 294 192 267 236 q 378 129 322 147 l 378 588 q 295 526 324 571 q 267 418 267 481 l 267 299 z "},"€":{"ha":833,"x_min":74,"x_max":782,"o":"m 461 -17 q 174 114 274 -17 q 74 485 74 244 q 174 856 74 725 q 461 986 274 986 q 581 971 531 986 q 669 930 632 956 q 734 872 707 904 q 782 804 761 839 l 646 718 q 576 808 618 776 q 467 840 535 840 q 334 792 383 840 q 268 656 285 743 l 579 656 l 579 539 l 261 539 l 261 431 l 579 431 l 579 314 l 268 314 q 334 178 285 226 q 467 129 383 129 q 576 161 535 129 q 646 251 618 193 l 782 165 q 734 98 761 131 q 669 40 707 65 q 581 -1 632 14 q 461 -17 531 -17 z "},"ƒ":{"ha":833,"x_min":-67,"x_max":854,"o":"m -44 -137 l 224 -137 l 325 468 l 89 468 l 113 608 l 349 608 l 378 788 q 444 922 393 874 q 597 969 494 969 l 854 969 l 831 829 l 563 829 l 526 608 l 769 608 l 747 468 l 501 468 l 408 -96 q 342 -230 393 -182 q 189 -278 292 -278 l -67 -278 l -44 -137 z "},"£":{"ha":833,"x_min":67,"x_max":772,"o":"m 99 0 l 99 176 q 214 349 214 225 q 213 365 214 357 q 211 381 213 374 l 67 381 l 67 517 l 168 517 q 138 601 151 557 q 125 697 125 644 q 149 815 125 761 q 218 906 174 868 q 325 965 263 944 q 464 986 388 986 q 647 947 572 986 q 772 836 721 907 l 650 728 q 574 801 615 774 q 467 829 532 829 q 352 790 394 829 q 310 672 310 751 q 322 590 310 628 q 349 517 333 553 l 603 517 l 603 381 l 390 381 q 393 357 393 369 q 383 290 393 319 q 356 236 372 260 q 321 196 340 213 q 282 169 301 179 l 282 158 l 761 158 l 761 0 l 99 0 z "},"$":{"ha":833,"x_min":51,"x_max":782,"o":"m 363 -15 q 177 34 254 -7 q 51 140 100 75 l 161 253 q 372 136 253 150 l 372 424 l 340 429 q 223 467 272 442 q 142 528 174 492 q 97 608 111 564 q 82 704 82 653 q 155 894 82 822 q 363 982 228 967 l 363 1126 l 499 1126 l 499 983 q 653 938 589 972 q 763 847 718 903 l 653 735 q 489 828 589 811 l 489 564 l 524 558 q 721 462 660 533 q 782 286 782 390 q 709 90 782 168 q 499 -10 636 11 l 499 -157 l 363 -157 l 363 -15 m 253 710 q 281 631 253 658 q 372 588 308 603 l 372 832 q 253 710 253 815 m 613 275 q 583 359 613 331 q 489 401 554 388 l 489 138 q 582 183 551 149 q 613 275 613 218 z "},"¥":{"ha":833,"x_min":10,"x_max":824,"o":"m 86 139 l 331 139 l 331 321 l 86 321 l 86 460 l 244 460 l 10 969 l 200 969 l 414 460 l 425 460 l 639 969 l 824 969 l 589 460 l 747 460 l 747 321 l 503 321 l 503 139 l 747 139 l 747 0 l 86 0 l 86 139 z "},"฿":{"ha":833,"x_min":99,"x_max":776,"o":"m 483 -157 l 347 -157 l 347 0 l 99 0 l 99 969 l 347 969 l 347 1126 l 483 1126 l 483 969 l 485 969 q 597 949 547 968 q 681 896 646 929 q 733 816 715 863 q 751 714 751 769 q 710 578 751 628 q 593 506 668 528 l 593 500 q 727 423 678 478 q 776 271 776 368 q 756 160 776 210 q 700 75 736 111 q 611 19 664 39 q 494 0 558 0 l 483 0 l 483 -157 m 357 554 l 357 839 l 264 839 l 264 554 l 357 554 m 474 558 q 576 672 576 571 l 576 721 q 474 835 576 822 l 474 558 m 357 131 l 357 431 l 264 431 l 264 131 l 357 131 m 474 132 q 569 163 536 135 q 601 253 601 192 l 601 308 q 569 398 601 369 q 474 429 536 426 l 474 132 z "},"₡":{"ha":833,"x_min":69,"x_max":778,"o":"m 433 -15 l 429 -15 q 360 -8 394 -15 l 349 -157 l 254 -157 l 268 24 q 118 192 167 75 q 69 485 69 308 q 137 817 69 692 q 344 975 204 943 l 357 1126 l 450 1126 l 439 986 q 479 985 461 986 q 514 981 497 983 l 525 1126 l 618 1126 l 604 954 q 707 878 664 926 q 778 763 750 831 l 639 697 q 617 746 629 724 q 590 785 606 768 l 538 146 q 598 195 574 163 q 639 272 622 228 l 778 207 q 681 64 742 119 q 528 -10 619 8 l 517 -157 l 422 -157 l 433 -15 m 440 849 q 426 847 432 849 l 369 133 q 431 122 399 122 l 444 122 l 504 840 q 440 849 472 849 m 242 401 q 251 290 242 340 q 285 203 261 239 l 335 819 q 263 722 285 786 q 242 568 242 657 l 242 401 z "},"₤":{"ha":833,"x_min":69,"x_max":772,"o":"m 761 0 l 99 0 l 99 176 q 200 282 176 208 l 69 282 l 69 396 l 210 396 q 197 447 206 422 q 178 496 189 472 l 69 496 l 69 610 l 136 610 q 125 697 125 651 q 149 815 125 761 q 218 906 174 868 q 325 965 263 944 q 464 986 388 986 q 647 947 572 986 q 772 836 721 907 l 650 728 q 574 801 615 774 q 467 829 532 829 q 352 790 394 829 q 310 672 310 751 q 312 640 310 654 q 317 610 314 625 l 585 610 l 585 496 l 360 496 q 378 448 369 472 q 390 396 386 424 l 585 396 l 585 282 l 378 282 q 336 213 363 240 q 282 169 310 185 l 282 158 l 761 158 l 761 0 z "},"₦":{"ha":833,"x_min":33,"x_max":800,"o":"m 394 335 l 240 335 l 240 0 l 104 0 l 104 326 l 33 326 l 33 444 l 104 444 l 104 525 l 33 525 l 33 643 l 104 643 l 104 969 l 339 969 l 439 635 l 593 635 l 593 969 l 729 969 l 729 643 l 800 643 l 800 525 l 729 525 l 729 444 l 800 444 l 800 326 l 729 326 l 729 0 l 494 0 l 394 335 m 365 436 l 253 807 l 240 807 l 240 436 l 365 436 m 581 163 l 593 163 l 593 533 l 468 533 l 581 163 z "},"₨":{"ha":833,"x_min":57,"x_max":826,"o":"m 57 0 l 57 969 l 256 969 q 442 903 379 969 q 504 714 504 836 q 474 572 504 635 q 381 478 444 510 l 474 215 q 521 135 493 163 q 597 107 549 107 q 672 172 672 107 q 659 221 672 200 q 618 269 646 242 l 594 292 q 525 378 550 336 q 500 478 500 421 q 551 612 500 563 q 690 661 603 661 q 760 651 725 661 q 826 621 796 642 l 776 514 q 704 540 742 540 q 646 482 646 540 q 659 435 646 454 q 701 385 672 415 l 722 364 q 792 277 767 319 q 818 175 818 235 q 763 36 818 89 q 585 -17 707 -17 q 427 24 490 -17 q 332 164 364 64 l 236 447 l 206 447 l 206 0 l 57 0 m 256 571 q 330 596 307 571 q 353 675 353 621 l 353 738 q 330 817 353 792 q 256 842 307 842 l 206 842 l 206 571 l 256 571 z "},"₩":{"ha":833,"x_min":18,"x_max":815,"o":"m 103 365 l 18 365 l 18 482 l 100 482 l 96 592 l 18 592 l 18 708 l 93 708 l 83 969 l 238 969 l 239 699 l 599 699 l 600 969 l 750 969 l 740 708 l 815 708 l 815 592 l 738 592 l 733 482 l 815 482 l 815 365 l 731 365 l 718 0 l 489 0 l 432 600 l 401 600 l 344 0 l 115 0 l 103 365 m 265 121 l 313 600 l 232 600 l 233 121 l 265 121 m 603 121 l 606 600 l 525 600 l 572 121 l 603 121 z "},"₪":{"ha":833,"x_min":58,"x_max":781,"o":"m 261 746 l 385 746 l 385 114 l 501 114 q 558 122 531 114 q 605 149 585 131 q 638 197 625 168 q 650 269 650 226 l 650 969 l 781 969 l 781 275 q 761 154 781 206 q 707 68 742 103 q 624 17 672 33 q 519 0 576 0 l 261 0 l 261 746 m 58 0 l 58 969 l 318 969 q 423 953 375 969 q 505 901 471 936 q 558 815 539 867 q 578 694 578 764 l 578 224 l 454 224 l 454 700 q 442 772 454 743 q 410 820 431 801 q 364 847 390 839 q 308 856 338 856 l 189 856 l 189 0 l 58 0 z "},"₫":{"ha":833,"x_min":103,"x_max":785,"o":"m 540 333 l 532 333 q 462 242 507 279 q 339 206 417 206 q 168 274 233 206 q 103 483 103 343 q 168 694 103 625 q 339 763 233 763 q 462 726 417 763 q 532 636 507 689 l 540 636 l 540 825 l 354 825 l 354 953 l 540 953 l 540 1028 l 707 1028 l 707 953 l 785 953 l 785 825 l 707 825 l 707 219 l 540 219 l 540 333 m 410 335 q 505 365 469 335 q 540 435 540 394 l 540 535 q 505 605 540 575 q 410 635 469 635 q 310 599 343 635 q 276 507 276 564 l 276 461 q 310 370 276 406 q 410 335 343 335 m 114 0 l 114 132 l 743 132 l 743 0 l 114 0 z "},"₭":{"ha":833,"x_min":31,"x_max":818,"o":"m 290 0 l 108 0 l 108 424 l 31 424 l 31 569 l 108 569 l 108 969 l 290 969 l 290 569 l 351 569 l 600 969 l 796 969 l 536 569 l 767 569 l 767 424 l 549 424 l 818 0 l 613 0 l 351 424 l 290 424 l 290 0 z "},"₮":{"ha":833,"x_min":35,"x_max":799,"o":"m 504 264 l 504 0 l 329 0 l 329 186 l 146 104 l 146 231 l 329 313 l 329 432 l 146 350 l 146 476 l 329 558 l 329 825 l 35 825 l 35 969 l 799 969 l 799 825 l 504 825 l 504 635 l 688 717 l 688 590 l 504 510 l 504 390 l 688 471 l 688 344 l 504 264 z "},"₱":{"ha":833,"x_min":36,"x_max":801,"o":"m 281 0 l 108 0 l 108 450 l 36 450 l 36 568 l 108 568 l 108 650 l 36 650 l 36 768 l 108 768 l 108 969 l 444 969 q 621 921 554 969 q 715 768 688 872 l 801 768 l 801 650 l 732 650 l 732 568 l 801 568 l 801 450 l 715 450 q 622 297 689 346 q 444 247 554 247 l 281 247 l 281 0 m 281 764 l 551 764 q 510 829 540 808 q 419 850 479 850 l 281 850 l 281 764 m 557 564 l 557 656 l 281 656 l 281 564 l 557 564 m 419 368 q 510 390 481 368 q 551 456 540 411 l 281 456 l 281 368 l 419 368 z "},"₲":{"ha":833,"x_min":57,"x_max":747,"o":"m 279 7 q 112 173 167 51 q 57 485 57 294 q 145 854 57 724 q 417 985 233 985 l 426 985 l 447 1126 l 588 1126 l 563 963 q 674 881 631 935 q 742 750 717 826 l 604 697 q 576 763 593 733 q 529 813 558 792 l 482 507 l 747 507 l 747 329 q 726 189 747 253 q 663 79 704 125 q 563 8 622 33 q 425 -17 503 -17 l 414 -17 l 393 -157 l 254 -157 l 279 7 m 417 844 l 414 844 q 280 772 322 844 q 238 568 238 699 l 238 401 q 310 161 238 225 l 417 844 m 432 124 q 551 176 513 124 q 590 307 590 229 l 590 376 l 463 376 l 425 124 l 432 124 z "},"₴":{"ha":833,"x_min":38,"x_max":796,"o":"m 426 -17 q 299 4 354 -17 q 205 60 243 25 q 147 144 167 96 q 128 247 128 192 q 143 329 128 294 l 38 329 l 38 436 l 211 436 l 417 554 l 417 561 l 38 561 l 38 668 l 518 668 q 531 724 531 690 q 497 813 531 783 q 403 843 464 843 q 231 763 304 843 l 136 869 q 257 956 186 926 q 411 986 328 986 q 531 967 478 986 q 619 917 583 949 q 675 842 656 885 q 694 749 694 799 q 692 704 694 725 q 682 668 689 683 l 796 668 l 796 561 l 625 561 l 419 443 l 419 436 l 796 436 l 796 329 l 311 329 q 293 257 293 299 q 331 159 293 194 q 436 124 368 124 q 535 147 486 124 q 638 225 585 169 l 732 118 q 602 19 681 56 q 426 -17 524 -17 z "},"₵":{"ha":833,"x_min":69,"x_max":772,"o":"m 288 13 q 123 179 176 60 q 69 485 69 299 q 159 852 69 722 q 432 986 249 982 l 435 986 l 456 1126 l 594 1126 l 569 967 q 696 881 650 939 q 765 751 742 822 l 622 701 q 590 771 608 739 q 538 822 571 803 l 431 124 q 444 122 436 122 q 512 136 483 122 q 560 172 540 150 q 592 224 579 194 q 615 288 606 254 l 772 243 q 731 138 757 186 q 664 56 704 90 q 569 3 624 22 q 442 -17 514 -17 q 431 -16 436 -17 q 421 -15 426 -15 l 400 -157 l 263 -157 l 288 13 m 424 847 q 294 772 338 839 q 250 568 250 704 l 250 401 q 267 262 250 321 q 319 168 283 203 l 424 847 z "},"₸":{"ha":833,"x_min":63,"x_max":771,"o":"m 63 839 l 63 969 l 771 969 l 771 839 l 63 839 m 507 600 l 507 0 l 326 0 l 326 600 l 63 600 l 63 731 l 771 731 l 771 600 l 507 600 z "},"₹":{"ha":833,"x_min":68,"x_max":779,"o":"m 510 0 l 239 360 l 68 360 l 68 496 l 257 496 q 376 522 328 496 q 426 611 424 549 l 68 611 l 68 729 l 425 729 q 372 810 418 785 q 257 835 325 835 l 68 835 l 68 969 l 779 969 l 779 835 l 496 835 l 496 828 q 550 797 524 821 q 590 729 576 774 l 779 729 l 779 611 l 603 611 q 551 472 596 528 q 426 389 506 417 l 725 0 l 510 0 z "},"₺":{"ha":833,"x_min":61,"x_max":793,"o":"m 171 296 l 61 246 l 61 376 l 171 426 l 171 528 l 61 478 l 61 608 l 171 658 l 171 969 l 340 969 l 340 738 l 574 844 l 574 715 l 340 608 l 340 506 l 574 613 l 574 483 l 340 376 l 340 150 l 407 150 q 567 214 513 150 q 621 424 621 278 l 793 424 q 772 258 793 335 q 705 123 750 181 q 591 33 660 65 q 428 0 522 0 l 171 0 l 171 296 z "},"₽":{"ha":833,"x_min":50,"x_max":781,"o":"m 325 167 l 325 0 l 143 0 l 143 167 l 50 167 l 50 301 l 143 301 l 143 390 l 50 390 l 50 525 l 143 525 l 143 969 l 490 969 q 706 892 632 969 q 781 679 781 814 q 706 467 781 544 q 490 390 631 390 l 325 390 l 325 301 l 619 301 l 619 167 l 325 167 m 325 525 l 453 525 q 559 555 526 525 q 592 650 592 585 l 592 706 q 559 801 592 771 q 453 831 526 831 l 325 831 l 325 525 z "},"₿":{"ha":833,"x_min":111,"x_max":767,"o":"m 438 0 l 349 0 l 349 -157 l 242 -157 l 242 0 l 111 0 l 111 969 l 242 969 l 242 1126 l 349 1126 l 349 969 l 438 969 l 438 1126 l 544 1126 l 544 958 q 685 873 636 936 q 735 714 735 810 q 694 581 735 631 q 578 508 654 532 l 578 501 q 717 424 668 479 q 767 271 767 369 q 708 93 767 164 q 544 4 649 22 l 544 -157 l 438 -157 l 438 0 m 289 554 l 404 554 q 513 583 478 554 q 549 676 549 611 l 549 721 q 513 814 549 786 q 404 842 478 842 l 289 842 l 289 554 m 289 128 l 429 128 q 543 158 506 128 q 581 256 581 188 l 581 303 q 543 401 581 371 q 429 431 506 431 l 289 431 l 289 128 z "},"ﬁ":{"ha":833,"x_min":46,"x_max":754,"o":"m 118 576 l 46 576 l 46 717 l 118 717 l 118 833 q 167 974 118 919 q 318 1028 215 1028 l 460 1028 l 460 888 l 296 888 l 296 717 l 729 717 l 729 0 l 551 0 l 551 576 l 296 576 l 296 0 l 118 0 l 118 576 m 640 828 q 552 854 578 828 q 526 918 526 881 l 526 951 q 552 1015 526 989 q 640 1042 578 1042 q 728 1015 703 1042 q 754 951 754 989 l 754 918 q 728 854 754 881 q 640 828 703 828 z "},"ﬂ":{"ha":833,"x_min":46,"x_max":729,"o":"m 118 576 l 46 576 l 46 717 l 118 717 l 118 833 q 167 974 118 919 q 318 1028 215 1028 l 465 1028 l 465 888 l 296 888 l 296 717 l 465 717 l 465 576 l 296 576 l 296 0 l 118 0 l 118 576 m 551 1028 l 729 1028 l 729 0 l 551 0 l 551 1028 z "},"á":{"ha":833,"x_min":78,"x_max":785,"o":"m 681 0 q 580 33 615 0 q 538 124 544 65 l 531 124 q 454 20 511 57 q 314 -17 397 -17 q 142 40 206 -17 q 78 199 78 97 q 396 415 78 415 l 522 415 l 522 463 q 489 565 522 531 q 381 600 456 600 q 271 574 313 600 q 200 506 229 547 l 99 592 q 206 692 132 651 q 399 733 281 733 q 620 667 540 733 q 700 471 700 601 l 700 133 l 785 133 l 785 0 l 681 0 m 374 106 q 480 135 438 106 q 522 217 522 165 l 522 313 l 400 313 q 254 221 254 313 l 254 193 q 286 128 254 150 q 374 106 318 106 m 422 799 l 315 850 l 447 1110 l 597 1035 l 422 799 z "},"ă":{"ha":833,"x_min":78,"x_max":785,"o":"m 681 0 q 580 33 615 0 q 538 124 544 65 l 531 124 q 454 20 511 57 q 314 -17 397 -17 q 142 40 206 -17 q 78 199 78 97 q 396 415 78 415 l 522 415 l 522 463 q 489 565 522 531 q 381 600 456 600 q 271 574 313 600 q 200 506 229 547 l 99 592 q 206 692 132 651 q 399 733 281 733 q 620 667 540 733 q 700 471 700 601 l 700 133 l 785 133 l 785 0 l 681 0 m 374 106 q 480 135 438 106 q 522 217 522 165 l 522 313 l 400 313 q 254 221 254 313 l 254 193 q 286 128 254 150 q 374 106 318 106 m 404 803 q 301 825 343 803 q 228 881 258 847 q 180 954 199 914 q 149 1031 161 994 l 251 1081 l 281 1035 q 310 990 297 1010 q 338 957 324 971 q 367 936 351 943 q 404 929 383 929 q 441 936 425 929 q 471 957 457 943 q 498 990 485 971 q 528 1035 511 1010 l 557 1081 l 660 1031 q 628 954 647 994 q 580 881 610 914 q 507 825 550 847 q 404 803 464 803 z "},"ǎ":{"ha":833,"x_min":78,"x_max":785,"o":"m 681 0 q 580 33 615 0 q 538 124 544 65 l 531 124 q 454 20 511 57 q 314 -17 397 -17 q 142 40 206 -17 q 78 199 78 97 q 396 415 78 415 l 522 415 l 522 463 q 489 565 522 531 q 381 600 456 600 q 271 574 313 600 q 200 506 229 547 l 99 592 q 206 692 132 651 q 399 733 281 733 q 620 667 540 733 q 700 471 700 601 l 700 133 l 785 133 l 785 0 l 681 0 m 374 106 q 480 135 438 106 q 522 217 522 165 l 522 313 l 400 313 q 254 221 254 313 l 254 193 q 286 128 254 150 q 374 106 318 106 m 322 811 l 147 1026 l 239 1094 l 406 935 l 572 1094 l 658 1026 l 483 811 l 322 811 z "},"â":{"ha":833,"x_min":78,"x_max":785,"o":"m 681 0 q 580 33 615 0 q 538 124 544 65 l 531 124 q 454 20 511 57 q 314 -17 397 -17 q 142 40 206 -17 q 78 199 78 97 q 396 415 78 415 l 522 415 l 522 463 q 489 565 522 531 q 381 600 456 600 q 271 574 313 600 q 200 506 229 547 l 99 592 q 206 692 132 651 q 399 733 281 733 q 620 667 540 733 q 700 471 700 601 l 700 133 l 785 133 l 785 0 l 681 0 m 374 106 q 480 135 438 106 q 522 217 522 165 l 522 313 l 400 313 q 254 221 254 313 l 254 193 q 286 128 254 150 q 374 106 318 106 m 485 1083 l 660 868 l 568 800 l 401 960 l 235 800 l 149 868 l 324 1083 l 485 1083 z "},"ä":{"ha":833,"x_min":78,"x_max":785,"o":"m 681 0 q 580 33 615 0 q 538 124 544 65 l 531 124 q 454 20 511 57 q 314 -17 397 -17 q 142 40 206 -17 q 78 199 78 97 q 396 415 78 415 l 522 415 l 522 463 q 489 565 522 531 q 381 600 456 600 q 271 574 313 600 q 200 506 229 547 l 99 592 q 206 692 132 651 q 399 733 281 733 q 620 667 540 733 q 700 471 700 601 l 700 133 l 785 133 l 785 0 l 681 0 m 374 106 q 480 135 438 106 q 522 217 522 165 l 522 313 l 400 313 q 254 221 254 313 l 254 193 q 286 128 254 150 q 374 106 318 106 m 258 832 q 179 856 201 832 q 157 913 157 879 l 157 943 q 179 1000 157 976 q 258 1024 201 1024 q 338 1000 315 1024 q 360 943 360 976 l 360 913 q 338 856 360 879 q 258 832 315 832 m 550 832 q 471 856 493 832 q 449 913 449 879 l 449 943 q 471 1000 449 976 q 550 1024 493 1024 q 629 1000 607 1024 q 651 943 651 976 l 651 913 q 629 856 651 879 q 550 832 607 832 z "},"ạ":{"ha":833,"x_min":78,"x_max":785,"o":"m 681 0 q 580 33 615 0 q 538 124 544 65 l 531 124 q 454 20 511 57 q 314 -17 397 -17 q 142 40 206 -17 q 78 199 78 97 q 396 415 78 415 l 522 415 l 522 463 q 489 565 522 531 q 381 600 456 600 q 271 574 313 600 q 200 506 229 547 l 99 592 q 206 692 132 651 q 399 733 281 733 q 620 667 540 733 q 700 471 700 601 l 700 133 l 785 133 l 785 0 l 681 0 m 374 106 q 480 135 438 106 q 522 217 522 165 l 522 313 l 400 313 q 254 221 254 313 l 254 193 q 286 128 254 150 q 374 106 318 106 m 400 -269 q 320 -247 343 -269 q 297 -189 297 -224 l 297 -158 q 320 -101 297 -124 q 400 -78 343 -78 q 480 -101 457 -78 q 503 -158 503 -124 l 503 -189 q 480 -247 503 -224 q 400 -269 457 -269 z "},"à":{"ha":833,"x_min":78,"x_max":785,"o":"m 681 0 q 580 33 615 0 q 538 124 544 65 l 531 124 q 454 20 511 57 q 314 -17 397 -17 q 142 40 206 -17 q 78 199 78 97 q 396 415 78 415 l 522 415 l 522 463 q 489 565 522 531 q 381 600 456 600 q 271 574 313 600 q 200 506 229 547 l 99 592 q 206 692 132 651 q 399 733 281 733 q 620 667 540 733 q 700 471 700 601 l 700 133 l 785 133 l 785 0 l 681 0 m 374 106 q 480 135 438 106 q 522 217 522 165 l 522 313 l 400 313 q 254 221 254 313 l 254 193 q 286 128 254 150 q 374 106 318 106 m 211 1035 l 361 1110 l 493 850 l 386 799 l 211 1035 z "},"ả":{"ha":833,"x_min":78,"x_max":785,"o":"m 681 0 q 580 33 615 0 q 538 124 544 65 l 531 124 q 454 20 511 57 q 314 -17 397 -17 q 142 40 206 -17 q 78 199 78 97 q 396 415 78 415 l 522 415 l 522 463 q 489 565 522 531 q 381 600 456 600 q 271 574 313 600 q 200 506 229 547 l 99 592 q 206 692 132 651 q 399 733 281 733 q 620 667 540 733 q 700 471 700 601 l 700 133 l 785 133 l 785 0 l 681 0 m 374 106 q 480 135 438 106 q 522 217 522 165 l 522 313 l 400 313 q 254 221 254 313 l 254 193 q 286 128 254 150 q 374 106 318 106 m 249 1090 l 433 1090 q 530 1062 503 1090 q 557 996 557 1033 q 536 915 557 958 q 482 831 515 872 l 444 785 l 353 829 l 417 961 l 249 961 l 249 1090 z "},"ā":{"ha":833,"x_min":78,"x_max":785,"o":"m 681 0 q 580 33 615 0 q 538 124 544 65 l 531 124 q 454 20 511 57 q 314 -17 397 -17 q 142 40 206 -17 q 78 199 78 97 q 396 415 78 415 l 522 415 l 522 463 q 489 565 522 531 q 381 600 456 600 q 271 574 313 600 q 200 506 229 547 l 99 592 q 206 692 132 651 q 399 733 281 733 q 620 667 540 733 q 700 471 700 601 l 700 133 l 785 133 l 785 0 l 681 0 m 374 106 q 480 135 438 106 q 522 217 522 165 l 522 313 l 400 313 q 254 221 254 313 l 254 193 q 286 128 254 150 q 374 106 318 106 m 197 992 l 611 992 l 611 864 l 197 864 l 197 992 z "},"ą":{"ha":833,"x_min":78,"x_max":825,"o":"m 785 0 q 702 -55 733 -32 q 654 -95 671 -78 q 633 -125 638 -112 q 628 -150 628 -137 q 644 -187 628 -178 q 682 -197 660 -197 q 724 -187 706 -197 q 757 -160 742 -176 l 825 -226 q 769 -274 808 -256 q 667 -292 729 -292 q 603 -285 633 -292 q 551 -266 574 -279 q 515 -231 528 -253 q 501 -176 501 -208 q 544 -81 501 -121 q 665 -4 588 -42 l 664 0 q 575 37 607 4 q 538 124 543 69 l 531 124 q 454 20 511 57 q 314 -17 397 -17 q 142 40 206 -17 q 78 199 78 97 q 396 415 78 415 l 522 415 l 522 463 q 489 565 522 531 q 381 600 456 600 q 271 574 313 600 q 200 506 229 547 l 99 592 q 206 692 132 651 q 399 733 281 733 q 620 667 540 733 q 700 471 700 601 l 700 133 l 785 133 l 785 0 m 400 313 q 254 221 254 313 l 254 193 q 286 128 254 150 q 372 106 318 106 q 480 135 438 106 q 522 217 522 165 l 522 313 l 400 313 z "},"å":{"ha":833,"x_min":78,"x_max":785,"o":"m 681 0 q 580 33 615 0 q 538 124 544 65 l 531 124 q 454 20 511 57 q 314 -17 397 -17 q 142 40 206 -17 q 78 199 78 97 q 396 415 78 415 l 522 415 l 522 463 q 489 565 522 531 q 381 600 456 600 q 271 574 313 600 q 200 506 229 547 l 99 592 q 206 692 132 651 q 399 733 281 733 q 620 667 540 733 q 700 471 700 601 l 700 133 l 785 133 l 785 0 l 681 0 m 374 106 q 480 135 438 106 q 522 217 522 165 l 522 313 l 400 313 q 254 221 254 313 l 254 193 q 286 128 254 150 q 374 106 318 106 m 404 772 q 328 786 364 772 q 267 825 293 800 q 227 884 242 850 q 213 960 213 918 q 227 1035 213 1000 q 267 1094 242 1069 q 328 1133 293 1119 q 404 1147 364 1147 q 480 1133 444 1147 q 541 1094 515 1119 q 581 1035 567 1069 q 596 960 596 1001 q 581 885 596 919 q 541 825 567 850 q 480 786 515 800 q 404 772 444 772 m 404 865 q 459 885 440 865 q 478 938 478 904 l 478 982 q 404 1054 478 1054 q 349 1035 368 1054 q 331 982 331 1015 l 331 938 q 404 865 331 865 z "},"ǻ":{"ha":833,"x_min":78,"x_max":785,"o":"m 681 0 q 580 33 615 0 q 538 124 544 65 l 531 124 q 454 20 511 57 q 314 -17 397 -17 q 142 40 206 -17 q 78 199 78 97 q 396 415 78 415 l 522 415 l 522 463 q 489 565 522 531 q 381 600 456 600 q 271 574 313 600 q 200 506 229 547 l 99 592 q 206 692 132 651 q 399 733 281 733 q 620 667 540 733 q 700 471 700 601 l 700 133 l 785 133 l 785 0 l 681 0 m 374 106 q 480 135 438 106 q 522 217 522 165 l 522 313 l 400 313 q 254 221 254 313 l 254 193 q 286 128 254 150 q 374 106 318 106 m 401 1124 l 333 1189 l 490 1351 l 588 1257 l 401 1124 m 404 775 q 327 787 363 775 q 265 820 292 799 q 224 872 239 842 q 208 940 208 903 q 224 1008 208 978 q 265 1060 239 1039 q 327 1094 292 1082 q 404 1106 363 1106 q 481 1094 446 1106 q 543 1060 517 1082 q 585 1008 569 1039 q 600 940 600 978 q 585 872 600 903 q 543 820 569 842 q 481 787 517 799 q 404 775 446 775 m 404 864 q 482 931 482 864 l 482 950 q 404 1017 482 1017 q 326 950 326 1017 l 326 931 q 404 864 326 864 z "},"ã":{"ha":833,"x_min":78,"x_max":785,"o":"m 681 0 q 580 33 615 0 q 538 124 544 65 l 531 124 q 454 20 511 57 q 314 -17 397 -17 q 142 40 206 -17 q 78 199 78 97 q 396 415 78 415 l 522 415 l 522 463 q 489 565 522 531 q 381 600 456 600 q 271 574 313 600 q 200 506 229 547 l 99 592 q 206 692 132 651 q 399 733 281 733 q 620 667 540 733 q 700 471 700 601 l 700 133 l 785 133 l 785 0 l 681 0 m 374 106 q 480 135 438 106 q 522 217 522 165 l 522 313 l 400 313 q 254 221 254 313 l 254 193 q 286 128 254 150 q 374 106 318 106 m 508 831 q 450 840 475 831 q 400 861 425 850 q 344 883 369 875 q 296 892 319 892 q 254 883 272 892 q 214 857 236 875 l 150 939 q 210 999 174 975 q 300 1024 247 1024 q 358 1014 333 1024 q 408 993 383 1004 q 464 971 439 979 q 513 963 489 963 q 554 971 536 963 q 594 997 572 979 l 658 915 q 598 855 635 879 q 508 831 561 831 z "},"ắ":{"ha":833,"x_min":78,"x_max":785,"o":"m 681 0 q 580 33 615 0 q 538 124 544 65 l 531 124 q 454 20 511 57 q 314 -17 397 -17 q 142 40 206 -17 q 78 199 78 97 q 396 415 78 415 l 522 415 l 522 463 q 489 565 522 531 q 381 600 456 600 q 271 574 313 600 q 200 506 229 547 l 99 592 q 206 692 132 651 q 399 733 281 733 q 620 667 540 733 q 700 471 700 601 l 700 133 l 785 133 l 785 0 l 681 0 m 374 106 q 480 135 438 106 q 522 217 522 165 l 522 313 l 400 313 q 254 221 254 313 l 254 193 q 286 128 254 150 q 374 106 318 106 m 400 792 q 295 810 339 792 q 219 858 251 829 q 167 924 188 888 q 135 994 147 960 l 228 1049 l 257 1008 q 326 935 296 956 q 400 915 356 915 q 474 935 444 915 q 543 1008 504 956 l 572 1049 l 665 994 q 633 924 653 960 q 581 858 613 888 q 504 810 549 829 q 400 792 460 792 m 421 999 l 324 1046 l 456 1307 l 596 1236 l 421 999 z "},"ặ":{"ha":833,"x_min":78,"x_max":785,"o":"m 681 0 q 580 33 615 0 q 538 124 544 65 l 531 124 q 454 20 511 57 q 314 -17 397 -17 q 142 40 206 -17 q 78 199 78 97 q 396 415 78 415 l 522 415 l 522 463 q 489 565 522 531 q 381 600 456 600 q 271 574 313 600 q 200 506 229 547 l 99 592 q 206 692 132 651 q 399 733 281 733 q 620 667 540 733 q 700 471 700 601 l 700 133 l 785 133 l 785 0 l 681 0 m 374 106 q 480 135 438 106 q 522 217 522 165 l 522 313 l 400 313 q 254 221 254 313 l 254 193 q 286 128 254 150 q 374 106 318 106 m 404 803 q 301 825 343 803 q 228 881 258 847 q 180 954 199 914 q 149 1031 161 994 l 251 1081 l 281 1035 q 310 990 297 1010 q 338 957 324 971 q 367 936 351 943 q 404 929 383 929 q 441 936 425 929 q 471 957 457 943 q 498 990 485 971 q 528 1035 511 1010 l 557 1081 l 660 1031 q 628 954 647 994 q 580 881 610 914 q 507 825 550 847 q 404 803 464 803 m 400 -269 q 320 -247 343 -269 q 297 -189 297 -224 l 297 -158 q 320 -101 297 -124 q 400 -78 343 -78 q 480 -101 457 -78 q 503 -158 503 -124 l 503 -189 q 480 -247 503 -224 q 400 -269 457 -269 z "},"ằ":{"ha":833,"x_min":78,"x_max":785,"o":"m 681 0 q 580 33 615 0 q 538 124 544 65 l 531 124 q 454 20 511 57 q 314 -17 397 -17 q 142 40 206 -17 q 78 199 78 97 q 396 415 78 415 l 522 415 l 522 463 q 489 565 522 531 q 381 600 456 600 q 271 574 313 600 q 200 506 229 547 l 99 592 q 206 692 132 651 q 399 733 281 733 q 620 667 540 733 q 700 471 700 601 l 700 133 l 785 133 l 785 0 l 681 0 m 374 106 q 480 135 438 106 q 522 217 522 165 l 522 313 l 400 313 q 254 221 254 313 l 254 193 q 286 128 254 150 q 374 106 318 106 m 400 792 q 295 810 339 792 q 219 858 251 829 q 167 924 188 888 q 135 994 147 960 l 228 1049 l 257 1008 q 326 935 296 956 q 400 915 356 915 q 474 935 444 915 q 543 1008 504 956 l 572 1049 l 665 994 q 633 924 653 960 q 581 858 613 888 q 504 810 549 829 q 400 792 460 792 m 204 1236 l 344 1307 l 476 1046 l 379 999 l 204 1236 z "},"ẳ":{"ha":833,"x_min":78,"x_max":785,"o":"m 681 0 q 580 33 615 0 q 538 124 544 65 l 531 124 q 454 20 511 57 q 314 -17 397 -17 q 142 40 206 -17 q 78 199 78 97 q 396 415 78 415 l 522 415 l 522 463 q 489 565 522 531 q 381 600 456 600 q 271 574 313 600 q 200 506 229 547 l 99 592 q 206 692 132 651 q 399 733 281 733 q 620 667 540 733 q 700 471 700 601 l 700 133 l 785 133 l 785 0 l 681 0 m 374 106 q 480 135 438 106 q 522 217 522 165 l 522 313 l 400 313 q 254 221 254 313 l 254 193 q 286 128 254 150 q 374 106 318 106 m 400 792 q 295 810 339 792 q 219 858 251 829 q 167 924 188 888 q 135 994 147 960 l 228 1049 l 257 1008 q 326 935 296 956 q 400 915 356 915 q 474 935 444 915 q 543 1008 504 956 l 572 1049 l 665 994 q 633 924 653 960 q 581 858 613 888 q 504 810 549 829 q 400 792 460 792 m 238 1288 l 410 1288 q 508 1260 481 1288 q 535 1194 535 1232 q 511 1114 535 1157 q 453 1028 488 1071 l 417 983 l 333 1025 l 400 1164 l 238 1164 l 238 1288 z "},"ẵ":{"ha":833,"x_min":78,"x_max":785,"o":"m 681 0 q 580 33 615 0 q 538 124 544 65 l 531 124 q 454 20 511 57 q 314 -17 397 -17 q 142 40 206 -17 q 78 199 78 97 q 396 415 78 415 l 522 415 l 522 463 q 489 565 522 531 q 381 600 456 600 q 271 574 313 600 q 200 506 229 547 l 99 592 q 206 692 132 651 q 399 733 281 733 q 620 667 540 733 q 700 471 700 601 l 700 133 l 785 133 l 785 0 l 681 0 m 374 106 q 480 135 438 106 q 522 217 522 165 l 522 313 l 400 313 q 254 221 254 313 l 254 193 q 286 128 254 150 q 374 106 318 106 m 400 792 q 295 810 339 792 q 219 858 251 829 q 167 924 188 888 q 135 994 147 960 l 228 1049 l 257 1008 q 326 935 296 956 q 400 915 356 915 q 474 935 444 915 q 543 1008 504 956 l 572 1049 l 665 994 q 633 924 653 960 q 581 858 613 888 q 504 810 549 829 q 400 792 460 792 m 503 1076 q 444 1086 469 1076 q 394 1107 419 1096 q 338 1131 363 1122 q 290 1139 314 1139 q 249 1130 267 1139 q 208 1103 231 1121 l 147 1181 q 208 1240 171 1215 q 297 1265 244 1265 q 356 1256 331 1265 q 406 1235 381 1246 q 462 1211 438 1219 q 510 1203 486 1203 q 551 1212 533 1203 q 592 1239 569 1221 l 653 1161 q 592 1101 629 1126 q 503 1076 556 1076 z "},"ấ":{"ha":833,"x_min":78,"x_max":807,"o":"m 681 0 q 580 33 615 0 q 538 124 544 65 l 531 124 q 454 20 511 57 q 314 -17 397 -17 q 142 40 206 -17 q 78 199 78 97 q 396 415 78 415 l 522 415 l 522 463 q 489 565 522 531 q 381 600 456 600 q 271 574 313 600 q 200 506 229 547 l 99 592 q 206 692 132 651 q 399 733 281 733 q 620 667 540 733 q 700 471 700 601 l 700 133 l 785 133 l 785 0 l 681 0 m 374 106 q 480 135 438 106 q 522 217 522 165 l 522 313 l 400 313 q 254 221 254 313 l 254 193 q 286 128 254 150 q 374 106 318 106 m 632 1000 l 535 1049 l 667 1308 l 807 1238 l 632 1000 m 467 1065 l 653 863 l 567 788 l 399 938 l 229 788 l 147 863 l 333 1065 l 467 1065 z "},"ậ":{"ha":833,"x_min":78,"x_max":785,"o":"m 681 0 q 580 33 615 0 q 538 124 544 65 l 531 124 q 454 20 511 57 q 314 -17 397 -17 q 142 40 206 -17 q 78 199 78 97 q 396 415 78 415 l 522 415 l 522 463 q 489 565 522 531 q 381 600 456 600 q 271 574 313 600 q 200 506 229 547 l 99 592 q 206 692 132 651 q 399 733 281 733 q 620 667 540 733 q 700 471 700 601 l 700 133 l 785 133 l 785 0 l 681 0 m 374 106 q 480 135 438 106 q 522 217 522 165 l 522 313 l 400 313 q 254 221 254 313 l 254 193 q 286 128 254 150 q 374 106 318 106 m 485 1083 l 660 868 l 568 800 l 401 960 l 235 800 l 149 868 l 324 1083 l 485 1083 m 400 -269 q 320 -247 343 -269 q 297 -189 297 -224 l 297 -158 q 320 -101 297 -124 q 400 -78 343 -78 q 480 -101 457 -78 q 503 -158 503 -124 l 503 -189 q 480 -247 503 -224 q 400 -269 457 -269 z "},"ầ":{"ha":833,"x_min":-7,"x_max":785,"o":"m 681 0 q 580 33 615 0 q 538 124 544 65 l 531 124 q 454 20 511 57 q 314 -17 397 -17 q 142 40 206 -17 q 78 199 78 97 q 396 415 78 415 l 522 415 l 522 463 q 489 565 522 531 q 381 600 456 600 q 271 574 313 600 q 200 506 229 547 l 99 592 q 206 692 132 651 q 399 733 281 733 q 620 667 540 733 q 700 471 700 601 l 700 133 l 785 133 l 785 0 l 681 0 m 374 106 q 480 135 438 106 q 522 217 522 165 l 522 313 l 400 313 q 254 221 254 313 l 254 193 q 286 128 254 150 q 374 106 318 106 m -7 1238 l 133 1308 l 265 1049 l 168 1000 l -7 1238 m 467 1065 l 653 863 l 567 788 l 399 938 l 229 788 l 147 863 l 333 1065 l 467 1065 z "},"ẩ":{"ha":833,"x_min":78,"x_max":785,"o":"m 681 0 q 580 33 615 0 q 538 124 544 65 l 531 124 q 454 20 511 57 q 314 -17 397 -17 q 142 40 206 -17 q 78 199 78 97 q 396 415 78 415 l 522 415 l 522 463 q 489 565 522 531 q 381 600 456 600 q 271 574 313 600 q 200 506 229 547 l 99 592 q 206 692 132 651 q 399 733 281 733 q 620 667 540 733 q 700 471 700 601 l 700 133 l 785 133 l 785 0 l 681 0 m 374 106 q 480 135 438 106 q 522 217 522 165 l 522 313 l 400 313 q 254 221 254 313 l 254 193 q 286 128 254 150 q 374 106 318 106 m 460 1290 l 635 1290 q 732 1262 704 1290 q 760 1196 760 1233 q 735 1115 760 1158 q 678 1029 711 1071 l 642 985 l 557 1028 l 624 1165 l 460 1165 l 460 1290 m 467 1065 l 653 863 l 567 788 l 399 938 l 229 788 l 147 863 l 333 1065 l 467 1065 z "},"ẫ":{"ha":833,"x_min":78,"x_max":785,"o":"m 681 0 q 580 33 615 0 q 538 124 544 65 l 531 124 q 454 20 511 57 q 314 -17 397 -17 q 142 40 206 -17 q 78 199 78 97 q 396 415 78 415 l 522 415 l 522 463 q 489 565 522 531 q 381 600 456 600 q 271 574 313 600 q 200 506 229 547 l 99 592 q 206 692 132 651 q 399 733 281 733 q 620 667 540 733 q 700 471 700 601 l 700 133 l 785 133 l 785 0 l 681 0 m 374 106 q 480 135 438 106 q 522 217 522 165 l 522 313 l 400 313 q 254 221 254 313 l 254 193 q 286 128 254 150 q 374 106 318 106 m 297 1279 q 356 1269 331 1279 q 406 1249 381 1260 q 462 1225 438 1233 q 510 1217 486 1217 q 551 1226 533 1217 q 592 1253 569 1235 l 653 1175 q 592 1115 629 1140 q 503 1090 556 1090 q 444 1100 469 1090 q 394 1121 419 1110 q 338 1144 363 1136 q 290 1153 314 1153 q 249 1144 267 1153 q 208 1117 231 1135 l 147 1194 q 208 1254 171 1229 q 297 1279 244 1279 m 468 1049 l 651 863 l 568 788 l 399 926 l 229 788 l 149 863 l 332 1049 l 468 1049 z "},"æ":{"ha":833,"x_min":8,"x_max":810,"o":"m 192 -17 q 61 36 114 -17 q 8 194 8 89 q 73 363 8 306 q 260 419 138 419 l 324 419 l 324 497 q 235 618 324 618 q 170 592 192 618 q 133 519 149 565 l 22 565 q 99 690 44 646 q 235 733 154 733 q 342 706 299 733 q 408 631 385 679 l 414 631 q 582 733 471 733 q 749 648 689 733 q 810 411 810 563 l 810 321 l 471 321 l 471 296 q 499 157 471 210 q 581 104 526 104 q 647 136 624 104 q 682 211 669 168 l 801 174 q 772 101 790 136 q 727 40 754 67 q 664 -1 700 14 q 581 -17 628 -17 q 451 22 508 -17 q 368 144 394 61 l 363 144 q 303 22 347 61 q 192 -17 258 -17 m 229 97 q 302 135 281 97 q 324 239 324 174 l 324 321 l 275 321 q 184 295 217 321 q 151 217 151 269 l 151 192 q 170 122 151 147 q 229 97 189 97 m 574 621 q 497 582 522 621 q 471 476 471 543 l 471 419 l 676 419 l 676 476 q 651 582 676 543 q 574 621 625 621 z "},"ǽ":{"ha":833,"x_min":8,"x_max":810,"o":"m 435 799 l 328 850 l 460 1110 l 610 1035 l 435 799 m 192 -17 q 61 36 114 -17 q 8 194 8 89 q 73 363 8 306 q 260 419 138 419 l 324 419 l 324 497 q 235 618 324 618 q 170 592 192 618 q 133 519 149 565 l 22 565 q 99 690 44 646 q 235 733 154 733 q 342 706 299 733 q 408 631 385 679 l 414 631 q 582 733 471 733 q 749 648 689 733 q 810 411 810 563 l 810 321 l 471 321 l 471 296 q 499 157 471 210 q 581 104 526 104 q 647 136 624 104 q 682 211 669 168 l 801 174 q 772 101 790 136 q 727 40 754 67 q 664 -1 700 14 q 581 -17 628 -17 q 451 22 508 -17 q 368 144 394 61 l 363 144 q 303 22 347 61 q 192 -17 258 -17 m 229 97 q 302 135 281 97 q 324 239 324 174 l 324 321 l 275 321 q 184 295 217 321 q 151 217 151 269 l 151 192 q 170 122 151 147 q 229 97 189 97 m 574 621 q 497 582 522 621 q 471 476 471 543 l 471 419 l 676 419 l 676 476 q 651 582 676 543 q 574 621 625 621 z "},"ć":{"ha":833,"x_min":93,"x_max":743,"o":"m 453 796 l 346 847 l 478 1107 l 628 1032 l 453 796 m 444 -17 q 297 10 363 -17 q 187 85 232 36 q 117 203 142 133 q 93 358 93 272 q 117 514 93 444 q 187 632 142 583 q 297 707 232 681 q 443 733 361 733 q 626 686 557 733 q 732 561 696 639 l 594 486 q 540 560 575 532 q 443 589 504 589 q 322 543 364 589 q 279 418 279 497 l 279 299 q 322 174 279 221 q 446 128 364 128 q 548 157 510 128 q 610 235 586 186 l 743 156 q 634 31 707 79 q 444 -17 561 -17 z "},"č":{"ha":833,"x_min":93,"x_max":743,"o":"m 354 811 l 179 1026 l 271 1094 l 438 935 l 604 1094 l 690 1026 l 515 811 l 354 811 m 444 -17 q 297 10 363 -17 q 187 85 232 36 q 117 203 142 133 q 93 358 93 272 q 117 514 93 444 q 187 632 142 583 q 297 707 232 681 q 443 733 361 733 q 626 686 557 733 q 732 561 696 639 l 594 486 q 540 560 575 532 q 443 589 504 589 q 322 543 364 589 q 279 418 279 497 l 279 299 q 322 174 279 221 q 446 128 364 128 q 548 157 510 128 q 610 235 586 186 l 743 156 q 634 31 707 79 q 444 -17 561 -17 z "},"ç":{"ha":833,"x_min":93,"x_max":743,"o":"m 443 733 q 626 686 557 733 q 732 561 696 639 l 594 486 q 540 560 575 532 q 443 589 504 589 q 322 543 364 589 q 279 418 279 497 l 279 299 q 322 174 279 221 q 446 128 364 128 q 548 157 510 128 q 610 235 586 186 l 743 156 q 638 33 707 81 q 457 -17 568 -14 l 444 -79 l 450 -85 q 481 -78 465 -81 q 513 -75 497 -75 q 583 -98 554 -75 q 613 -169 613 -121 q 598 -226 613 -203 q 559 -265 583 -250 q 503 -285 535 -279 q 438 -292 471 -292 q 332 -272 371 -292 q 276 -232 293 -253 l 336 -161 q 372 -190 350 -178 q 426 -201 394 -201 q 470 -192 453 -201 q 488 -164 488 -183 q 468 -131 488 -147 q 386 -108 449 -115 l 354 -104 l 374 -11 q 167 107 240 10 q 93 358 93 204 q 117 514 93 444 q 187 632 142 583 q 297 707 232 681 q 443 733 361 733 z "},"ĉ":{"ha":833,"x_min":93,"x_max":743,"o":"m 515 1083 l 690 868 l 599 800 l 432 960 l 265 800 l 179 868 l 354 1083 l 515 1083 m 444 -17 q 297 10 363 -17 q 187 85 232 36 q 117 203 142 133 q 93 358 93 272 q 117 514 93 444 q 187 632 142 583 q 297 707 232 681 q 443 733 361 733 q 626 686 557 733 q 732 561 696 639 l 594 486 q 540 560 575 532 q 443 589 504 589 q 322 543 364 589 q 279 418 279 497 l 279 299 q 322 174 279 221 q 446 128 364 128 q 548 157 510 128 q 610 235 586 186 l 743 156 q 634 31 707 79 q 444 -17 561 -17 z "},"ċ":{"ha":833,"x_min":93,"x_max":743,"o":"m 444 -17 q 297 10 363 -17 q 187 85 232 36 q 117 203 142 133 q 93 358 93 272 q 117 514 93 444 q 187 632 142 583 q 297 707 232 681 q 443 733 361 733 q 626 686 557 733 q 732 561 696 639 l 594 486 q 540 560 575 532 q 443 589 504 589 q 322 543 364 589 q 279 418 279 497 l 279 299 q 322 174 279 221 q 446 128 364 128 q 548 157 510 128 q 610 235 586 186 l 743 156 q 634 31 707 79 q 444 -17 561 -17 m 435 821 q 347 847 372 821 q 321 911 321 874 l 321 944 q 347 1008 321 982 q 435 1035 372 1035 q 523 1008 497 1035 q 549 944 549 982 l 549 911 q 523 847 549 874 q 435 821 497 821 z "},"ď":{"ha":833,"x_min":44,"x_max":889,"o":"m 278 -17 q 106 76 168 -17 q 44 358 44 169 q 106 640 44 547 q 278 733 168 733 q 392 695 350 733 q 458 592 435 657 l 468 592 l 468 1028 l 639 1028 l 639 0 l 468 0 l 468 125 l 458 125 q 392 22 435 60 q 278 -17 350 -17 m 347 119 q 433 150 397 119 q 468 243 468 181 l 468 474 q 433 567 468 536 q 347 597 397 597 q 256 557 288 597 q 224 433 224 517 l 224 283 q 256 160 224 200 q 347 119 288 119 m 721 1028 l 889 1028 l 817 744 l 717 744 l 721 1028 z "},"đ":{"ha":833,"x_min":63,"x_max":817,"o":"m 560 126 l 550 126 q 470 22 521 61 q 336 -17 419 -17 q 224 6 275 -17 q 138 76 174 29 q 82 193 101 122 q 63 358 63 264 q 138 640 63 547 q 336 733 213 733 q 470 694 419 733 q 550 590 521 656 l 560 590 l 560 817 l 360 817 l 360 950 l 560 950 l 560 1028 l 738 1028 l 738 950 l 817 950 l 817 817 l 738 817 l 738 0 l 560 0 l 560 126 m 411 125 q 469 133 442 125 q 516 155 496 140 q 548 192 536 169 q 560 246 560 215 l 560 471 q 548 524 560 501 q 516 562 536 547 q 469 584 496 576 q 411 592 442 592 q 291 545 333 592 q 249 415 249 499 l 249 301 q 291 172 249 219 q 411 125 333 125 z "},"ð":{"ha":833,"x_min":67,"x_max":768,"o":"m 661 969 l 551 900 q 635 801 596 856 q 704 681 675 746 q 751 542 733 617 q 768 381 768 467 q 743 203 768 278 q 672 79 718 128 q 563 7 626 31 q 421 -17 499 -17 q 272 9 338 -17 q 160 82 206 35 q 91 197 115 129 q 67 349 67 264 q 87 492 67 428 q 144 601 107 556 q 235 672 182 647 q 351 696 288 696 q 486 659 432 696 q 574 563 540 622 l 583 568 q 517 701 560 639 q 417 819 475 763 l 286 738 l 221 814 l 339 888 q 235 962 290 928 q 121 1028 181 996 l 394 1028 q 434 1001 414 1015 q 475 969 454 986 l 596 1046 l 661 969 m 418 119 q 540 165 494 119 q 585 299 585 211 l 585 381 q 540 514 585 468 q 418 560 494 560 q 297 514 342 560 q 251 381 251 468 l 251 299 q 297 165 251 211 q 418 119 342 119 z "},"é":{"ha":833,"x_min":76,"x_max":757,"o":"m 436 799 l 329 850 l 461 1110 l 611 1035 l 436 799 m 433 -17 q 281 10 347 -17 q 169 85 214 36 q 100 202 124 133 q 76 357 76 271 q 101 514 76 444 q 169 632 125 583 q 277 707 214 681 q 419 733 340 733 q 560 708 497 733 q 666 635 622 682 q 733 521 710 588 q 757 374 757 454 l 757 315 l 254 315 l 254 297 q 303 172 254 219 q 439 124 351 124 q 553 151 506 124 q 633 222 601 178 l 735 121 q 622 24 696 64 q 433 -17 547 -17 m 421 603 q 300 556 346 603 q 254 431 254 508 l 254 421 l 579 421 l 579 433 q 537 557 579 511 q 421 603 494 603 z "},"ĕ":{"ha":833,"x_min":76,"x_max":757,"o":"m 433 -17 q 281 10 347 -17 q 169 85 214 36 q 100 202 124 133 q 76 357 76 271 q 101 514 76 444 q 169 632 125 583 q 277 707 214 681 q 419 733 340 733 q 560 708 497 733 q 666 635 622 682 q 733 521 710 588 q 757 374 757 454 l 757 315 l 254 315 l 254 297 q 303 172 254 219 q 439 124 351 124 q 553 151 506 124 q 633 222 601 178 l 735 121 q 622 24 696 64 q 433 -17 547 -17 m 421 603 q 300 556 346 603 q 254 431 254 508 l 254 421 l 579 421 l 579 433 q 537 557 579 511 q 421 603 494 603 m 418 803 q 315 825 357 803 q 242 881 272 847 q 194 954 213 914 q 163 1031 175 994 l 265 1081 l 294 1035 q 324 990 311 1010 q 351 957 338 971 q 381 936 365 943 q 418 929 397 929 q 455 936 439 929 q 485 957 471 943 q 512 990 499 971 q 542 1035 525 1010 l 571 1081 l 674 1031 q 642 954 661 994 q 594 881 624 914 q 521 825 564 847 q 418 803 478 803 z "},"ě":{"ha":833,"x_min":76,"x_max":757,"o":"m 338 811 l 163 1026 l 254 1094 l 421 935 l 588 1094 l 674 1026 l 499 811 l 338 811 m 433 -17 q 281 10 347 -17 q 169 85 214 36 q 100 202 124 133 q 76 357 76 271 q 101 514 76 444 q 169 632 125 583 q 277 707 214 681 q 419 733 340 733 q 560 708 497 733 q 666 635 622 682 q 733 521 710 588 q 757 374 757 454 l 757 315 l 254 315 l 254 297 q 303 172 254 219 q 439 124 351 124 q 553 151 506 124 q 633 222 601 178 l 735 121 q 622 24 696 64 q 433 -17 547 -17 m 421 603 q 300 556 346 603 q 254 431 254 508 l 254 421 l 579 421 l 579 433 q 537 557 579 511 q 421 603 494 603 z "},"ê":{"ha":833,"x_min":76,"x_max":757,"o":"m 499 1083 l 674 868 l 582 800 l 415 960 l 249 800 l 163 868 l 338 1083 l 499 1083 m 433 -17 q 281 10 347 -17 q 169 85 214 36 q 100 202 124 133 q 76 357 76 271 q 101 514 76 444 q 169 632 125 583 q 277 707 214 681 q 419 733 340 733 q 560 708 497 733 q 666 635 622 682 q 733 521 710 588 q 757 374 757 454 l 757 315 l 254 315 l 254 297 q 303 172 254 219 q 439 124 351 124 q 553 151 506 124 q 633 222 601 178 l 735 121 q 622 24 696 64 q 433 -17 547 -17 m 421 603 q 300 556 346 603 q 254 431 254 508 l 254 421 l 579 421 l 579 433 q 537 557 579 511 q 421 603 494 603 z "},"ë":{"ha":833,"x_min":76,"x_max":757,"o":"m 272 832 q 193 856 215 832 q 171 913 171 879 l 171 943 q 193 1000 171 976 q 272 1024 215 1024 q 351 1000 329 1024 q 374 943 374 976 l 374 913 q 351 856 374 879 q 272 832 329 832 m 564 832 q 485 856 507 832 q 463 913 463 879 l 463 943 q 485 1000 463 976 q 564 1024 507 1024 q 643 1000 621 1024 q 665 943 665 976 l 665 913 q 643 856 665 879 q 564 832 621 832 m 433 -17 q 281 10 347 -17 q 169 85 214 36 q 100 202 124 133 q 76 357 76 271 q 101 514 76 444 q 169 632 125 583 q 277 707 214 681 q 419 733 340 733 q 560 708 497 733 q 666 635 622 682 q 733 521 710 588 q 757 374 757 454 l 757 315 l 254 315 l 254 297 q 303 172 254 219 q 439 124 351 124 q 553 151 506 124 q 633 222 601 178 l 735 121 q 622 24 696 64 q 433 -17 547 -17 m 421 603 q 300 556 346 603 q 254 431 254 508 l 254 421 l 579 421 l 579 433 q 537 557 579 511 q 421 603 494 603 z "},"ė":{"ha":833,"x_min":76,"x_max":757,"o":"m 433 -17 q 281 10 347 -17 q 169 85 214 36 q 100 202 124 133 q 76 357 76 271 q 101 514 76 444 q 169 632 125 583 q 277 707 214 681 q 419 733 340 733 q 560 708 497 733 q 666 635 622 682 q 733 521 710 588 q 757 374 757 454 l 757 315 l 254 315 l 254 297 q 303 172 254 219 q 439 124 351 124 q 553 151 506 124 q 633 222 601 178 l 735 121 q 622 24 696 64 q 433 -17 547 -17 m 421 603 q 300 556 346 603 q 254 431 254 508 l 254 421 l 579 421 l 579 433 q 537 557 579 511 q 421 603 494 603 m 418 821 q 330 847 356 821 q 304 911 304 874 l 304 944 q 330 1008 304 982 q 418 1035 356 1035 q 506 1008 481 1035 q 532 944 532 982 l 532 911 q 506 847 532 874 q 418 821 481 821 z "},"ẹ":{"ha":833,"x_min":76,"x_max":757,"o":"m 433 -17 q 281 10 347 -17 q 169 85 214 36 q 100 202 124 133 q 76 357 76 271 q 101 514 76 444 q 169 632 125 583 q 277 707 214 681 q 419 733 340 733 q 560 708 497 733 q 666 635 622 682 q 733 521 710 588 q 757 374 757 454 l 757 315 l 254 315 l 254 297 q 303 172 254 219 q 439 124 351 124 q 553 151 506 124 q 633 222 601 178 l 735 121 q 622 24 696 64 q 433 -17 547 -17 m 421 603 q 300 556 346 603 q 254 431 254 508 l 254 421 l 579 421 l 579 433 q 537 557 579 511 q 421 603 494 603 m 425 -269 q 345 -247 368 -269 q 322 -189 322 -224 l 322 -158 q 345 -101 322 -124 q 425 -78 368 -78 q 505 -101 482 -78 q 528 -158 528 -124 l 528 -189 q 505 -247 528 -224 q 425 -269 482 -269 z "},"è":{"ha":833,"x_min":76,"x_max":757,"o":"m 433 -17 q 281 10 347 -17 q 169 85 214 36 q 100 202 124 133 q 76 357 76 271 q 101 514 76 444 q 169 632 125 583 q 277 707 214 681 q 419 733 340 733 q 560 708 497 733 q 666 635 622 682 q 733 521 710 588 q 757 374 757 454 l 757 315 l 254 315 l 254 297 q 303 172 254 219 q 439 124 351 124 q 553 151 506 124 q 633 222 601 178 l 735 121 q 622 24 696 64 q 433 -17 547 -17 m 421 603 q 300 556 346 603 q 254 431 254 508 l 254 421 l 579 421 l 579 433 q 537 557 579 511 q 421 603 494 603 m 225 1035 l 375 1110 l 507 850 l 400 799 l 225 1035 z "},"ẻ":{"ha":833,"x_min":76,"x_max":757,"o":"m 433 -17 q 281 10 347 -17 q 169 85 214 36 q 100 202 124 133 q 76 357 76 271 q 101 514 76 444 q 169 632 125 583 q 277 707 214 681 q 419 733 340 733 q 560 708 497 733 q 666 635 622 682 q 733 521 710 588 q 757 374 757 454 l 757 315 l 254 315 l 254 297 q 303 172 254 219 q 439 124 351 124 q 553 151 506 124 q 633 222 601 178 l 735 121 q 622 24 696 64 q 433 -17 547 -17 m 421 603 q 300 556 346 603 q 254 431 254 508 l 254 421 l 579 421 l 579 433 q 537 557 579 511 q 421 603 494 603 m 267 1090 l 451 1090 q 548 1062 521 1090 q 575 996 575 1033 q 554 915 575 958 q 500 831 533 872 l 463 785 l 371 829 l 435 961 l 267 961 l 267 1090 z "},"ē":{"ha":833,"x_min":76,"x_max":757,"o":"m 433 -17 q 281 10 347 -17 q 169 85 214 36 q 100 202 124 133 q 76 357 76 271 q 101 514 76 444 q 169 632 125 583 q 277 707 214 681 q 419 733 340 733 q 560 708 497 733 q 666 635 622 682 q 733 521 710 588 q 757 374 757 454 l 757 315 l 254 315 l 254 297 q 303 172 254 219 q 439 124 351 124 q 553 151 506 124 q 633 222 601 178 l 735 121 q 622 24 696 64 q 433 -17 547 -17 m 421 603 q 300 556 346 603 q 254 431 254 508 l 254 421 l 579 421 l 579 433 q 537 557 579 511 q 421 603 494 603 m 211 992 l 625 992 l 625 864 l 211 864 l 211 992 z "},"ę":{"ha":833,"x_min":76,"x_max":757,"o":"m 503 -292 q 440 -285 469 -292 q 387 -266 410 -279 q 351 -231 364 -253 q 338 -176 338 -208 q 380 -85 338 -124 q 500 -14 422 -47 l 497 -8 q 467 -14 486 -11 q 425 -17 449 -17 q 282 8 346 -17 q 172 81 218 33 q 101 199 126 129 q 76 357 76 268 q 101 514 76 444 q 169 632 125 583 q 277 707 214 681 q 419 733 340 733 q 560 708 497 733 q 666 635 622 682 q 733 521 710 588 q 757 374 757 454 l 757 315 l 254 315 l 254 297 q 303 172 254 219 q 439 124 351 124 q 553 151 506 124 q 633 222 601 178 l 735 121 q 677 60 711 89 q 589 -12 643 31 q 529 -60 553 -40 q 490 -94 506 -79 q 469 -123 475 -110 q 463 -150 463 -136 q 479 -187 463 -178 q 517 -197 496 -197 q 560 -187 542 -197 q 592 -160 578 -176 l 661 -226 q 605 -274 644 -256 q 503 -292 565 -292 m 579 421 l 579 433 q 537 557 579 511 q 421 603 494 603 q 300 556 346 603 q 254 431 254 508 l 254 421 l 579 421 z "},"ẽ":{"ha":833,"x_min":76,"x_max":757,"o":"m 433 -17 q 281 10 347 -17 q 169 85 214 36 q 100 202 124 133 q 76 357 76 271 q 101 514 76 444 q 169 632 125 583 q 277 707 214 681 q 419 733 340 733 q 560 708 497 733 q 666 635 622 682 q 733 521 710 588 q 757 374 757 454 l 757 315 l 254 315 l 254 297 q 303 172 254 219 q 439 124 351 124 q 553 151 506 124 q 633 222 601 178 l 735 121 q 622 24 696 64 q 433 -17 547 -17 m 421 603 q 300 556 346 603 q 254 431 254 508 l 254 421 l 579 421 l 579 433 q 537 557 579 511 q 421 603 494 603 m 522 831 q 464 840 489 831 q 414 861 439 850 q 358 883 383 875 q 310 892 333 892 q 268 883 286 892 q 228 857 250 875 l 164 939 q 224 999 188 975 q 314 1024 261 1024 q 372 1014 347 1024 q 422 993 397 1004 q 478 971 453 979 q 526 963 503 963 q 568 971 550 963 q 608 997 586 979 l 672 915 q 612 855 649 879 q 522 831 575 831 z "},"ế":{"ha":833,"x_min":76,"x_max":825,"o":"m 650 1000 l 553 1049 l 685 1308 l 825 1238 l 650 1000 m 485 1065 l 671 863 l 585 788 l 417 938 l 247 788 l 165 863 l 351 1065 l 485 1065 m 433 -17 q 281 10 347 -17 q 169 85 214 36 q 100 202 124 133 q 76 357 76 271 q 101 514 76 444 q 169 632 125 583 q 277 707 214 681 q 419 733 340 733 q 560 708 497 733 q 666 635 622 682 q 733 521 710 588 q 757 374 757 454 l 757 315 l 254 315 l 254 297 q 303 172 254 219 q 439 124 351 124 q 553 151 506 124 q 633 222 601 178 l 735 121 q 622 24 696 64 q 433 -17 547 -17 m 421 603 q 300 556 346 603 q 254 431 254 508 l 254 421 l 579 421 l 579 433 q 537 557 579 511 q 421 603 494 603 z "},"ệ":{"ha":833,"x_min":76,"x_max":757,"o":"m 499 1083 l 674 868 l 582 800 l 415 960 l 249 800 l 163 868 l 338 1083 l 499 1083 m 433 -17 q 281 10 347 -17 q 169 85 214 36 q 100 202 124 133 q 76 357 76 271 q 101 514 76 444 q 169 632 125 583 q 277 707 214 681 q 419 733 340 733 q 560 708 497 733 q 666 635 622 682 q 733 521 710 588 q 757 374 757 454 l 757 315 l 254 315 l 254 297 q 303 172 254 219 q 439 124 351 124 q 553 151 506 124 q 633 222 601 178 l 735 121 q 622 24 696 64 q 433 -17 547 -17 m 421 603 q 300 556 346 603 q 254 431 254 508 l 254 421 l 579 421 l 579 433 q 537 557 579 511 q 421 603 494 603 m 425 -269 q 345 -247 368 -269 q 322 -189 322 -224 l 322 -158 q 345 -101 322 -124 q 425 -78 368 -78 q 505 -101 482 -78 q 528 -158 528 -124 l 528 -189 q 505 -247 528 -224 q 425 -269 482 -269 z "},"ề":{"ha":833,"x_min":11,"x_max":757,"o":"m 11 1238 l 151 1308 l 283 1049 l 186 1000 l 11 1238 m 485 1065 l 671 863 l 585 788 l 417 938 l 247 788 l 165 863 l 351 1065 l 485 1065 m 433 -17 q 281 10 347 -17 q 169 85 214 36 q 100 202 124 133 q 76 357 76 271 q 101 514 76 444 q 169 632 125 583 q 277 707 214 681 q 419 733 340 733 q 560 708 497 733 q 666 635 622 682 q 733 521 710 588 q 757 374 757 454 l 757 315 l 254 315 l 254 297 q 303 172 254 219 q 439 124 351 124 q 553 151 506 124 q 633 222 601 178 l 735 121 q 622 24 696 64 q 433 -17 547 -17 m 421 603 q 300 556 346 603 q 254 431 254 508 l 254 421 l 579 421 l 579 433 q 537 557 579 511 q 421 603 494 603 z "},"ể":{"ha":833,"x_min":76,"x_max":778,"o":"m 433 -17 q 281 10 347 -17 q 169 85 214 36 q 100 202 124 133 q 76 357 76 271 q 101 514 76 444 q 169 632 125 583 q 277 707 214 681 q 419 733 340 733 q 560 708 497 733 q 666 635 622 682 q 733 521 710 588 q 757 374 757 454 l 757 315 l 254 315 l 254 297 q 303 172 254 219 q 439 124 351 124 q 553 151 506 124 q 633 222 601 178 l 735 121 q 622 24 696 64 q 433 -17 547 -17 m 421 603 q 300 556 346 603 q 254 431 254 508 l 254 421 l 579 421 l 579 433 q 537 557 579 511 q 421 603 494 603 m 478 1290 l 653 1290 q 750 1262 722 1290 q 778 1196 778 1233 q 753 1115 778 1158 q 696 1029 729 1071 l 660 985 l 575 1028 l 642 1165 l 478 1165 l 478 1290 m 485 1065 l 671 863 l 585 788 l 417 938 l 247 788 l 165 863 l 351 1065 l 485 1065 z "},"ễ":{"ha":833,"x_min":76,"x_max":757,"o":"m 433 -17 q 281 10 347 -17 q 169 85 214 36 q 100 202 124 133 q 76 357 76 271 q 101 514 76 444 q 169 632 125 583 q 277 707 214 681 q 419 733 340 733 q 560 708 497 733 q 666 635 622 682 q 733 521 710 588 q 757 374 757 454 l 757 315 l 254 315 l 254 297 q 303 172 254 219 q 439 124 351 124 q 553 151 506 124 q 633 222 601 178 l 735 121 q 622 24 696 64 q 433 -17 547 -17 m 421 603 q 300 556 346 603 q 254 431 254 508 l 254 421 l 579 421 l 579 433 q 537 557 579 511 q 421 603 494 603 m 315 1279 q 374 1269 349 1279 q 424 1249 399 1260 q 480 1225 456 1233 q 528 1217 504 1217 q 569 1226 551 1217 q 610 1253 588 1235 l 671 1175 q 610 1115 647 1140 q 521 1090 574 1090 q 463 1100 488 1090 q 413 1121 438 1110 q 356 1144 381 1136 q 308 1153 332 1153 q 267 1144 285 1153 q 226 1117 249 1135 l 165 1194 q 226 1254 189 1229 q 315 1279 263 1279 m 486 1049 l 669 863 l 586 788 l 417 926 l 247 788 l 167 863 l 350 1049 l 486 1049 z "},"ə":{"ha":833,"x_min":76,"x_max":757,"o":"m 579 401 l 579 419 q 531 545 579 497 q 394 593 482 593 q 280 566 328 593 q 200 494 232 539 l 99 596 q 212 693 138 653 q 400 733 286 733 q 553 707 486 733 q 665 632 619 681 q 733 515 710 583 q 757 360 757 446 q 733 203 757 272 q 664 85 708 133 q 556 10 619 36 q 414 -17 493 -17 q 274 9 336 -17 q 167 82 211 35 q 100 195 124 129 q 76 343 76 261 l 76 401 l 579 401 m 254 283 q 297 160 254 206 q 413 114 339 114 q 533 161 488 114 q 579 286 579 208 l 579 296 l 254 296 l 254 283 z "},"ğ":{"ha":833,"x_min":74,"x_max":800,"o":"m 414 -294 q 251 -283 317 -294 q 147 -249 186 -271 q 90 -195 107 -226 q 74 -125 74 -164 q 108 -33 74 -65 q 206 14 143 -1 l 206 25 q 140 64 164 39 q 115 133 115 89 q 151 213 115 186 q 244 253 186 239 l 244 260 q 144 347 181 292 q 108 481 108 401 q 130 587 108 540 q 191 666 151 633 q 286 716 231 699 q 411 733 342 733 q 532 717 478 733 l 797 717 l 797 594 l 676 594 q 704 542 696 571 q 713 479 713 514 q 691 374 713 421 q 630 294 669 326 q 534 245 590 263 q 410 228 478 228 q 356 230 382 228 q 307 239 331 232 q 269 217 288 232 q 251 176 251 201 q 283 135 251 143 q 360 128 315 128 l 522 128 q 650 113 597 128 q 736 72 703 99 q 785 7 769 44 q 800 -75 800 -31 q 706 -241 800 -187 q 414 -294 613 -294 m 410 344 q 510 377 478 344 q 542 463 542 410 l 542 499 q 510 584 542 551 q 410 617 478 617 q 311 584 343 617 q 279 499 279 551 l 279 463 q 311 377 279 410 q 410 344 343 344 m 633 -87 q 608 -37 633 -56 q 513 -18 582 -18 l 265 -18 q 224 -87 224 -42 q 255 -150 224 -125 q 361 -175 286 -175 l 476 -175 q 633 -87 633 -175 m 414 803 q 310 825 353 803 q 238 881 268 847 q 190 954 208 914 q 158 1031 171 994 l 261 1081 l 290 1035 q 320 990 307 1010 q 347 957 333 971 q 377 936 361 943 q 414 929 393 929 q 451 936 435 929 q 481 957 467 943 q 508 990 494 971 q 538 1035 521 1010 l 567 1081 l 669 1031 q 638 954 657 994 q 590 881 619 914 q 517 825 560 847 q 414 803 474 803 z "},"ĝ":{"ha":833,"x_min":74,"x_max":800,"o":"m 494 1083 l 669 868 l 578 800 l 411 960 l 244 800 l 158 868 l 333 1083 l 494 1083 m 414 -294 q 251 -283 317 -294 q 147 -249 186 -271 q 90 -195 107 -226 q 74 -125 74 -164 q 108 -33 74 -65 q 206 14 143 -1 l 206 25 q 140 64 164 39 q 115 133 115 89 q 151 213 115 186 q 244 253 186 239 l 244 260 q 144 347 181 292 q 108 481 108 401 q 130 587 108 540 q 191 666 151 633 q 286 716 231 699 q 411 733 342 733 q 532 717 478 733 l 797 717 l 797 594 l 676 594 q 704 542 696 571 q 713 479 713 514 q 691 374 713 421 q 630 294 669 326 q 534 245 590 263 q 410 228 478 228 q 356 230 382 228 q 307 239 331 232 q 269 217 288 232 q 251 176 251 201 q 283 135 251 143 q 360 128 315 128 l 522 128 q 650 113 597 128 q 736 72 703 99 q 785 7 769 44 q 800 -75 800 -31 q 706 -241 800 -187 q 414 -294 613 -294 m 410 344 q 510 377 478 344 q 542 463 542 410 l 542 499 q 510 584 542 551 q 410 617 478 617 q 311 584 343 617 q 279 499 279 551 l 279 463 q 311 377 279 410 q 410 344 343 344 m 633 -87 q 608 -37 633 -56 q 513 -18 582 -18 l 265 -18 q 224 -87 224 -42 q 255 -150 224 -125 q 361 -175 286 -175 l 476 -175 q 633 -87 633 -175 z "},"ģ":{"ha":833,"x_min":74,"x_max":800,"o":"m 800 -75 q 706 -241 800 -187 q 414 -294 613 -294 q 251 -283 317 -294 q 147 -249 186 -271 q 90 -195 107 -226 q 74 -125 74 -164 q 108 -33 74 -65 q 206 14 143 -1 l 206 25 q 140 64 164 39 q 115 133 115 89 q 151 213 115 186 q 244 253 186 239 l 244 260 q 144 346 181 290 q 108 481 108 401 q 130 587 108 540 q 191 666 151 633 q 286 716 231 699 q 410 733 342 733 q 540 714 482 733 l 540 744 q 567 814 540 786 q 643 842 594 842 l 772 842 l 772 708 l 603 708 l 603 685 q 684 602 656 653 q 713 481 713 551 q 691 374 713 421 q 630 294 669 326 q 534 245 590 263 q 410 228 478 228 q 356 230 382 228 q 307 239 331 232 q 269 217 288 232 q 251 176 251 201 q 283 135 251 143 q 360 128 315 128 l 522 128 q 650 113 597 128 q 736 72 703 99 q 785 7 769 44 q 800 -75 800 -31 m 633 -87 q 608 -37 633 -56 q 513 -18 582 -18 l 265 -18 q 224 -87 224 -42 q 255 -150 224 -125 q 361 -175 286 -175 l 476 -175 q 633 -87 633 -175 m 410 344 q 510 377 478 344 q 542 463 542 410 l 542 499 q 510 584 542 551 q 410 617 478 617 q 311 584 343 617 q 279 499 279 551 l 279 463 q 311 377 279 410 q 410 344 343 344 m 426 1096 l 538 1096 l 508 808 l 311 808 l 426 1096 z "},"ġ":{"ha":833,"x_min":74,"x_max":800,"o":"m 800 -75 q 706 -241 800 -187 q 414 -294 613 -294 q 251 -283 317 -294 q 147 -249 186 -271 q 90 -195 107 -226 q 74 -125 74 -164 q 108 -33 74 -65 q 206 14 143 -1 l 206 25 q 140 64 164 39 q 115 133 115 89 q 151 213 115 186 q 244 253 186 239 l 244 260 q 144 346 181 290 q 108 481 108 401 q 130 587 108 540 q 191 666 151 633 q 286 716 231 699 q 410 733 342 733 q 540 714 482 733 l 540 744 q 567 814 540 786 q 643 842 594 842 l 772 842 l 772 708 l 603 708 l 603 685 q 684 602 656 653 q 713 481 713 551 q 691 374 713 421 q 630 294 669 326 q 534 245 590 263 q 410 228 478 228 q 356 230 382 228 q 307 239 331 232 q 269 217 288 232 q 251 176 251 201 q 283 135 251 143 q 360 128 315 128 l 522 128 q 650 113 597 128 q 736 72 703 99 q 785 7 769 44 q 800 -75 800 -31 m 633 -87 q 608 -37 633 -56 q 513 -18 582 -18 l 265 -18 q 224 -87 224 -42 q 255 -150 224 -125 q 361 -175 286 -175 l 476 -175 q 633 -87 633 -175 m 410 344 q 510 377 478 344 q 542 463 542 410 l 542 499 q 510 584 542 551 q 410 617 478 617 q 311 584 343 617 q 279 499 279 551 l 279 463 q 311 377 279 410 q 410 344 343 344 m 413 821 q 324 847 350 821 q 299 911 299 874 l 299 944 q 324 1008 299 982 q 413 1035 350 1035 q 501 1008 475 1035 q 526 944 526 982 l 526 911 q 501 847 526 874 q 413 821 475 821 z "},"ħ":{"ha":833,"x_min":22,"x_max":736,"o":"m 104 0 l 104 817 l 22 817 l 22 950 l 104 950 l 104 1028 l 282 1028 l 282 950 l 481 950 l 481 817 l 282 817 l 282 590 l 289 590 q 362 691 313 649 q 499 733 411 733 q 670 663 604 733 q 736 463 736 593 l 736 0 l 558 0 l 558 438 q 424 593 558 593 q 371 586 396 593 q 326 565 346 579 q 294 529 306 550 q 282 479 282 508 l 282 0 l 104 0 z "},"ĥ":{"ha":833,"x_min":-61,"x_max":736,"o":"m 275 1336 l 450 1121 l 358 1053 l 192 1213 l 25 1053 l -61 1121 l 114 1336 l 275 1336 m 104 1028 l 282 1028 l 282 590 l 289 590 q 362 691 313 649 q 499 733 411 733 q 670 663 604 733 q 736 463 736 593 l 736 0 l 558 0 l 558 438 q 424 593 558 593 q 371 586 396 593 q 326 565 346 579 q 294 529 306 550 q 282 479 282 508 l 282 0 l 104 0 l 104 1028 z "},"ı":{"ha":833,"x_min":136,"x_max":769,"o":"m 136 140 l 372 140 l 372 576 l 136 576 l 136 717 l 550 717 l 550 140 l 769 140 l 769 0 l 136 0 l 136 140 z "},"í":{"ha":833,"x_min":136,"x_max":769,"o":"m 479 799 l 372 850 l 504 1110 l 654 1035 l 479 799 m 136 140 l 372 140 l 372 576 l 136 576 l 136 717 l 550 717 l 550 140 l 769 140 l 769 0 l 136 0 l 136 140 z "},"ĭ":{"ha":833,"x_min":136,"x_max":769,"o":"m 136 140 l 372 140 l 372 576 l 136 576 l 136 717 l 550 717 l 550 140 l 769 140 l 769 0 l 136 0 l 136 140 m 461 803 q 358 825 400 803 q 285 881 315 847 q 237 954 256 914 q 206 1031 218 994 l 308 1081 l 338 1035 q 367 990 354 1010 q 394 957 381 971 q 424 936 408 943 q 461 929 440 929 q 498 936 482 929 q 528 957 514 943 q 555 990 542 971 q 585 1035 568 1010 l 614 1081 l 717 1031 q 685 954 704 994 q 637 881 667 914 q 564 825 607 847 q 461 803 521 803 z "},"ǐ":{"ha":833,"x_min":136,"x_max":769,"o":"m 136 140 l 372 140 l 372 576 l 136 576 l 136 717 l 550 717 l 550 140 l 769 140 l 769 0 l 136 0 l 136 140 m 381 811 l 206 1026 l 297 1094 l 464 935 l 631 1094 l 717 1026 l 542 811 l 381 811 z "},"î":{"ha":833,"x_min":136,"x_max":769,"o":"m 542 1083 l 717 868 l 625 800 l 458 960 l 292 800 l 206 868 l 381 1083 l 542 1083 m 136 140 l 372 140 l 372 576 l 136 576 l 136 717 l 550 717 l 550 140 l 769 140 l 769 0 l 136 0 l 136 140 z "},"ï":{"ha":833,"x_min":136,"x_max":769,"o":"m 315 832 q 236 856 258 832 q 214 913 214 879 l 214 943 q 236 1000 214 976 q 315 1024 258 1024 q 394 1000 372 1024 q 417 943 417 976 l 417 913 q 394 856 417 879 q 315 832 372 832 m 607 832 q 528 856 550 832 q 506 913 506 879 l 506 943 q 528 1000 506 976 q 607 1024 550 1024 q 686 1000 664 1024 q 708 943 708 976 l 708 913 q 686 856 708 879 q 607 832 664 832 m 136 140 l 372 140 l 372 576 l 136 576 l 136 717 l 550 717 l 550 140 l 769 140 l 769 0 l 136 0 l 136 140 z "},"ị":{"ha":833,"x_min":136,"x_max":769,"o":"m 461 828 q 373 854 399 828 q 347 918 347 881 l 347 951 q 373 1015 347 989 q 461 1042 399 1042 q 549 1015 524 1042 q 575 951 575 989 l 575 918 q 549 854 575 881 q 461 828 524 828 m 136 140 l 372 140 l 372 576 l 136 576 l 136 717 l 550 717 l 550 140 l 769 140 l 769 0 l 136 0 l 136 140 m 461 -269 q 381 -247 404 -269 q 358 -189 358 -224 l 358 -158 q 381 -101 358 -124 q 461 -78 404 -78 q 541 -101 518 -78 q 564 -158 564 -124 l 564 -189 q 541 -247 564 -224 q 461 -269 518 -269 z "},"ì":{"ha":833,"x_min":136,"x_max":769,"o":"m 136 140 l 372 140 l 372 576 l 136 576 l 136 717 l 550 717 l 550 140 l 769 140 l 769 0 l 136 0 l 136 140 m 268 1035 l 418 1110 l 550 850 l 443 799 l 268 1035 z "},"ỉ":{"ha":833,"x_min":136,"x_max":769,"o":"m 136 140 l 372 140 l 372 576 l 136 576 l 136 717 l 550 717 l 550 140 l 769 140 l 769 0 l 136 0 l 136 140 m 310 1090 l 494 1090 q 591 1062 564 1090 q 618 996 618 1033 q 597 915 618 958 q 543 831 576 872 l 506 785 l 414 829 l 478 961 l 310 961 l 310 1090 z "},"ī":{"ha":833,"x_min":136,"x_max":769,"o":"m 136 140 l 372 140 l 372 576 l 136 576 l 136 717 l 550 717 l 550 140 l 769 140 l 769 0 l 136 0 l 136 140 m 254 992 l 668 992 l 668 864 l 254 864 l 254 992 z "},"į":{"ha":833,"x_min":136,"x_max":810,"o":"m 653 -292 q 589 -285 619 -292 q 535 -266 558 -279 q 499 -231 513 -253 q 486 -176 486 -208 q 529 -81 486 -121 q 650 -4 572 -42 l 649 0 l 136 0 l 136 140 l 372 140 l 372 576 l 136 576 l 136 717 l 550 717 l 550 140 l 769 140 l 769 0 q 687 -55 718 -32 q 639 -95 656 -78 q 617 -125 622 -112 q 613 -150 613 -137 q 628 -187 613 -178 q 667 -197 644 -197 q 708 -187 690 -197 q 742 -160 726 -176 l 810 -226 q 754 -274 793 -256 q 653 -292 715 -292 m 461 828 q 373 854 399 828 q 347 918 347 881 l 347 951 q 373 1015 347 989 q 461 1042 399 1042 q 549 1015 524 1042 q 575 951 575 989 l 575 918 q 549 854 575 881 q 461 828 524 828 z "},"ĩ":{"ha":833,"x_min":136,"x_max":769,"o":"m 136 140 l 372 140 l 372 576 l 136 576 l 136 717 l 550 717 l 550 140 l 769 140 l 769 0 l 136 0 l 136 140 m 565 831 q 507 840 532 831 q 457 861 482 850 q 401 883 426 875 q 353 892 376 892 q 311 883 329 892 q 271 857 293 875 l 207 939 q 267 999 231 975 q 357 1024 304 1024 q 415 1014 390 1024 q 465 993 440 1004 q 521 971 496 979 q 569 963 546 963 q 611 971 593 963 q 651 997 629 979 l 715 915 q 655 855 692 879 q 565 831 618 831 z "},"ĳ":{"ha":833,"x_min":90,"x_max":743,"o":"m 115 717 l 293 717 l 293 0 l 115 0 l 115 717 m 293 -137 l 540 -137 l 540 717 l 718 717 l 718 -83 q 669 -224 718 -169 q 517 -278 619 -278 l 293 -278 l 293 -137 m 204 828 q 116 854 142 828 q 90 918 90 881 l 90 951 q 116 1015 90 989 q 204 1042 142 1042 q 292 1015 267 1042 q 318 951 318 989 l 318 918 q 292 854 318 881 q 204 828 267 828 m 629 828 q 541 854 567 828 q 515 918 515 881 l 515 951 q 541 1015 515 989 q 629 1042 567 1042 q 717 1015 692 1042 q 743 951 743 989 l 743 918 q 717 854 743 881 q 629 828 692 828 z "},"ȷ":{"ha":833,"x_min":126,"x_max":606,"o":"m 132 -137 l 428 -137 l 428 576 l 126 576 l 126 717 l 606 717 l 606 -83 q 557 -224 606 -169 q 406 -278 508 -278 l 132 -278 l 132 -137 z "},"ĵ":{"ha":833,"x_min":126,"x_max":772,"o":"m 132 -137 l 428 -137 l 428 576 l 126 576 l 126 717 l 606 717 l 606 -83 q 557 -224 606 -169 q 406 -278 508 -278 l 132 -278 l 132 -137 m 597 1083 l 772 868 l 681 800 l 514 960 l 347 800 l 261 868 l 436 1083 l 597 1083 z "},"ķ":{"ha":833,"x_min":107,"x_max":811,"o":"m 336 -79 l 533 -79 l 418 -367 l 307 -367 l 336 -79 m 107 1028 l 285 1028 l 285 425 l 293 425 l 397 539 l 574 717 l 781 717 l 496 435 l 811 0 l 599 0 l 369 333 l 285 253 l 285 0 l 107 0 l 107 1028 z "},"ĸ":{"ha":833,"x_min":107,"x_max":813,"o":"m 372 328 l 285 243 l 285 0 l 107 0 l 107 717 l 285 717 l 285 406 l 293 406 l 400 535 l 575 717 l 782 717 l 499 431 l 813 0 l 600 0 l 372 328 z "},"ĺ":{"ha":833,"x_min":100,"x_max":735,"o":"m 435 1051 l 328 1103 l 460 1363 l 610 1288 l 435 1051 m 100 140 l 328 140 l 328 888 l 100 888 l 100 1028 l 506 1028 l 506 140 l 735 140 l 735 0 l 100 0 l 100 140 z "},"ľ":{"ha":833,"x_min":100,"x_max":806,"o":"m 721 740 l 601 740 l 610 1028 l 806 1028 l 721 740 m 100 140 l 328 140 l 328 888 l 100 888 l 100 1028 l 506 1028 l 506 140 l 735 140 l 735 0 l 100 0 l 100 140 z "},"ļ":{"ha":833,"x_min":100,"x_max":735,"o":"m 319 -79 l 517 -79 l 401 -367 l 290 -367 l 319 -79 m 100 140 l 328 140 l 328 888 l 100 888 l 100 1028 l 506 1028 l 506 140 l 735 140 l 735 0 l 100 0 l 100 140 z "},"ŀ":{"ha":833,"x_min":88,"x_max":824,"o":"m 88 140 l 315 140 l 315 888 l 88 888 l 88 1028 l 493 1028 l 493 140 l 722 140 l 722 0 l 88 0 l 88 140 m 710 321 q 622 347 647 321 q 596 411 596 374 l 596 444 q 622 508 596 482 q 710 535 647 535 q 798 508 772 535 q 824 444 824 482 l 824 411 q 798 347 824 374 q 710 321 772 321 z "},"ł":{"ha":833,"x_min":100,"x_max":733,"o":"m 100 140 l 328 140 l 328 369 l 139 307 l 139 442 l 328 503 l 328 888 l 100 888 l 100 1028 l 506 1028 l 506 556 l 694 618 l 694 483 l 506 422 l 506 140 l 733 140 l 733 0 l 100 0 l 100 140 z "},"ń":{"ha":833,"x_min":104,"x_max":736,"o":"m 438 799 l 331 850 l 463 1110 l 613 1035 l 438 799 m 104 0 l 104 717 l 282 717 l 282 590 l 289 590 q 362 691 313 649 q 499 733 411 733 q 670 663 604 733 q 736 463 736 593 l 736 0 l 558 0 l 558 438 q 424 593 558 593 q 371 586 396 593 q 326 565 346 579 q 294 529 306 550 q 282 479 282 508 l 282 0 l 104 0 z "},"ň":{"ha":833,"x_min":104,"x_max":736,"o":"m 339 811 l 164 1026 l 256 1094 l 422 935 l 589 1094 l 675 1026 l 500 811 l 339 811 m 104 0 l 104 717 l 282 717 l 282 590 l 289 590 q 362 691 313 649 q 499 733 411 733 q 670 663 604 733 q 736 463 736 593 l 736 0 l 558 0 l 558 438 q 424 593 558 593 q 371 586 396 593 q 326 565 346 579 q 294 529 306 550 q 282 479 282 508 l 282 0 l 104 0 z "},"ņ":{"ha":833,"x_min":104,"x_max":736,"o":"m 322 -79 l 519 -79 l 404 -367 l 293 -367 l 322 -79 m 104 0 l 104 717 l 282 717 l 282 590 l 289 590 q 362 691 313 649 q 499 733 411 733 q 670 663 604 733 q 736 463 736 593 l 736 0 l 558 0 l 558 438 q 424 593 558 593 q 371 586 396 593 q 326 565 346 579 q 294 529 306 550 q 282 479 282 508 l 282 0 l 104 0 z "},"ñ":{"ha":833,"x_min":104,"x_max":736,"o":"m 104 0 l 104 717 l 282 717 l 282 590 l 289 590 q 362 691 313 649 q 499 733 411 733 q 670 663 604 733 q 736 463 736 593 l 736 0 l 558 0 l 558 438 q 424 593 558 593 q 371 586 396 593 q 326 565 346 579 q 294 529 306 550 q 282 479 282 508 l 282 0 l 104 0 m 524 831 q 465 840 490 831 q 415 861 440 850 q 360 883 385 875 q 311 892 335 892 q 269 883 288 892 q 229 857 251 875 l 165 939 q 226 999 189 975 q 315 1024 263 1024 q 374 1014 349 1024 q 424 993 399 1004 q 479 971 454 979 q 528 963 504 963 q 569 971 551 963 q 610 997 588 979 l 674 915 q 613 855 650 879 q 524 831 576 831 z "},"ŉ":{"ha":833,"x_min":0,"x_max":746,"o":"m 149 717 l 318 717 l 318 590 l 326 590 q 395 691 349 649 q 526 733 442 733 q 686 667 626 733 q 746 471 746 601 l 746 0 l 575 0 l 575 438 q 451 599 575 599 q 402 591 426 599 q 359 569 378 583 q 329 532 340 554 q 318 479 318 510 l 318 0 l 149 0 l 149 717 m 11 1028 l 175 1028 l 89 746 l 0 746 l 11 1028 z "},"ŋ":{"ha":833,"x_min":104,"x_max":736,"o":"m 282 -137 l 558 -137 l 558 438 q 424 593 558 593 q 371 586 396 593 q 326 565 346 579 q 294 529 306 550 q 282 479 282 508 l 282 0 l 104 0 l 104 717 l 282 717 l 282 590 l 289 590 q 362 691 313 649 q 499 733 411 733 q 670 663 604 733 q 736 463 736 593 l 736 -83 q 688 -224 736 -169 q 536 -278 639 -278 l 282 -278 l 282 -137 z "},"ó":{"ha":833,"x_min":67,"x_max":767,"o":"m 435 799 l 328 850 l 460 1110 l 610 1035 l 435 799 m 417 -17 q 270 10 335 -17 q 160 85 206 36 q 91 203 115 133 q 67 358 67 272 q 91 514 67 444 q 160 632 115 583 q 270 707 206 681 q 417 733 335 733 q 563 707 497 733 q 673 632 628 681 q 742 514 718 583 q 767 358 767 444 q 742 203 767 272 q 673 85 718 133 q 563 10 628 36 q 417 -17 497 -17 m 417 119 q 538 166 493 119 q 582 303 582 213 l 582 414 q 538 551 582 504 q 417 597 493 597 q 296 551 340 597 q 251 414 251 504 l 251 303 q 296 166 251 213 q 417 119 340 119 z "},"ŏ":{"ha":833,"x_min":67,"x_max":767,"o":"m 417 -17 q 270 10 335 -17 q 160 85 206 36 q 91 203 115 133 q 67 358 67 272 q 91 514 67 444 q 160 632 115 583 q 270 707 206 681 q 417 733 335 733 q 563 707 497 733 q 673 632 628 681 q 742 514 718 583 q 767 358 767 444 q 742 203 767 272 q 673 85 718 133 q 563 10 628 36 q 417 -17 497 -17 m 417 119 q 538 166 493 119 q 582 303 582 213 l 582 414 q 538 551 582 504 q 417 597 493 597 q 296 551 340 597 q 251 414 251 504 l 251 303 q 296 166 251 213 q 417 119 340 119 m 417 803 q 313 825 356 803 q 241 881 271 847 q 192 954 211 914 q 161 1031 174 994 l 264 1081 l 293 1035 q 323 990 310 1010 q 350 957 336 971 q 380 936 364 943 q 417 929 396 929 q 453 936 438 929 q 483 957 469 943 q 510 990 497 971 q 540 1035 524 1010 l 569 1081 l 672 1031 q 641 954 660 994 q 592 881 622 914 q 519 825 563 847 q 417 803 476 803 z "},"ǒ":{"ha":833,"x_min":67,"x_max":767,"o":"m 417 -17 q 270 10 335 -17 q 160 85 206 36 q 91 203 115 133 q 67 358 67 272 q 91 514 67 444 q 160 632 115 583 q 270 707 206 681 q 417 733 335 733 q 563 707 497 733 q 673 632 628 681 q 742 514 718 583 q 767 358 767 444 q 742 203 767 272 q 673 85 718 133 q 563 10 628 36 q 417 -17 497 -17 m 417 119 q 538 166 493 119 q 582 303 582 213 l 582 414 q 538 551 582 504 q 417 597 493 597 q 296 551 340 597 q 251 414 251 504 l 251 303 q 296 166 251 213 q 417 119 340 119 m 336 811 l 161 1026 l 253 1094 l 419 935 l 586 1094 l 672 1026 l 497 811 l 336 811 z "},"ô":{"ha":833,"x_min":67,"x_max":767,"o":"m 497 1083 l 672 868 l 581 800 l 414 960 l 247 800 l 161 868 l 336 1083 l 497 1083 m 417 -17 q 270 10 335 -17 q 160 85 206 36 q 91 203 115 133 q 67 358 67 272 q 91 514 67 444 q 160 632 115 583 q 270 707 206 681 q 417 733 335 733 q 563 707 497 733 q 673 632 628 681 q 742 514 718 583 q 767 358 767 444 q 742 203 767 272 q 673 85 718 133 q 563 10 628 36 q 417 -17 497 -17 m 417 119 q 538 166 493 119 q 582 303 582 213 l 582 414 q 538 551 582 504 q 417 597 493 597 q 296 551 340 597 q 251 414 251 504 l 251 303 q 296 166 251 213 q 417 119 340 119 z "},"ö":{"ha":833,"x_min":67,"x_max":767,"o":"m 271 832 q 192 856 214 832 q 169 913 169 879 l 169 943 q 192 1000 169 976 q 271 1024 214 1024 q 350 1000 328 1024 q 372 943 372 976 l 372 913 q 350 856 372 879 q 271 832 328 832 m 563 832 q 483 856 506 832 q 461 913 461 879 l 461 943 q 483 1000 461 976 q 563 1024 506 1024 q 642 1000 619 1024 q 664 943 664 976 l 664 913 q 642 856 664 879 q 563 832 619 832 m 417 -17 q 270 10 335 -17 q 160 85 206 36 q 91 203 115 133 q 67 358 67 272 q 91 514 67 444 q 160 632 115 583 q 270 707 206 681 q 417 733 335 733 q 563 707 497 733 q 673 632 628 681 q 742 514 718 583 q 767 358 767 444 q 742 203 767 272 q 673 85 718 133 q 563 10 628 36 q 417 -17 497 -17 m 417 119 q 538 166 493 119 q 582 303 582 213 l 582 414 q 538 551 582 504 q 417 597 493 597 q 296 551 340 597 q 251 414 251 504 l 251 303 q 296 166 251 213 q 417 119 340 119 z "},"ọ":{"ha":833,"x_min":67,"x_max":767,"o":"m 417 -17 q 270 10 335 -17 q 160 85 206 36 q 91 203 115 133 q 67 358 67 272 q 91 514 67 444 q 160 632 115 583 q 270 707 206 681 q 417 733 335 733 q 563 707 497 733 q 673 632 628 681 q 742 514 718 583 q 767 358 767 444 q 742 203 767 272 q 673 85 718 133 q 563 10 628 36 q 417 -17 497 -17 m 417 119 q 538 166 493 119 q 582 303 582 213 l 582 414 q 538 551 582 504 q 417 597 493 597 q 296 551 340 597 q 251 414 251 504 l 251 303 q 296 166 251 213 q 417 119 340 119 m 417 -269 q 337 -247 360 -269 q 314 -189 314 -224 l 314 -158 q 337 -101 314 -124 q 417 -78 360 -78 q 497 -101 474 -78 q 519 -158 519 -124 l 519 -189 q 497 -247 519 -224 q 417 -269 474 -269 z "},"ò":{"ha":833,"x_min":67,"x_max":767,"o":"m 417 -17 q 270 10 335 -17 q 160 85 206 36 q 91 203 115 133 q 67 358 67 272 q 91 514 67 444 q 160 632 115 583 q 270 707 206 681 q 417 733 335 733 q 563 707 497 733 q 673 632 628 681 q 742 514 718 583 q 767 358 767 444 q 742 203 767 272 q 673 85 718 133 q 563 10 628 36 q 417 -17 497 -17 m 417 119 q 538 166 493 119 q 582 303 582 213 l 582 414 q 538 551 582 504 q 417 597 493 597 q 296 551 340 597 q 251 414 251 504 l 251 303 q 296 166 251 213 q 417 119 340 119 m 224 1035 l 374 1110 l 506 850 l 399 799 l 224 1035 z "},"ỏ":{"ha":833,"x_min":67,"x_max":767,"o":"m 417 -17 q 270 10 335 -17 q 160 85 206 36 q 91 203 115 133 q 67 358 67 272 q 91 514 67 444 q 160 632 115 583 q 270 707 206 681 q 417 733 335 733 q 563 707 497 733 q 673 632 628 681 q 742 514 718 583 q 767 358 767 444 q 742 203 767 272 q 673 85 718 133 q 563 10 628 36 q 417 -17 497 -17 m 417 119 q 538 166 493 119 q 582 303 582 213 l 582 414 q 538 551 582 504 q 417 597 493 597 q 296 551 340 597 q 251 414 251 504 l 251 303 q 296 166 251 213 q 417 119 340 119 m 265 1090 l 450 1090 q 547 1062 519 1090 q 574 996 574 1033 q 553 915 574 958 q 499 831 532 872 l 461 785 l 369 829 l 433 961 l 265 961 l 265 1090 z "},"ő":{"ha":833,"x_min":67,"x_max":767,"o":"m 299 799 l 200 844 l 332 1106 l 474 1035 l 299 799 m 565 799 l 467 844 l 599 1106 l 740 1035 l 565 799 m 417 -17 q 270 10 335 -17 q 160 85 206 36 q 91 203 115 133 q 67 358 67 272 q 91 514 67 444 q 160 632 115 583 q 270 707 206 681 q 417 733 335 733 q 563 707 497 733 q 673 632 628 681 q 742 514 718 583 q 767 358 767 444 q 742 203 767 272 q 673 85 718 133 q 563 10 628 36 q 417 -17 497 -17 m 417 119 q 538 166 493 119 q 582 303 582 213 l 582 414 q 538 551 582 504 q 417 597 493 597 q 296 551 340 597 q 251 414 251 504 l 251 303 q 296 166 251 213 q 417 119 340 119 z "},"ō":{"ha":833,"x_min":67,"x_max":767,"o":"m 210 992 l 624 992 l 624 864 l 210 864 l 210 992 m 417 -17 q 270 10 335 -17 q 160 85 206 36 q 91 203 115 133 q 67 358 67 272 q 91 514 67 444 q 160 632 115 583 q 270 707 206 681 q 417 733 335 733 q 563 707 497 733 q 673 632 628 681 q 742 514 718 583 q 767 358 767 444 q 742 203 767 272 q 673 85 718 133 q 563 10 628 36 q 417 -17 497 -17 m 417 119 q 538 166 493 119 q 582 303 582 213 l 582 414 q 538 551 582 504 q 417 597 493 597 q 296 551 340 597 q 251 414 251 504 l 251 303 q 296 166 251 213 q 417 119 340 119 z "},"ø":{"ha":833,"x_min":42,"x_max":792,"o":"m 42 -1 l 138 114 q 67 358 67 207 q 91 514 67 444 q 160 632 115 583 q 270 707 206 681 q 417 733 335 733 q 520 721 472 733 q 606 685 568 708 l 693 790 l 792 718 l 696 603 q 767 358 767 508 q 742 203 767 272 q 673 85 718 133 q 563 10 628 36 q 417 -17 497 -17 q 313 -4 361 -17 q 228 32 265 8 l 140 -74 l 42 -1 m 417 597 q 296 551 340 597 q 251 414 251 504 l 251 311 q 253 279 251 296 q 258 250 254 263 l 518 567 q 473 590 499 582 q 417 597 447 597 m 417 119 q 538 166 493 119 q 582 303 582 213 l 582 406 q 581 438 582 421 q 575 467 579 454 l 315 150 q 360 127 335 135 q 417 119 386 119 z "},"ǿ":{"ha":833,"x_min":42,"x_max":792,"o":"m 42 -1 l 138 114 q 67 358 67 207 q 91 514 67 444 q 160 632 115 583 q 270 707 206 681 q 417 733 335 733 q 520 721 472 733 q 606 685 568 708 l 693 790 l 792 718 l 696 603 q 767 358 767 508 q 742 203 767 272 q 673 85 718 133 q 563 10 628 36 q 417 -17 497 -17 q 313 -4 361 -17 q 228 32 265 8 l 140 -74 l 42 -1 m 417 597 q 296 551 340 597 q 251 414 251 504 l 251 311 q 253 279 251 296 q 258 250 254 263 l 518 567 q 473 590 499 582 q 417 597 447 597 m 417 119 q 538 166 493 119 q 582 303 582 213 l 582 406 q 581 438 582 421 q 575 467 579 454 l 315 150 q 360 127 335 135 q 417 119 386 119 m 435 799 l 328 850 l 460 1110 l 610 1035 l 435 799 z "},"õ":{"ha":833,"x_min":67,"x_max":767,"o":"m 417 -17 q 270 10 335 -17 q 160 85 206 36 q 91 203 115 133 q 67 358 67 272 q 91 514 67 444 q 160 632 115 583 q 270 707 206 681 q 417 733 335 733 q 563 707 497 733 q 673 632 628 681 q 742 514 718 583 q 767 358 767 444 q 742 203 767 272 q 673 85 718 133 q 563 10 628 36 q 417 -17 497 -17 m 417 119 q 538 166 493 119 q 582 303 582 213 l 582 414 q 538 551 582 504 q 417 597 493 597 q 296 551 340 597 q 251 414 251 504 l 251 303 q 296 166 251 213 q 417 119 340 119 m 521 831 q 463 840 488 831 q 413 861 438 850 q 357 883 382 875 q 308 892 332 892 q 267 883 285 892 q 226 857 249 875 l 163 939 q 223 999 186 975 q 313 1024 260 1024 q 371 1014 346 1024 q 421 993 396 1004 q 476 971 451 979 q 525 963 501 963 q 567 971 549 963 q 607 997 585 979 l 671 915 q 610 855 647 879 q 521 831 574 831 z "},"ơ":{"ha":833,"x_min":67,"x_max":792,"o":"m 792 875 l 792 733 q 770 645 792 678 q 685 610 749 613 q 746 502 725 565 q 767 358 767 439 q 742 203 767 272 q 673 85 718 133 q 563 10 628 36 q 417 -17 497 -17 q 270 10 335 -17 q 160 85 206 36 q 91 203 115 133 q 67 358 67 272 q 91 514 67 444 q 160 632 115 583 q 270 707 206 681 q 417 733 335 733 q 536 717 482 733 l 642 717 l 642 875 l 792 875 m 417 119 q 538 166 493 119 q 582 303 582 213 l 582 414 q 538 551 582 504 q 417 597 493 597 q 296 551 340 597 q 251 414 251 504 l 251 303 q 296 166 251 213 q 417 119 340 119 z "},"ớ":{"ha":833,"x_min":67,"x_max":792,"o":"m 435 799 l 328 850 l 460 1110 l 610 1035 l 435 799 m 792 875 l 792 733 q 770 645 792 678 q 685 610 749 613 q 746 502 725 565 q 767 358 767 439 q 742 203 767 272 q 673 85 718 133 q 563 10 628 36 q 417 -17 497 -17 q 270 10 335 -17 q 160 85 206 36 q 91 203 115 133 q 67 358 67 272 q 91 514 67 444 q 160 632 115 583 q 270 707 206 681 q 417 733 335 733 q 536 717 482 733 l 642 717 l 642 875 l 792 875 m 417 119 q 538 166 493 119 q 582 303 582 213 l 582 414 q 538 551 582 504 q 417 597 493 597 q 296 551 340 597 q 251 414 251 504 l 251 303 q 296 166 251 213 q 417 119 340 119 z "},"ợ":{"ha":833,"x_min":67,"x_max":792,"o":"m 792 875 l 792 733 q 770 645 792 678 q 685 610 749 613 q 746 502 725 565 q 767 358 767 439 q 742 203 767 272 q 673 85 718 133 q 563 10 628 36 q 417 -17 497 -17 q 270 10 335 -17 q 160 85 206 36 q 91 203 115 133 q 67 358 67 272 q 91 514 67 444 q 160 632 115 583 q 270 707 206 681 q 417 733 335 733 q 536 717 482 733 l 642 717 l 642 875 l 792 875 m 417 119 q 538 166 493 119 q 582 303 582 213 l 582 414 q 538 551 582 504 q 417 597 493 597 q 296 551 340 597 q 251 414 251 504 l 251 303 q 296 166 251 213 q 417 119 340 119 m 417 -269 q 337 -247 360 -269 q 314 -189 314 -224 l 314 -158 q 337 -101 314 -124 q 417 -78 360 -78 q 497 -101 474 -78 q 519 -158 519 -124 l 519 -189 q 497 -247 519 -224 q 417 -269 474 -269 z "},"ờ":{"ha":833,"x_min":67,"x_max":792,"o":"m 792 875 l 792 733 q 770 645 792 678 q 685 610 749 613 q 746 502 725 565 q 767 358 767 439 q 742 203 767 272 q 673 85 718 133 q 563 10 628 36 q 417 -17 497 -17 q 270 10 335 -17 q 160 85 206 36 q 91 203 115 133 q 67 358 67 272 q 91 514 67 444 q 160 632 115 583 q 270 707 206 681 q 417 733 335 733 q 536 717 482 733 l 642 717 l 642 875 l 792 875 m 417 119 q 538 166 493 119 q 582 303 582 213 l 582 414 q 538 551 582 504 q 417 597 493 597 q 296 551 340 597 q 251 414 251 504 l 251 303 q 296 166 251 213 q 417 119 340 119 m 224 1035 l 374 1110 l 506 850 l 399 799 l 224 1035 z "},"ở":{"ha":833,"x_min":67,"x_max":792,"o":"m 792 875 l 792 733 q 770 645 792 678 q 685 610 749 613 q 746 502 725 565 q 767 358 767 439 q 742 203 767 272 q 673 85 718 133 q 563 10 628 36 q 417 -17 497 -17 q 270 10 335 -17 q 160 85 206 36 q 91 203 115 133 q 67 358 67 272 q 91 514 67 444 q 160 632 115 583 q 270 707 206 681 q 417 733 335 733 q 536 717 482 733 l 642 717 l 642 875 l 792 875 m 417 119 q 538 166 493 119 q 582 303 582 213 l 582 414 q 538 551 582 504 q 417 597 493 597 q 296 551 340 597 q 251 414 251 504 l 251 303 q 296 166 251 213 q 417 119 340 119 m 265 1090 l 450 1090 q 547 1062 519 1090 q 574 996 574 1033 q 553 915 574 958 q 499 831 532 872 l 461 785 l 369 829 l 433 961 l 265 961 l 265 1090 z "},"ỡ":{"ha":833,"x_min":67,"x_max":792,"o":"m 486 832 q 435 841 457 832 q 392 861 414 850 q 346 883 367 875 q 303 890 325 890 q 232 858 265 890 l 168 936 q 224 997 190 972 q 306 1022 257 1022 q 356 1013 335 1022 q 400 993 378 1004 q 446 972 425 979 q 489 964 467 964 q 560 996 526 964 l 624 918 q 568 857 601 882 q 486 832 535 832 m 792 875 l 792 733 q 770 645 792 678 q 685 610 749 613 q 746 502 725 565 q 767 358 767 439 q 742 203 767 272 q 673 85 718 133 q 563 10 628 36 q 417 -17 497 -17 q 270 10 335 -17 q 160 85 206 36 q 91 203 115 133 q 67 358 67 272 q 91 514 67 444 q 160 632 115 583 q 270 707 206 681 q 417 733 335 733 q 536 717 482 733 l 642 717 l 642 875 l 792 875 m 417 119 q 538 166 493 119 q 582 303 582 213 l 582 414 q 538 551 582 504 q 417 597 493 597 q 296 551 340 597 q 251 414 251 504 l 251 303 q 296 166 251 213 q 417 119 340 119 z "},"ố":{"ha":833,"x_min":67,"x_max":824,"o":"m 649 1000 l 551 1049 l 683 1308 l 824 1238 l 649 1000 m 483 1065 l 669 863 l 583 788 l 415 938 l 246 788 l 164 863 l 350 1065 l 483 1065 m 417 -17 q 270 10 335 -17 q 160 85 206 36 q 91 203 115 133 q 67 358 67 272 q 91 514 67 444 q 160 632 115 583 q 270 707 206 681 q 417 733 335 733 q 563 707 497 733 q 673 632 628 681 q 742 514 718 583 q 767 358 767 444 q 742 203 767 272 q 673 85 718 133 q 563 10 628 36 q 417 -17 497 -17 m 417 119 q 538 166 493 119 q 582 303 582 213 l 582 414 q 538 551 582 504 q 417 597 493 597 q 296 551 340 597 q 251 414 251 504 l 251 303 q 296 166 251 213 q 417 119 340 119 z "},"ộ":{"ha":833,"x_min":67,"x_max":767,"o":"m 497 1083 l 672 868 l 581 800 l 414 960 l 247 800 l 161 868 l 336 1083 l 497 1083 m 417 -17 q 270 10 335 -17 q 160 85 206 36 q 91 203 115 133 q 67 358 67 272 q 91 514 67 444 q 160 632 115 583 q 270 707 206 681 q 417 733 335 733 q 563 707 497 733 q 673 632 628 681 q 742 514 718 583 q 767 358 767 444 q 742 203 767 272 q 673 85 718 133 q 563 10 628 36 q 417 -17 497 -17 m 417 119 q 538 166 493 119 q 582 303 582 213 l 582 414 q 538 551 582 504 q 417 597 493 597 q 296 551 340 597 q 251 414 251 504 l 251 303 q 296 166 251 213 q 417 119 340 119 m 417 -269 q 337 -247 360 -269 q 314 -189 314 -224 l 314 -158 q 337 -101 314 -124 q 417 -78 360 -78 q 497 -101 474 -78 q 519 -158 519 -124 l 519 -189 q 497 -247 519 -224 q 417 -269 474 -269 z "},"ồ":{"ha":833,"x_min":10,"x_max":767,"o":"m 10 1238 l 150 1308 l 282 1049 l 185 1000 l 10 1238 m 483 1065 l 669 863 l 583 788 l 415 938 l 246 788 l 164 863 l 350 1065 l 483 1065 m 417 -17 q 270 10 335 -17 q 160 85 206 36 q 91 203 115 133 q 67 358 67 272 q 91 514 67 444 q 160 632 115 583 q 270 707 206 681 q 417 733 335 733 q 563 707 497 733 q 673 632 628 681 q 742 514 718 583 q 767 358 767 444 q 742 203 767 272 q 673 85 718 133 q 563 10 628 36 q 417 -17 497 -17 m 417 119 q 538 166 493 119 q 582 303 582 213 l 582 414 q 538 551 582 504 q 417 597 493 597 q 296 551 340 597 q 251 414 251 504 l 251 303 q 296 166 251 213 q 417 119 340 119 z "},"ổ":{"ha":833,"x_min":67,"x_max":776,"o":"m 476 1290 l 651 1290 q 749 1262 721 1290 q 776 1196 776 1233 q 752 1115 776 1158 q 694 1029 728 1071 l 658 985 l 574 1028 l 640 1165 l 476 1165 l 476 1290 m 483 1065 l 669 863 l 583 788 l 415 938 l 246 788 l 164 863 l 350 1065 l 483 1065 m 417 -17 q 270 10 335 -17 q 160 85 206 36 q 91 203 115 133 q 67 358 67 272 q 91 514 67 444 q 160 632 115 583 q 270 707 206 681 q 417 733 335 733 q 563 707 497 733 q 673 632 628 681 q 742 514 718 583 q 767 358 767 444 q 742 203 767 272 q 673 85 718 133 q 563 10 628 36 q 417 -17 497 -17 m 417 119 q 538 166 493 119 q 582 303 582 213 l 582 414 q 538 551 582 504 q 417 597 493 597 q 296 551 340 597 q 251 414 251 504 l 251 303 q 296 166 251 213 q 417 119 340 119 z "},"ỗ":{"ha":833,"x_min":67,"x_max":767,"o":"m 417 -17 q 270 10 335 -17 q 160 85 206 36 q 91 203 115 133 q 67 358 67 272 q 91 514 67 444 q 160 632 115 583 q 270 707 206 681 q 417 733 335 733 q 563 707 497 733 q 673 632 628 681 q 742 514 718 583 q 767 358 767 444 q 742 203 767 272 q 673 85 718 133 q 563 10 628 36 q 417 -17 497 -17 m 417 119 q 538 166 493 119 q 582 303 582 213 l 582 414 q 538 551 582 504 q 417 597 493 597 q 296 551 340 597 q 251 414 251 504 l 251 303 q 296 166 251 213 q 417 119 340 119 m 314 1279 q 372 1269 347 1279 q 422 1249 397 1260 q 478 1225 454 1233 q 526 1217 503 1217 q 568 1226 550 1217 q 608 1253 586 1235 l 669 1175 q 609 1115 646 1140 q 519 1090 572 1090 q 461 1100 486 1090 q 411 1121 436 1110 q 355 1144 379 1136 q 307 1153 331 1153 q 265 1144 283 1153 q 225 1117 247 1135 l 164 1194 q 224 1254 188 1229 q 314 1279 261 1279 m 485 1049 l 668 863 l 585 788 l 415 926 l 246 788 l 165 863 l 349 1049 l 485 1049 z "},"œ":{"ha":833,"x_min":18,"x_max":810,"o":"m 251 101 q 319 139 294 101 q 343 256 343 176 l 343 461 q 319 578 343 540 q 251 615 294 615 q 184 578 208 615 q 160 461 160 540 l 160 256 q 184 139 160 176 q 251 101 208 101 m 676 419 l 676 476 q 652 582 676 543 q 579 621 628 621 q 506 582 531 621 q 482 476 482 543 l 482 419 l 676 419 m 589 -17 q 488 8 533 -17 q 410 83 442 32 l 406 83 q 338 9 378 35 q 240 -17 299 -17 q 77 74 136 -17 q 18 358 18 164 q 76 642 18 551 q 242 733 135 733 q 413 622 360 733 l 418 622 q 491 707 449 681 q 589 733 533 733 q 751 648 693 733 q 810 411 810 563 l 810 321 l 482 321 l 482 296 q 509 157 482 210 q 588 104 536 104 q 649 136 628 104 q 682 211 671 168 l 801 174 q 774 101 792 136 q 731 40 757 67 q 670 -1 706 14 q 589 -17 635 -17 z "},"ŕ":{"ha":833,"x_min":104,"x_max":779,"o":"m 481 799 l 374 850 l 506 1110 l 656 1035 l 481 799 m 104 140 l 282 140 l 282 576 l 104 576 l 104 717 l 460 717 l 460 521 l 471 521 q 498 594 481 558 q 542 656 515 629 q 608 700 569 683 q 701 717 647 717 l 779 717 l 779 550 l 632 550 q 506 503 551 550 q 460 382 460 456 l 460 140 l 708 140 l 708 0 l 104 0 l 104 140 z "},"ř":{"ha":833,"x_min":104,"x_max":779,"o":"m 382 811 l 207 1026 l 299 1094 l 465 935 l 632 1094 l 718 1026 l 543 811 l 382 811 m 104 140 l 282 140 l 282 576 l 104 576 l 104 717 l 460 717 l 460 521 l 471 521 q 498 594 481 558 q 542 656 515 629 q 608 700 569 683 q 701 717 647 717 l 779 717 l 779 550 l 632 550 q 506 503 551 550 q 460 382 460 456 l 460 140 l 708 140 l 708 0 l 104 0 l 104 140 z "},"ŗ":{"ha":833,"x_min":104,"x_max":779,"o":"m 274 -79 l 471 -79 l 356 -367 l 244 -367 l 274 -79 m 104 140 l 282 140 l 282 576 l 104 576 l 104 717 l 460 717 l 460 521 l 471 521 q 498 594 481 558 q 542 656 515 629 q 608 700 569 683 q 701 717 647 717 l 779 717 l 779 550 l 632 550 q 506 503 551 550 q 460 382 460 456 l 460 140 l 708 140 l 708 0 l 104 0 l 104 140 z "},"ś":{"ha":833,"x_min":75,"x_max":738,"o":"m 438 799 l 331 850 l 463 1110 l 613 1035 l 438 799 m 414 -17 q 210 20 296 -17 q 75 119 124 57 l 179 214 q 281 139 224 165 q 415 113 339 113 q 522 135 482 113 q 563 203 563 157 q 535 256 563 242 q 464 276 508 269 l 349 294 q 262 315 304 301 q 187 351 219 328 q 135 412 154 375 q 115 501 115 449 q 199 674 115 614 q 431 733 283 733 q 608 704 535 733 q 728 622 681 675 l 635 519 q 553 578 604 553 q 425 604 503 604 q 289 519 289 604 q 317 466 289 481 q 389 444 344 451 l 503 426 q 591 406 549 419 q 666 369 633 393 q 718 310 699 346 q 738 221 738 274 q 652 47 738 110 q 414 -17 567 -17 z "},"š":{"ha":833,"x_min":75,"x_max":738,"o":"m 339 811 l 164 1026 l 256 1094 l 422 935 l 589 1094 l 675 1026 l 500 811 l 339 811 m 414 -17 q 210 20 296 -17 q 75 119 124 57 l 179 214 q 281 139 224 165 q 415 113 339 113 q 522 135 482 113 q 563 203 563 157 q 535 256 563 242 q 464 276 508 269 l 349 294 q 262 315 304 301 q 187 351 219 328 q 135 412 154 375 q 115 501 115 449 q 199 674 115 614 q 431 733 283 733 q 608 704 535 733 q 728 622 681 675 l 635 519 q 553 578 604 553 q 425 604 503 604 q 289 519 289 604 q 317 466 289 481 q 389 444 344 451 l 503 426 q 591 406 549 419 q 666 369 633 393 q 718 310 699 346 q 738 221 738 274 q 652 47 738 110 q 414 -17 567 -17 z "},"ş":{"ha":833,"x_min":75,"x_max":738,"o":"m 428 -292 q 322 -272 361 -292 q 265 -232 283 -253 l 326 -161 q 363 -190 340 -178 q 417 -201 385 -201 q 460 -192 443 -201 q 478 -164 478 -183 q 458 -131 478 -147 q 376 -108 439 -115 l 344 -104 l 363 -14 q 190 28 263 -7 q 75 119 118 64 l 179 214 q 281 139 224 165 q 415 113 339 113 q 522 135 482 113 q 563 203 563 157 q 535 256 563 242 q 464 276 508 269 l 349 294 q 262 315 304 301 q 187 351 219 328 q 135 412 154 375 q 115 501 115 449 q 199 674 115 614 q 431 733 283 733 q 608 704 535 733 q 728 622 681 675 l 635 519 q 553 578 604 553 q 425 604 503 604 q 289 519 289 604 q 317 466 289 481 q 389 444 344 451 l 503 426 q 591 406 549 419 q 666 369 633 393 q 718 310 699 346 q 738 221 738 274 q 662 54 738 117 q 447 -17 586 -8 l 435 -79 l 440 -85 q 472 -78 456 -81 q 503 -75 488 -75 q 574 -98 544 -75 q 603 -169 603 -121 q 588 -226 603 -203 q 549 -265 574 -250 q 493 -285 525 -279 q 428 -292 461 -292 z "},"ŝ":{"ha":833,"x_min":75,"x_max":738,"o":"m 500 1083 l 675 868 l 583 800 l 417 960 l 250 800 l 164 868 l 339 1083 l 500 1083 m 414 -17 q 210 20 296 -17 q 75 119 124 57 l 179 214 q 281 139 224 165 q 415 113 339 113 q 522 135 482 113 q 563 203 563 157 q 535 256 563 242 q 464 276 508 269 l 349 294 q 262 315 304 301 q 187 351 219 328 q 135 412 154 375 q 115 501 115 449 q 199 674 115 614 q 431 733 283 733 q 608 704 535 733 q 728 622 681 675 l 635 519 q 553 578 604 553 q 425 604 503 604 q 289 519 289 604 q 317 466 289 481 q 389 444 344 451 l 503 426 q 591 406 549 419 q 666 369 633 393 q 718 310 699 346 q 738 221 738 274 q 652 47 738 110 q 414 -17 567 -17 z "},"ș":{"ha":833,"x_min":75,"x_max":738,"o":"m 314 -79 l 511 -79 l 396 -367 l 285 -367 l 314 -79 m 414 -17 q 210 20 296 -17 q 75 119 124 57 l 179 214 q 281 139 224 165 q 415 113 339 113 q 522 135 482 113 q 563 203 563 157 q 535 256 563 242 q 464 276 508 269 l 349 294 q 262 315 304 301 q 187 351 219 328 q 135 412 154 375 q 115 501 115 449 q 199 674 115 614 q 431 733 283 733 q 608 704 535 733 q 728 622 681 675 l 635 519 q 553 578 604 553 q 425 604 503 604 q 289 519 289 604 q 317 466 289 481 q 389 444 344 451 l 503 426 q 591 406 549 419 q 666 369 633 393 q 718 310 699 346 q 738 221 738 274 q 652 47 738 110 q 414 -17 567 -17 z "},"ſ":{"ha":833,"x_min":90,"x_max":767,"o":"m 104 140 l 324 140 l 324 576 l 90 576 l 90 717 l 324 717 l 324 833 q 335 912 324 876 q 372 973 347 947 q 435 1013 397 999 q 525 1028 474 1028 l 767 1028 l 767 888 l 501 888 l 501 140 l 735 140 l 735 0 l 104 0 l 104 140 z "},"ß":{"ha":833,"x_min":100,"x_max":796,"o":"m 100 0 l 100 833 q 112 912 100 876 q 149 973 124 947 q 212 1013 174 999 q 301 1028 250 1028 l 513 1028 l 513 892 l 274 892 l 274 717 l 743 717 l 743 581 l 538 294 q 728 210 660 278 q 796 21 796 143 q 697 -201 796 -125 q 432 -278 599 -278 l 340 -278 l 340 -142 l 424 -142 q 569 -106 522 -142 q 615 4 615 -71 l 615 38 q 566 146 615 113 q 410 179 517 179 l 381 179 l 381 315 l 572 581 l 274 581 l 274 0 l 100 0 z "},"ŧ":{"ha":833,"x_min":57,"x_max":735,"o":"m 735 0 l 465 0 q 314 54 363 0 q 265 194 265 108 l 265 308 l 135 308 l 135 436 l 265 436 l 265 576 l 57 576 l 57 717 l 199 717 q 260 734 242 717 q 278 796 278 751 l 278 969 l 443 969 l 443 717 l 735 717 l 735 576 l 443 576 l 443 436 l 661 436 l 661 308 l 443 308 l 443 140 l 735 140 l 735 0 z "},"ť":{"ha":833,"x_min":57,"x_max":750,"o":"m 665 786 l 546 786 l 554 1074 l 750 1074 l 665 786 m 465 0 q 314 54 363 0 q 265 194 265 108 l 265 576 l 57 576 l 57 717 l 199 717 q 260 734 242 717 q 278 796 278 751 l 278 969 l 443 969 l 443 717 l 735 717 l 735 576 l 443 576 l 443 140 l 735 140 l 735 0 l 465 0 z "},"ț":{"ha":833,"x_min":57,"x_max":735,"o":"m 410 -79 l 607 -79 l 492 -367 l 381 -367 l 410 -79 m 465 0 q 314 54 363 0 q 265 194 265 108 l 265 576 l 57 576 l 57 717 l 199 717 q 260 734 242 717 q 278 796 278 751 l 278 969 l 443 969 l 443 717 l 735 717 l 735 576 l 443 576 l 443 140 l 735 140 l 735 0 l 465 0 z "},"ţ":{"ha":833,"x_min":57,"x_max":735,"o":"m 525 -292 q 419 -272 458 -292 q 364 -232 381 -253 l 425 -161 q 460 -190 438 -178 q 514 -201 482 -201 q 558 -192 540 -201 q 575 -164 575 -183 q 556 -131 575 -147 q 474 -108 536 -115 l 442 -104 l 463 0 q 313 54 361 0 q 265 194 265 108 l 265 576 l 57 576 l 57 717 l 199 717 q 260 734 242 717 q 278 796 278 751 l 278 969 l 443 969 l 443 717 l 735 717 l 735 576 l 443 576 l 443 140 l 735 140 l 735 0 l 549 0 l 532 -79 l 538 -85 q 569 -78 553 -81 q 601 -75 586 -75 q 671 -98 642 -75 q 700 -169 700 -121 q 685 -226 700 -203 q 647 -265 671 -250 q 591 -285 622 -279 q 525 -292 560 -292 z "},"þ":{"ha":833,"x_min":96,"x_max":771,"o":"m 96 1028 l 274 1028 l 274 590 l 283 590 q 363 694 313 656 q 497 733 414 733 q 609 710 558 733 q 696 641 660 688 q 751 524 732 594 q 771 358 771 453 q 751 193 771 264 q 696 76 732 122 q 609 6 660 29 q 497 -17 558 -17 q 363 22 414 -17 q 283 126 313 61 l 274 126 l 274 -278 l 96 -278 l 96 1028 m 422 125 q 542 172 500 125 q 585 301 585 219 l 585 415 q 542 544 585 497 q 422 592 500 592 q 317 562 361 592 q 274 471 274 532 l 274 246 q 317 155 274 185 q 422 125 361 125 z "},"ú":{"ha":833,"x_min":97,"x_max":729,"o":"m 433 799 l 326 850 l 458 1110 l 608 1035 l 433 799 m 551 126 l 544 126 q 472 26 521 68 q 335 -17 422 -17 q 163 53 229 -17 q 97 254 97 124 l 97 717 l 275 717 l 275 279 q 410 124 275 124 q 462 131 436 124 q 508 152 488 138 q 540 188 528 167 q 551 238 551 208 l 551 717 l 729 717 l 729 0 l 551 0 l 551 126 z "},"ŭ":{"ha":833,"x_min":97,"x_max":729,"o":"m 551 126 l 544 126 q 472 26 521 68 q 335 -17 422 -17 q 163 53 229 -17 q 97 254 97 124 l 97 717 l 275 717 l 275 279 q 410 124 275 124 q 462 131 436 124 q 508 152 488 138 q 540 188 528 167 q 551 238 551 208 l 551 717 l 729 717 l 729 0 l 551 0 l 551 126 m 415 803 q 312 825 354 803 q 240 881 269 847 q 191 954 210 914 q 160 1031 172 994 l 263 1081 l 292 1035 q 322 990 308 1010 q 349 957 335 971 q 378 936 363 943 q 415 929 394 929 q 452 936 436 929 q 482 957 468 943 q 509 990 496 971 q 539 1035 522 1010 l 568 1081 l 671 1031 q 640 954 658 994 q 591 881 621 914 q 518 825 561 847 q 415 803 475 803 z "},"ǔ":{"ha":833,"x_min":97,"x_max":729,"o":"m 551 126 l 544 126 q 472 26 521 68 q 335 -17 422 -17 q 163 53 229 -17 q 97 254 97 124 l 97 717 l 275 717 l 275 279 q 410 124 275 124 q 462 131 436 124 q 508 152 488 138 q 540 188 528 167 q 551 238 551 208 l 551 717 l 729 717 l 729 0 l 551 0 l 551 126 m 333 811 l 158 1026 l 250 1094 l 417 935 l 583 1094 l 669 1026 l 494 811 l 333 811 z "},"û":{"ha":833,"x_min":97,"x_max":729,"o":"m 496 1083 l 671 868 l 579 800 l 413 960 l 246 800 l 160 868 l 335 1083 l 496 1083 m 551 126 l 544 126 q 472 26 521 68 q 335 -17 422 -17 q 163 53 229 -17 q 97 254 97 124 l 97 717 l 275 717 l 275 279 q 410 124 275 124 q 462 131 436 124 q 508 152 488 138 q 540 188 528 167 q 551 238 551 208 l 551 717 l 729 717 l 729 0 l 551 0 l 551 126 z "},"ü":{"ha":833,"x_min":97,"x_max":729,"o":"m 269 832 q 190 856 213 832 q 168 913 168 879 l 168 943 q 190 1000 168 976 q 269 1024 213 1024 q 349 1000 326 1024 q 371 943 371 976 l 371 913 q 349 856 371 879 q 269 832 326 832 m 561 832 q 482 856 504 832 q 460 913 460 879 l 460 943 q 482 1000 460 976 q 561 1024 504 1024 q 640 1000 618 1024 q 663 943 663 976 l 663 913 q 640 856 663 879 q 561 832 618 832 m 551 126 l 544 126 q 472 26 521 68 q 335 -17 422 -17 q 163 53 229 -17 q 97 254 97 124 l 97 717 l 275 717 l 275 279 q 410 124 275 124 q 462 131 436 124 q 508 152 488 138 q 540 188 528 167 q 551 238 551 208 l 551 717 l 729 717 l 729 0 l 551 0 l 551 126 z "},"ụ":{"ha":833,"x_min":97,"x_max":729,"o":"m 551 126 l 544 126 q 472 26 521 68 q 335 -17 422 -17 q 163 53 229 -17 q 97 254 97 124 l 97 717 l 275 717 l 275 279 q 410 124 275 124 q 462 131 436 124 q 508 152 488 138 q 540 188 528 167 q 551 238 551 208 l 551 717 l 729 717 l 729 0 l 551 0 l 551 126 m 413 -269 q 333 -247 356 -269 q 310 -189 310 -224 l 310 -158 q 333 -101 310 -124 q 413 -78 356 -78 q 492 -101 469 -78 q 515 -158 515 -124 l 515 -189 q 492 -247 515 -224 q 413 -269 469 -269 z "},"ù":{"ha":833,"x_min":97,"x_max":729,"o":"m 551 126 l 544 126 q 472 26 521 68 q 335 -17 422 -17 q 163 53 229 -17 q 97 254 97 124 l 97 717 l 275 717 l 275 279 q 410 124 275 124 q 462 131 436 124 q 508 152 488 138 q 540 188 528 167 q 551 238 551 208 l 551 717 l 729 717 l 729 0 l 551 0 l 551 126 m 222 1035 l 372 1110 l 504 850 l 397 799 l 222 1035 z "},"ủ":{"ha":833,"x_min":97,"x_max":729,"o":"m 551 126 l 544 126 q 472 26 521 68 q 335 -17 422 -17 q 163 53 229 -17 q 97 254 97 124 l 97 717 l 275 717 l 275 279 q 410 124 275 124 q 462 131 436 124 q 508 152 488 138 q 540 188 528 167 q 551 238 551 208 l 551 717 l 729 717 l 729 0 l 551 0 l 551 126 m 261 1090 l 446 1090 q 542 1062 515 1090 q 569 996 569 1033 q 549 915 569 958 q 494 831 528 872 l 457 785 l 365 829 l 429 961 l 261 961 l 261 1090 z "},"ű":{"ha":833,"x_min":97,"x_max":739,"o":"m 551 126 l 544 126 q 472 26 521 68 q 335 -17 422 -17 q 163 53 229 -17 q 97 254 97 124 l 97 717 l 275 717 l 275 279 q 410 124 275 124 q 462 131 436 124 q 508 152 488 138 q 540 188 528 167 q 551 238 551 208 l 551 717 l 729 717 l 729 0 l 551 0 l 551 126 m 297 799 l 199 844 l 331 1106 l 472 1035 l 297 799 m 564 799 l 465 844 l 597 1106 l 739 1035 l 564 799 z "},"ū":{"ha":833,"x_min":97,"x_max":729,"o":"m 551 126 l 544 126 q 472 26 521 68 q 335 -17 422 -17 q 163 53 229 -17 q 97 254 97 124 l 97 717 l 275 717 l 275 279 q 410 124 275 124 q 462 131 436 124 q 508 152 488 138 q 540 188 528 167 q 551 238 551 208 l 551 717 l 729 717 l 729 0 l 551 0 l 551 126 m 208 992 l 622 992 l 622 864 l 208 864 l 208 992 z "},"ų":{"ha":833,"x_min":97,"x_max":769,"o":"m 729 0 q 647 -55 678 -32 q 599 -95 615 -78 q 576 -125 582 -112 q 571 -150 571 -137 q 588 -187 571 -178 q 626 -197 604 -197 q 668 -187 650 -197 q 701 -160 686 -176 l 769 -226 q 713 -274 753 -256 q 611 -292 674 -292 q 548 -285 578 -292 q 495 -266 518 -279 q 459 -231 472 -253 q 446 -176 446 -208 q 488 -81 446 -121 q 610 -4 531 -42 l 608 0 l 551 0 l 551 126 l 544 126 q 472 26 521 68 q 335 -17 422 -17 q 163 53 229 -17 q 97 254 97 124 l 97 717 l 275 717 l 275 279 q 410 124 275 124 q 462 131 436 124 q 508 152 488 138 q 540 188 528 167 q 551 238 551 208 l 551 717 l 729 717 l 729 0 z "},"ů":{"ha":833,"x_min":97,"x_max":729,"o":"m 415 772 q 340 786 375 772 q 278 825 304 800 q 238 884 253 850 q 224 960 224 918 q 238 1035 224 1000 q 278 1094 253 1069 q 340 1133 304 1119 q 415 1147 375 1147 q 491 1133 456 1147 q 552 1094 526 1119 q 592 1035 578 1069 q 607 960 607 1001 q 592 885 607 919 q 552 825 578 850 q 491 786 526 800 q 415 772 456 772 m 415 865 q 470 885 451 865 q 489 938 489 904 l 489 982 q 415 1054 489 1054 q 360 1035 379 1054 q 342 982 342 1015 l 342 938 q 415 865 342 865 m 551 126 l 544 126 q 472 26 521 68 q 335 -17 422 -17 q 163 53 229 -17 q 97 254 97 124 l 97 717 l 275 717 l 275 279 q 410 124 275 124 q 462 131 436 124 q 508 152 488 138 q 540 188 528 167 q 551 238 551 208 l 551 717 l 729 717 l 729 0 l 551 0 l 551 126 z "},"ũ":{"ha":833,"x_min":97,"x_max":729,"o":"m 551 126 l 544 126 q 472 26 521 68 q 335 -17 422 -17 q 163 53 229 -17 q 97 254 97 124 l 97 717 l 275 717 l 275 279 q 410 124 275 124 q 462 131 436 124 q 508 152 488 138 q 540 188 528 167 q 551 238 551 208 l 551 717 l 729 717 l 729 0 l 551 0 l 551 126 m 519 831 q 461 840 486 831 q 411 861 436 850 q 356 883 381 875 q 307 892 331 892 q 265 883 283 892 q 225 857 247 875 l 161 939 q 222 999 185 975 q 311 1024 258 1024 q 369 1014 344 1024 q 419 993 394 1004 q 475 971 450 979 q 524 963 500 963 q 565 971 547 963 q 606 997 583 979 l 669 915 q 609 855 646 879 q 519 831 572 831 z "},"ư":{"ha":833,"x_min":97,"x_max":826,"o":"m 826 732 q 807 647 826 679 q 729 610 788 615 l 729 0 l 551 0 l 551 126 l 544 126 q 472 26 521 68 q 335 -17 422 -17 q 163 53 229 -17 q 97 254 97 124 l 97 717 l 275 717 l 275 279 q 410 124 275 124 q 462 131 436 124 q 508 152 488 138 q 540 188 528 167 q 551 238 551 208 l 551 717 l 675 717 l 675 875 l 826 875 l 826 732 z "},"ứ":{"ha":833,"x_min":97,"x_max":826,"o":"m 433 799 l 326 850 l 458 1110 l 608 1035 l 433 799 m 826 732 q 807 647 826 679 q 729 610 788 615 l 729 0 l 551 0 l 551 126 l 544 126 q 472 26 521 68 q 335 -17 422 -17 q 163 53 229 -17 q 97 254 97 124 l 97 717 l 275 717 l 275 279 q 410 124 275 124 q 462 131 436 124 q 508 152 488 138 q 540 188 528 167 q 551 238 551 208 l 551 717 l 675 717 l 675 875 l 826 875 l 826 732 z "},"ự":{"ha":833,"x_min":97,"x_max":826,"o":"m 826 732 q 807 647 826 679 q 729 610 788 615 l 729 0 l 551 0 l 551 126 l 544 126 q 472 26 521 68 q 335 -17 422 -17 q 163 53 229 -17 q 97 254 97 124 l 97 717 l 275 717 l 275 279 q 410 124 275 124 q 462 131 436 124 q 508 152 488 138 q 540 188 528 167 q 551 238 551 208 l 551 717 l 675 717 l 675 875 l 826 875 l 826 732 m 413 -269 q 333 -247 356 -269 q 310 -189 310 -224 l 310 -158 q 333 -101 310 -124 q 413 -78 356 -78 q 492 -101 469 -78 q 515 -158 515 -124 l 515 -189 q 492 -247 515 -224 q 413 -269 469 -269 z "},"ừ":{"ha":833,"x_min":97,"x_max":826,"o":"m 222 1035 l 372 1110 l 504 850 l 397 799 l 222 1035 m 826 732 q 807 647 826 679 q 729 610 788 615 l 729 0 l 551 0 l 551 126 l 544 126 q 472 26 521 68 q 335 -17 422 -17 q 163 53 229 -17 q 97 254 97 124 l 97 717 l 275 717 l 275 279 q 410 124 275 124 q 462 131 436 124 q 508 152 488 138 q 540 188 528 167 q 551 238 551 208 l 551 717 l 675 717 l 675 875 l 826 875 l 826 732 z "},"ử":{"ha":833,"x_min":97,"x_max":826,"o":"m 261 1090 l 446 1090 q 542 1062 515 1090 q 569 996 569 1033 q 549 915 569 958 q 494 831 528 872 l 457 785 l 365 829 l 429 961 l 261 961 l 261 1090 m 826 732 q 807 647 826 679 q 729 610 788 615 l 729 0 l 551 0 l 551 126 l 544 126 q 472 26 521 68 q 335 -17 422 -17 q 163 53 229 -17 q 97 254 97 124 l 97 717 l 275 717 l 275 279 q 410 124 275 124 q 462 131 436 124 q 508 152 488 138 q 540 188 528 167 q 551 238 551 208 l 551 717 l 675 717 l 675 875 l 826 875 l 826 732 z "},"ữ":{"ha":833,"x_min":97,"x_max":826,"o":"m 494 832 q 444 841 465 832 q 400 861 422 850 q 354 883 375 875 q 311 890 333 890 q 240 858 274 890 l 176 936 q 232 997 199 972 q 314 1022 265 1022 q 365 1013 343 1022 q 408 993 386 1004 q 454 972 433 979 q 497 964 475 964 q 568 996 535 964 l 632 918 q 576 857 610 882 q 494 832 543 832 m 826 732 q 807 647 826 679 q 729 610 788 615 l 729 0 l 551 0 l 551 126 l 544 126 q 472 26 521 68 q 335 -17 422 -17 q 163 53 229 -17 q 97 254 97 124 l 97 717 l 275 717 l 275 279 q 410 124 275 124 q 462 131 436 124 q 508 152 488 138 q 540 188 528 167 q 551 238 551 208 l 551 717 l 675 717 l 675 875 l 826 875 l 826 732 z "},"ǖ":{"ha":833,"x_min":97,"x_max":729,"o":"m 551 126 l 544 126 q 472 26 521 68 q 335 -17 422 -17 q 163 53 229 -17 q 97 254 97 124 l 97 717 l 275 717 l 275 279 q 410 124 275 124 q 462 131 436 124 q 508 152 488 138 q 540 188 528 167 q 551 238 551 208 l 551 717 l 729 717 l 729 0 l 551 0 l 551 126 m 206 1200 l 619 1200 l 619 1071 l 206 1071 l 206 1200 m 264 811 q 184 834 207 811 q 161 890 161 857 l 161 922 q 184 978 161 956 q 264 1001 207 1001 q 343 978 321 1001 q 365 922 365 956 l 365 890 q 343 834 365 857 q 264 811 321 811 m 561 811 q 482 834 504 811 q 460 890 460 857 l 460 922 q 482 978 460 956 q 561 1001 504 1001 q 641 978 618 1001 q 664 922 664 956 l 664 890 q 641 834 664 857 q 561 811 618 811 z "},"ǘ":{"ha":833,"x_min":97,"x_max":729,"o":"m 551 126 l 544 126 q 472 26 521 68 q 335 -17 422 -17 q 163 53 229 -17 q 97 254 97 124 l 97 717 l 275 717 l 275 279 q 410 124 275 124 q 462 131 436 124 q 508 152 488 138 q 540 188 528 167 q 551 238 551 208 l 551 717 l 729 717 l 729 0 l 551 0 l 551 126 m 428 1000 l 331 1049 l 461 1308 l 601 1238 l 428 1000 m 264 811 q 184 834 207 811 q 161 890 161 857 l 161 922 q 184 978 161 956 q 264 1001 207 1001 q 343 978 321 1001 q 365 922 365 956 l 365 890 q 343 834 365 857 q 264 811 321 811 m 561 811 q 482 834 504 811 q 460 890 460 857 l 460 922 q 482 978 460 956 q 561 1001 504 1001 q 641 978 618 1001 q 664 922 664 956 l 664 890 q 641 834 664 857 q 561 811 618 811 z "},"ǜ":{"ha":833,"x_min":97,"x_max":729,"o":"m 551 126 l 544 126 q 472 26 521 68 q 335 -17 422 -17 q 163 53 229 -17 q 97 254 97 124 l 97 717 l 275 717 l 275 279 q 410 124 275 124 q 462 131 436 124 q 508 152 488 138 q 540 188 528 167 q 551 238 551 208 l 551 717 l 729 717 l 729 0 l 551 0 l 551 126 m 224 1238 l 364 1308 l 494 1049 l 397 1000 l 224 1238 m 264 811 q 184 834 207 811 q 161 890 161 857 l 161 922 q 184 978 161 956 q 264 1001 207 1001 q 343 978 321 1001 q 365 922 365 956 l 365 890 q 343 834 365 857 q 264 811 321 811 m 561 811 q 482 834 504 811 q 460 890 460 857 l 460 922 q 482 978 460 956 q 561 1001 504 1001 q 641 978 618 1001 q 664 922 664 956 l 664 890 q 641 834 664 857 q 561 811 618 811 z "},"ǚ":{"ha":833,"x_min":97,"x_max":729,"o":"m 551 126 l 544 126 q 472 26 521 68 q 335 -17 422 -17 q 163 53 229 -17 q 97 254 97 124 l 97 717 l 275 717 l 275 279 q 410 124 275 124 q 462 131 436 124 q 508 152 488 138 q 540 188 528 167 q 551 238 551 208 l 551 717 l 729 717 l 729 0 l 551 0 l 551 126 m 349 1031 l 160 1233 l 244 1310 l 414 1160 l 583 1310 l 665 1233 l 476 1031 l 349 1031 m 264 811 q 184 834 207 811 q 161 890 161 857 l 161 922 q 184 978 161 956 q 264 1001 207 1001 q 343 978 321 1001 q 365 922 365 956 l 365 890 q 343 834 365 857 q 264 811 321 811 m 561 811 q 482 834 504 811 q 460 890 460 857 l 460 922 q 482 978 460 956 q 561 1001 504 1001 q 641 978 618 1001 q 664 922 664 956 l 664 890 q 641 834 664 857 q 561 811 618 811 z "},"ẃ":{"ha":833,"x_min":19,"x_max":814,"o":"m 435 799 l 328 850 l 460 1110 l 610 1035 l 435 799 m 19 717 l 168 717 l 229 125 l 242 125 l 339 717 l 501 717 l 597 125 l 610 125 l 672 717 l 814 717 l 722 0 l 507 0 l 424 526 l 411 526 l 326 0 l 111 0 l 19 717 z "},"ŵ":{"ha":833,"x_min":19,"x_max":814,"o":"m 497 1083 l 672 868 l 581 800 l 414 960 l 247 800 l 161 868 l 336 1083 l 497 1083 m 19 717 l 168 717 l 229 125 l 242 125 l 339 717 l 501 717 l 597 125 l 610 125 l 672 717 l 814 717 l 722 0 l 507 0 l 424 526 l 411 526 l 326 0 l 111 0 l 19 717 z "},"ẅ":{"ha":833,"x_min":19,"x_max":814,"o":"m 271 832 q 192 856 214 832 q 169 913 169 879 l 169 943 q 192 1000 169 976 q 271 1024 214 1024 q 350 1000 328 1024 q 372 943 372 976 l 372 913 q 350 856 372 879 q 271 832 328 832 m 563 832 q 483 856 506 832 q 461 913 461 879 l 461 943 q 483 1000 461 976 q 563 1024 506 1024 q 642 1000 619 1024 q 664 943 664 976 l 664 913 q 642 856 664 879 q 563 832 619 832 m 19 717 l 168 717 l 229 125 l 242 125 l 339 717 l 501 717 l 597 125 l 610 125 l 672 717 l 814 717 l 722 0 l 507 0 l 424 526 l 411 526 l 326 0 l 111 0 l 19 717 z "},"ẁ":{"ha":833,"x_min":19,"x_max":814,"o":"m 19 717 l 168 717 l 229 125 l 242 125 l 339 717 l 501 717 l 597 125 l 610 125 l 672 717 l 814 717 l 722 0 l 507 0 l 424 526 l 411 526 l 326 0 l 111 0 l 19 717 m 224 1035 l 374 1110 l 506 850 l 399 799 l 224 1035 z "},"ý":{"ha":833,"x_min":40,"x_max":793,"o":"m 613 717 l 793 717 l 450 -128 q 372 -240 421 -201 q 235 -278 324 -278 l 104 -278 l 104 -137 l 275 -137 l 329 7 l 40 717 l 229 717 l 339 417 l 415 189 l 425 189 l 501 417 l 613 717 m 436 799 l 329 850 l 461 1110 l 611 1035 l 436 799 z "},"ŷ":{"ha":833,"x_min":40,"x_max":793,"o":"m 613 717 l 793 717 l 450 -128 q 372 -240 421 -201 q 235 -278 324 -278 l 104 -278 l 104 -137 l 275 -137 l 329 7 l 40 717 l 229 717 l 339 417 l 415 189 l 425 189 l 501 417 l 613 717 m 499 1083 l 674 868 l 582 800 l 415 960 l 249 800 l 163 868 l 338 1083 l 499 1083 z "},"ÿ":{"ha":833,"x_min":40,"x_max":793,"o":"m 613 717 l 793 717 l 450 -128 q 372 -240 421 -201 q 235 -278 324 -278 l 104 -278 l 104 -137 l 275 -137 l 329 7 l 40 717 l 229 717 l 339 417 l 415 189 l 425 189 l 501 417 l 613 717 m 272 832 q 193 856 215 832 q 171 913 171 879 l 171 943 q 193 1000 171 976 q 272 1024 215 1024 q 351 1000 329 1024 q 374 943 374 976 l 374 913 q 351 856 374 879 q 272 832 329 832 m 564 832 q 485 856 507 832 q 463 913 463 879 l 463 943 q 485 1000 463 976 q 564 1024 507 1024 q 643 1000 621 1024 q 665 943 665 976 l 665 913 q 643 856 665 879 q 564 832 621 832 z "},"ỵ":{"ha":833,"x_min":40,"x_max":793,"o":"m 613 717 l 793 717 l 450 -128 q 372 -240 421 -201 q 235 -278 324 -278 l 104 -278 l 104 -137 l 275 -137 l 329 7 l 40 717 l 229 717 l 339 417 l 415 189 l 425 189 l 501 417 l 613 717 m 660 -269 q 580 -247 603 -269 q 557 -189 557 -224 l 557 -158 q 580 -101 557 -124 q 660 -78 603 -78 q 740 -101 717 -78 q 763 -158 763 -124 l 763 -189 q 740 -247 763 -224 q 660 -269 717 -269 z "},"ỳ":{"ha":833,"x_min":40,"x_max":793,"o":"m 613 717 l 793 717 l 450 -128 q 372 -240 421 -201 q 235 -278 324 -278 l 104 -278 l 104 -137 l 275 -137 l 329 7 l 40 717 l 229 717 l 339 417 l 415 189 l 425 189 l 501 417 l 613 717 m 225 1035 l 375 1110 l 507 850 l 400 799 l 225 1035 z "},"ỷ":{"ha":833,"x_min":40,"x_max":793,"o":"m 613 717 l 793 717 l 450 -128 q 372 -240 421 -201 q 235 -278 324 -278 l 104 -278 l 104 -137 l 275 -137 l 329 7 l 40 717 l 229 717 l 339 417 l 415 189 l 425 189 l 501 417 l 613 717 m 267 1090 l 451 1090 q 548 1062 521 1090 q 575 996 575 1033 q 554 915 575 958 q 500 831 533 872 l 463 785 l 371 829 l 435 961 l 267 961 l 267 1090 z "},"ỹ":{"ha":833,"x_min":40,"x_max":793,"o":"m 613 717 l 793 717 l 450 -128 q 372 -240 421 -201 q 235 -278 324 -278 l 104 -278 l 104 -137 l 275 -137 l 329 7 l 40 717 l 229 717 l 339 417 l 415 189 l 425 189 l 501 417 l 613 717 m 522 831 q 464 840 489 831 q 414 861 439 850 q 358 883 383 875 q 310 892 333 892 q 268 883 286 892 q 228 857 250 875 l 164 939 q 224 999 188 975 q 314 1024 261 1024 q 372 1014 347 1024 q 422 993 397 1004 q 478 971 453 979 q 526 963 503 963 q 568 971 550 963 q 608 997 586 979 l 672 915 q 612 855 649 879 q 522 831 575 831 z "},"ź":{"ha":833,"x_min":100,"x_max":733,"o":"m 435 799 l 328 850 l 460 1110 l 610 1035 l 435 799 m 100 0 l 100 151 l 517 576 l 114 576 l 114 717 l 719 717 l 719 565 l 303 140 l 733 140 l 733 0 l 100 0 z "},"ž":{"ha":833,"x_min":100,"x_max":733,"o":"m 336 811 l 161 1026 l 253 1094 l 419 935 l 586 1094 l 672 1026 l 497 811 l 336 811 m 100 0 l 100 151 l 517 576 l 114 576 l 114 717 l 719 717 l 719 565 l 303 140 l 733 140 l 733 0 l 100 0 z "},"ż":{"ha":833,"x_min":100,"x_max":733,"o":"m 100 0 l 100 151 l 517 576 l 114 576 l 114 717 l 719 717 l 719 565 l 303 140 l 733 140 l 733 0 l 100 0 m 417 821 q 328 847 354 821 q 303 911 303 874 l 303 944 q 328 1008 303 982 q 417 1035 354 1035 q 505 1008 479 1035 q 531 944 531 982 l 531 911 q 505 847 531 874 q 417 821 479 821 z "},"Á":{"ha":833,"x_min":18,"x_max":817,"o":"m 624 0 l 556 246 l 268 246 l 201 0 l 18 0 l 290 969 l 543 969 l 817 0 l 624 0 m 418 790 l 407 790 l 300 394 l 525 394 l 418 790 m 435 1035 l 328 1086 l 460 1346 l 610 1271 l 435 1035 z "},"Ă":{"ha":833,"x_min":18,"x_max":817,"o":"m 624 0 l 556 246 l 268 246 l 201 0 l 18 0 l 290 969 l 543 969 l 817 0 l 624 0 m 418 790 l 407 790 l 300 394 l 525 394 l 418 790 m 417 1039 q 313 1061 356 1039 q 241 1117 271 1083 q 192 1190 211 1150 q 161 1267 174 1231 l 264 1317 l 293 1271 q 323 1226 310 1246 q 350 1193 336 1207 q 380 1172 364 1179 q 417 1165 396 1165 q 453 1172 438 1165 q 483 1193 469 1179 q 510 1226 497 1207 q 540 1271 524 1246 l 569 1317 l 672 1267 q 641 1190 660 1231 q 592 1117 622 1150 q 519 1061 563 1083 q 417 1039 476 1039 z "},"Ǎ":{"ha":833,"x_min":18,"x_max":817,"o":"m 624 0 l 556 246 l 268 246 l 201 0 l 18 0 l 290 969 l 543 969 l 817 0 l 624 0 m 418 790 l 407 790 l 300 394 l 525 394 l 418 790 m 336 1047 l 161 1263 l 253 1331 l 419 1171 l 586 1331 l 672 1263 l 497 1047 l 336 1047 z "},"Â":{"ha":833,"x_min":18,"x_max":817,"o":"m 624 0 l 556 246 l 268 246 l 201 0 l 18 0 l 290 969 l 543 969 l 817 0 l 624 0 m 418 790 l 407 790 l 300 394 l 525 394 l 418 790 m 497 1319 l 672 1104 l 581 1036 l 414 1196 l 247 1036 l 161 1104 l 336 1319 l 497 1319 z "},"Ä":{"ha":833,"x_min":18,"x_max":817,"o":"m 624 0 l 556 246 l 268 246 l 201 0 l 18 0 l 290 969 l 543 969 l 817 0 l 624 0 m 418 790 l 407 790 l 300 394 l 525 394 l 418 790 m 271 1068 q 192 1092 214 1068 q 169 1149 169 1115 l 169 1179 q 192 1236 169 1213 q 271 1260 214 1260 q 350 1236 328 1260 q 372 1179 372 1213 l 372 1149 q 350 1092 372 1115 q 271 1068 328 1068 m 563 1068 q 483 1092 506 1068 q 461 1149 461 1115 l 461 1179 q 483 1236 461 1213 q 563 1260 506 1260 q 642 1236 619 1260 q 664 1179 664 1213 l 664 1149 q 642 1092 664 1115 q 563 1068 619 1068 z "},"Ạ":{"ha":833,"x_min":18,"x_max":817,"o":"m 624 0 l 556 246 l 268 246 l 201 0 l 18 0 l 290 969 l 543 969 l 817 0 l 624 0 m 418 790 l 407 790 l 300 394 l 525 394 l 418 790 m 417 -269 q 337 -247 360 -269 q 314 -189 314 -224 l 314 -158 q 337 -101 314 -124 q 417 -78 360 -78 q 497 -101 474 -78 q 519 -158 519 -124 l 519 -189 q 497 -247 519 -224 q 417 -269 474 -269 z "},"À":{"ha":833,"x_min":18,"x_max":817,"o":"m 624 0 l 556 246 l 268 246 l 201 0 l 18 0 l 290 969 l 543 969 l 817 0 l 624 0 m 418 790 l 407 790 l 300 394 l 525 394 l 418 790 m 224 1271 l 374 1346 l 506 1086 l 399 1035 l 224 1271 z "},"Ả":{"ha":833,"x_min":18,"x_max":817,"o":"m 624 0 l 556 246 l 268 246 l 201 0 l 18 0 l 290 969 l 543 969 l 817 0 l 624 0 m 418 790 l 407 790 l 300 394 l 525 394 l 418 790 m 265 1326 l 450 1326 q 547 1298 519 1326 q 574 1232 574 1269 q 553 1151 574 1194 q 499 1067 532 1108 l 461 1021 l 369 1065 l 433 1197 l 265 1197 l 265 1326 z "},"Ā":{"ha":833,"x_min":18,"x_max":817,"o":"m 624 0 l 556 246 l 268 246 l 201 0 l 18 0 l 290 969 l 543 969 l 817 0 l 624 0 m 418 790 l 407 790 l 300 394 l 525 394 l 418 790 m 210 1228 l 624 1228 l 624 1100 l 210 1100 l 210 1228 z "},"Ą":{"ha":833,"x_min":18,"x_max":857,"o":"m 290 969 l 543 969 l 817 0 q 733 -55 764 -32 q 685 -95 701 -78 q 663 -125 668 -112 q 658 -150 658 -137 q 675 -187 658 -178 q 713 -197 692 -197 q 756 -187 738 -197 q 788 -160 774 -176 l 857 -226 q 801 -274 840 -256 q 699 -292 761 -292 q 635 -285 665 -292 q 582 -266 604 -279 q 547 -231 560 -253 q 533 -176 533 -208 q 576 -81 533 -121 q 696 -4 618 -42 l 694 0 l 624 0 l 556 246 l 268 246 l 201 0 l 18 0 l 290 969 m 418 790 l 407 790 l 300 394 l 525 394 l 418 790 z "},"Å":{"ha":833,"x_min":18,"x_max":817,"o":"m 624 0 l 556 246 l 268 246 l 201 0 l 18 0 l 290 969 l 543 969 l 817 0 l 624 0 m 418 790 l 407 790 l 300 394 l 525 394 l 418 790 m 417 1008 q 341 1022 376 1008 q 280 1061 306 1036 q 240 1120 254 1086 q 225 1196 225 1154 q 240 1271 225 1236 q 280 1331 254 1306 q 341 1369 306 1356 q 417 1383 376 1383 q 492 1369 457 1383 q 553 1331 528 1356 q 594 1272 579 1306 q 608 1196 608 1238 q 594 1121 608 1156 q 553 1061 579 1086 q 492 1022 528 1036 q 417 1008 457 1008 m 417 1101 q 472 1121 453 1101 q 490 1174 490 1140 l 490 1218 q 417 1290 490 1290 q 362 1271 381 1290 q 343 1218 343 1251 l 343 1174 q 417 1101 343 1101 z "},"Ǻ":{"ha":833,"x_min":18,"x_max":817,"o":"m 624 0 l 556 246 l 268 246 l 201 0 l 18 0 l 290 969 l 543 969 l 817 0 l 624 0 m 418 790 l 407 790 l 300 394 l 525 394 l 418 790 m 414 1360 l 346 1425 l 503 1588 l 600 1493 l 414 1360 m 417 1011 q 340 1023 375 1011 q 278 1056 304 1035 q 236 1108 251 1078 q 221 1176 221 1139 q 236 1244 221 1214 q 278 1297 251 1275 q 340 1330 304 1318 q 417 1342 375 1342 q 494 1330 458 1342 q 556 1297 529 1318 q 597 1244 582 1275 q 613 1176 613 1214 q 597 1108 613 1139 q 556 1056 582 1078 q 494 1023 529 1035 q 417 1011 458 1011 m 417 1100 q 494 1167 494 1100 l 494 1186 q 417 1253 494 1253 q 339 1186 339 1253 l 339 1167 q 417 1100 339 1100 z "},"Ã":{"ha":833,"x_min":18,"x_max":817,"o":"m 624 0 l 556 246 l 268 246 l 201 0 l 18 0 l 290 969 l 543 969 l 817 0 l 624 0 m 418 790 l 407 790 l 300 394 l 525 394 l 418 790 m 521 1067 q 463 1076 488 1067 q 413 1097 438 1086 q 357 1119 382 1111 q 308 1128 332 1128 q 267 1119 285 1128 q 226 1093 249 1111 l 163 1175 q 223 1235 186 1211 q 313 1260 260 1260 q 371 1250 346 1260 q 421 1229 396 1240 q 476 1207 451 1215 q 525 1199 501 1199 q 567 1207 549 1199 q 607 1233 585 1215 l 671 1151 q 610 1091 647 1115 q 521 1067 574 1067 z "},"Ắ":{"ha":833,"x_min":18,"x_max":817,"o":"m 624 0 l 556 246 l 268 246 l 201 0 l 18 0 l 290 969 l 543 969 l 817 0 l 624 0 m 418 790 l 407 790 l 300 394 l 525 394 l 418 790 m 417 1028 q 312 1047 356 1028 q 236 1094 268 1065 q 184 1160 204 1124 q 151 1231 164 1196 l 244 1285 l 274 1244 q 342 1172 313 1192 q 417 1151 372 1151 q 491 1172 461 1151 q 560 1244 521 1192 l 589 1285 l 682 1231 q 649 1160 669 1196 q 597 1094 629 1124 q 521 1047 565 1065 q 417 1028 476 1028 m 438 1235 l 340 1282 l 472 1543 l 613 1472 l 438 1235 z "},"Ặ":{"ha":833,"x_min":18,"x_max":817,"o":"m 624 0 l 556 246 l 268 246 l 201 0 l 18 0 l 290 969 l 543 969 l 817 0 l 624 0 m 418 790 l 407 790 l 300 394 l 525 394 l 418 790 m 417 1039 q 313 1061 356 1039 q 241 1117 271 1083 q 192 1190 211 1150 q 161 1267 174 1231 l 264 1317 l 293 1271 q 323 1226 310 1246 q 350 1193 336 1207 q 380 1172 364 1179 q 417 1165 396 1165 q 453 1172 438 1165 q 483 1193 469 1179 q 510 1226 497 1207 q 540 1271 524 1246 l 569 1317 l 672 1267 q 641 1190 660 1231 q 592 1117 622 1150 q 519 1061 563 1083 q 417 1039 476 1039 m 417 -269 q 337 -247 360 -269 q 314 -189 314 -224 l 314 -158 q 337 -101 314 -124 q 417 -78 360 -78 q 497 -101 474 -78 q 519 -158 519 -124 l 519 -189 q 497 -247 519 -224 q 417 -269 474 -269 z "},"Ằ":{"ha":833,"x_min":18,"x_max":817,"o":"m 624 0 l 556 246 l 268 246 l 201 0 l 18 0 l 290 969 l 543 969 l 817 0 l 624 0 m 418 790 l 407 790 l 300 394 l 525 394 l 418 790 m 417 1028 q 312 1047 356 1028 q 236 1094 268 1065 q 184 1160 204 1124 q 151 1231 164 1196 l 244 1285 l 274 1244 q 342 1172 313 1192 q 417 1151 372 1151 q 491 1172 461 1151 q 560 1244 521 1192 l 589 1285 l 682 1231 q 649 1160 669 1196 q 597 1094 629 1124 q 521 1047 565 1065 q 417 1028 476 1028 m 221 1472 l 361 1543 l 493 1282 l 396 1235 l 221 1472 z "},"Ẳ":{"ha":833,"x_min":18,"x_max":817,"o":"m 624 0 l 556 246 l 268 246 l 201 0 l 18 0 l 290 969 l 543 969 l 817 0 l 624 0 m 418 790 l 407 790 l 300 394 l 525 394 l 418 790 m 254 1524 l 426 1524 q 524 1496 497 1524 q 551 1431 551 1468 q 528 1350 551 1393 q 469 1264 504 1307 l 433 1219 l 350 1261 l 417 1400 l 254 1400 l 254 1524 m 417 1028 q 312 1047 356 1028 q 236 1094 268 1065 q 184 1160 204 1124 q 151 1231 164 1196 l 244 1285 l 274 1244 q 342 1172 313 1192 q 417 1151 372 1151 q 491 1172 461 1151 q 560 1244 521 1192 l 589 1285 l 682 1231 q 649 1160 669 1196 q 597 1094 629 1124 q 521 1047 565 1065 q 417 1028 476 1028 z "},"Ẵ":{"ha":833,"x_min":18,"x_max":817,"o":"m 624 0 l 556 246 l 268 246 l 201 0 l 18 0 l 290 969 l 543 969 l 817 0 l 624 0 m 418 790 l 407 790 l 300 394 l 525 394 l 418 790 m 519 1313 q 461 1322 486 1313 q 411 1343 436 1332 q 355 1367 379 1358 q 307 1375 331 1375 q 265 1366 283 1375 q 225 1339 247 1357 l 164 1417 q 224 1476 188 1451 q 314 1501 261 1501 q 372 1492 347 1501 q 422 1471 397 1482 q 478 1447 454 1456 q 526 1439 503 1439 q 568 1448 550 1439 q 608 1475 586 1457 l 669 1397 q 609 1338 646 1363 q 519 1313 572 1313 m 417 1028 q 312 1047 356 1028 q 236 1094 268 1065 q 184 1160 204 1124 q 151 1231 164 1196 l 244 1285 l 274 1244 q 342 1172 313 1192 q 417 1151 372 1151 q 491 1172 461 1151 q 560 1244 521 1192 l 589 1285 l 682 1231 q 649 1160 669 1196 q 597 1094 629 1124 q 521 1047 565 1065 q 417 1028 476 1028 z "},"Ấ":{"ha":833,"x_min":18,"x_max":824,"o":"m 624 0 l 556 246 l 268 246 l 201 0 l 18 0 l 290 969 l 543 969 l 817 0 l 624 0 m 418 790 l 407 790 l 300 394 l 525 394 l 418 790 m 649 1236 l 551 1285 l 683 1544 l 824 1474 l 649 1236 m 483 1301 l 669 1099 l 583 1024 l 415 1174 l 246 1024 l 164 1099 l 350 1301 l 483 1301 z "},"Ậ":{"ha":833,"x_min":18,"x_max":817,"o":"m 624 0 l 556 246 l 268 246 l 201 0 l 18 0 l 290 969 l 543 969 l 817 0 l 624 0 m 418 790 l 407 790 l 300 394 l 525 394 l 418 790 m 497 1319 l 672 1104 l 581 1036 l 414 1196 l 247 1036 l 161 1104 l 336 1319 l 497 1319 m 417 -269 q 337 -247 360 -269 q 314 -189 314 -224 l 314 -158 q 337 -101 314 -124 q 417 -78 360 -78 q 497 -101 474 -78 q 519 -158 519 -124 l 519 -189 q 497 -247 519 -224 q 417 -269 474 -269 z "},"Ầ":{"ha":833,"x_min":10,"x_max":817,"o":"m 624 0 l 556 246 l 268 246 l 201 0 l 18 0 l 290 969 l 543 969 l 817 0 l 624 0 m 418 790 l 407 790 l 300 394 l 525 394 l 418 790 m 10 1474 l 150 1544 l 282 1285 l 185 1236 l 10 1474 m 483 1301 l 669 1099 l 583 1024 l 415 1174 l 246 1024 l 164 1099 l 350 1301 l 483 1301 z "},"Ẩ":{"ha":833,"x_min":18,"x_max":817,"o":"m 624 0 l 556 246 l 268 246 l 201 0 l 18 0 l 290 969 l 543 969 l 817 0 l 624 0 m 418 790 l 407 790 l 300 394 l 525 394 l 418 790 m 476 1526 l 651 1526 q 749 1498 721 1526 q 776 1432 776 1469 q 752 1351 776 1394 q 694 1265 728 1307 l 658 1221 l 574 1264 l 640 1401 l 476 1401 l 476 1526 m 483 1301 l 669 1099 l 583 1024 l 415 1174 l 246 1024 l 164 1099 l 350 1301 l 483 1301 z "},"Ẫ":{"ha":833,"x_min":18,"x_max":817,"o":"m 624 0 l 556 246 l 268 246 l 201 0 l 18 0 l 290 969 l 543 969 l 817 0 l 624 0 m 418 790 l 407 790 l 300 394 l 525 394 l 418 790 m 314 1515 q 372 1506 347 1515 q 422 1485 397 1496 q 478 1461 454 1469 q 526 1453 503 1453 q 568 1462 550 1453 q 608 1489 586 1471 l 669 1411 q 609 1351 646 1376 q 519 1326 572 1326 q 461 1336 486 1326 q 411 1357 436 1346 q 355 1381 379 1372 q 307 1389 331 1389 q 265 1380 283 1389 q 225 1353 247 1371 l 164 1431 q 224 1490 188 1465 q 314 1515 261 1515 m 485 1285 l 668 1099 l 583 1024 l 415 1163 l 246 1024 l 165 1099 l 349 1285 l 485 1285 z "},"Æ":{"ha":833,"x_min":4,"x_max":789,"o":"m 401 247 l 236 247 l 182 0 l 4 0 l 244 969 l 789 969 l 789 832 l 569 832 l 569 560 l 775 560 l 775 422 l 569 422 l 569 138 l 789 138 l 789 0 l 401 0 l 401 247 m 367 843 l 265 383 l 401 383 l 401 843 l 367 843 z "},"Ǽ":{"ha":833,"x_min":4,"x_max":789,"o":"m 401 247 l 236 247 l 182 0 l 4 0 l 244 969 l 789 969 l 789 832 l 569 832 l 569 560 l 775 560 l 775 422 l 569 422 l 569 138 l 789 138 l 789 0 l 401 0 l 401 247 m 367 843 l 265 383 l 401 383 l 401 843 l 367 843 m 535 1035 l 428 1086 l 560 1346 l 710 1271 l 535 1035 z "},"Ć":{"ha":833,"x_min":69,"x_max":772,"o":"m 442 -17 q 160 114 251 -17 q 69 485 69 244 q 160 855 69 724 q 442 986 251 986 q 569 967 514 986 q 664 913 624 947 q 731 831 704 879 q 772 726 757 783 l 606 679 q 583 742 596 713 q 552 792 571 771 q 506 826 533 814 q 439 838 478 838 q 303 765 344 838 q 263 568 263 693 l 263 401 q 303 204 263 276 q 439 132 344 132 q 506 144 478 132 q 552 177 533 156 q 583 228 571 199 q 606 290 596 257 l 772 243 q 731 138 757 186 q 664 56 704 90 q 569 3 624 22 q 442 -17 514 -17 m 457 1035 l 350 1086 l 482 1346 l 632 1271 l 457 1035 z "},"Č":{"ha":833,"x_min":69,"x_max":772,"o":"m 442 -17 q 160 114 251 -17 q 69 485 69 244 q 160 855 69 724 q 442 986 251 986 q 569 967 514 986 q 664 913 624 947 q 731 831 704 879 q 772 726 757 783 l 606 679 q 583 742 596 713 q 552 792 571 771 q 506 826 533 814 q 439 838 478 838 q 303 765 344 838 q 263 568 263 693 l 263 401 q 303 204 263 276 q 439 132 344 132 q 506 144 478 132 q 552 177 533 156 q 583 228 571 199 q 606 290 596 257 l 772 243 q 731 138 757 186 q 664 56 704 90 q 569 3 624 22 q 442 -17 514 -17 m 358 1047 l 183 1263 l 275 1331 l 442 1171 l 608 1331 l 694 1263 l 519 1047 l 358 1047 z "},"Ç":{"ha":833,"x_min":69,"x_max":772,"o":"m 439 838 q 303 765 344 838 q 263 568 263 693 l 263 401 q 303 205 263 278 q 439 132 344 132 q 506 144 478 132 q 552 177 533 156 q 583 228 571 199 q 606 290 596 257 l 772 243 q 731 142 757 188 q 668 61 706 96 q 580 6 631 26 q 461 -17 529 -14 l 449 -79 l 454 -85 q 485 -78 469 -81 q 517 -75 501 -75 q 588 -98 558 -75 q 617 -169 617 -121 q 602 -226 617 -203 q 563 -265 588 -250 q 507 -285 539 -279 q 442 -292 475 -292 q 335 -272 374 -292 q 279 -232 297 -253 l 340 -161 q 376 -190 354 -178 q 431 -201 399 -201 q 474 -192 457 -201 q 492 -164 492 -183 q 472 -131 492 -147 q 390 -108 453 -115 l 358 -104 l 376 -12 q 144 138 219 10 q 69 485 69 265 q 160 855 69 724 q 442 986 251 986 q 569 967 514 986 q 664 913 624 947 q 731 831 704 879 q 772 726 757 783 l 606 679 q 583 742 596 713 q 552 792 571 771 q 506 826 533 814 q 439 838 478 838 z "},"Ĉ":{"ha":833,"x_min":69,"x_max":772,"o":"m 442 -17 q 160 114 251 -17 q 69 485 69 244 q 160 855 69 724 q 442 986 251 986 q 569 967 514 986 q 664 913 624 947 q 731 831 704 879 q 772 726 757 783 l 606 679 q 583 742 596 713 q 552 792 571 771 q 506 826 533 814 q 439 838 478 838 q 303 765 344 838 q 263 568 263 693 l 263 401 q 303 204 263 276 q 439 132 344 132 q 506 144 478 132 q 552 177 533 156 q 583 228 571 199 q 606 290 596 257 l 772 243 q 731 138 757 186 q 664 56 704 90 q 569 3 624 22 q 442 -17 514 -17 m 519 1319 l 694 1104 l 603 1036 l 436 1196 l 269 1036 l 183 1104 l 358 1319 l 519 1319 z "},"Ċ":{"ha":833,"x_min":69,"x_max":772,"o":"m 439 1057 q 351 1083 376 1057 q 325 1147 325 1110 l 325 1181 q 351 1244 325 1218 q 439 1271 376 1271 q 527 1244 501 1271 q 553 1181 553 1218 l 553 1147 q 527 1083 553 1110 q 439 1057 501 1057 m 442 -17 q 160 114 251 -17 q 69 485 69 244 q 160 855 69 724 q 442 986 251 986 q 569 967 514 986 q 664 913 624 947 q 731 831 704 879 q 772 726 757 783 l 606 679 q 583 742 596 713 q 552 792 571 771 q 506 826 533 814 q 439 838 478 838 q 303 765 344 838 q 263 568 263 693 l 263 401 q 303 204 263 276 q 439 132 344 132 q 506 144 478 132 q 552 177 533 156 q 583 228 571 199 q 606 290 596 257 l 772 243 q 731 138 757 186 q 664 56 704 90 q 569 3 624 22 q 442 -17 514 -17 z "},"Ď":{"ha":833,"x_min":101,"x_max":776,"o":"m 101 969 l 403 969 q 684 844 592 969 q 776 485 776 719 q 684 124 776 249 q 403 0 592 0 l 101 0 l 101 969 m 390 146 q 538 211 490 146 q 586 401 586 276 l 586 569 q 538 758 586 693 q 390 824 490 824 l 281 824 l 281 146 l 390 146 m 307 1047 l 132 1263 l 224 1331 l 390 1171 l 557 1331 l 643 1263 l 468 1047 l 307 1047 z "},"Đ":{"ha":833,"x_min":19,"x_max":776,"o":"m 110 443 l 19 443 l 19 581 l 110 581 l 110 969 l 403 969 q 684 844 592 969 q 776 485 776 719 q 684 124 776 249 q 403 0 592 0 l 110 0 l 110 443 m 390 146 q 538 211 490 146 q 586 401 586 276 l 586 569 q 538 758 586 693 q 390 824 490 824 l 289 824 l 289 575 l 454 575 l 454 447 l 289 447 l 289 146 l 390 146 z "},"Ð":{"ha":833,"x_min":19,"x_max":776,"o":"m 110 443 l 19 443 l 19 581 l 110 581 l 110 969 l 403 969 q 684 844 592 969 q 776 485 776 719 q 684 124 776 249 q 403 0 592 0 l 110 0 l 110 443 m 390 146 q 538 211 490 146 q 586 401 586 276 l 586 569 q 538 758 586 693 q 390 824 490 824 l 289 824 l 289 575 l 454 575 l 454 447 l 289 447 l 289 146 l 390 146 z "},"É":{"ha":833,"x_min":115,"x_max":728,"o":"m 115 0 l 115 969 l 728 969 l 728 819 l 297 819 l 297 567 l 713 567 l 713 417 l 297 417 l 297 150 l 728 150 l 728 0 l 115 0 m 439 1035 l 332 1086 l 464 1346 l 614 1271 l 439 1035 z "},"Ĕ":{"ha":833,"x_min":115,"x_max":728,"o":"m 115 0 l 115 969 l 728 969 l 728 819 l 297 819 l 297 567 l 713 567 l 713 417 l 297 417 l 297 150 l 728 150 l 728 0 l 115 0 m 421 1039 q 317 1061 360 1039 q 245 1117 275 1083 q 197 1190 215 1150 q 165 1267 178 1231 l 268 1317 l 297 1271 q 327 1226 314 1246 q 354 1193 340 1207 q 384 1172 368 1179 q 421 1165 400 1165 q 458 1172 442 1165 q 488 1193 474 1179 q 515 1226 501 1207 q 544 1271 528 1246 l 574 1317 l 676 1267 q 645 1190 664 1231 q 597 1117 626 1150 q 524 1061 567 1083 q 421 1039 481 1039 z "},"Ě":{"ha":833,"x_min":115,"x_max":728,"o":"m 115 0 l 115 969 l 728 969 l 728 819 l 297 819 l 297 567 l 713 567 l 713 417 l 297 417 l 297 150 l 728 150 l 728 0 l 115 0 m 340 1047 l 165 1263 l 257 1331 l 424 1171 l 590 1331 l 676 1263 l 501 1047 l 340 1047 z "},"Ê":{"ha":833,"x_min":115,"x_max":728,"o":"m 501 1319 l 676 1104 l 585 1036 l 418 1196 l 251 1036 l 165 1104 l 340 1319 l 501 1319 m 115 0 l 115 969 l 728 969 l 728 819 l 297 819 l 297 567 l 713 567 l 713 417 l 297 417 l 297 150 l 728 150 l 728 0 l 115 0 z "},"Ë":{"ha":833,"x_min":115,"x_max":728,"o":"m 115 0 l 115 969 l 728 969 l 728 819 l 297 819 l 297 567 l 713 567 l 713 417 l 297 417 l 297 150 l 728 150 l 728 0 l 115 0 m 275 1068 q 196 1092 218 1068 q 174 1149 174 1115 l 174 1179 q 196 1236 174 1213 q 275 1260 218 1260 q 354 1236 332 1260 q 376 1179 376 1213 l 376 1149 q 354 1092 376 1115 q 275 1068 332 1068 m 567 1068 q 488 1092 510 1068 q 465 1149 465 1115 l 465 1179 q 488 1236 465 1213 q 567 1260 510 1260 q 646 1236 624 1260 q 668 1179 668 1213 l 668 1149 q 646 1092 668 1115 q 567 1068 624 1068 z "},"Ė":{"ha":833,"x_min":115,"x_max":728,"o":"m 421 1057 q 333 1083 358 1057 q 307 1147 307 1110 l 307 1181 q 333 1244 307 1218 q 421 1271 358 1271 q 509 1244 483 1271 q 535 1181 535 1218 l 535 1147 q 509 1083 535 1110 q 421 1057 483 1057 m 115 0 l 115 969 l 728 969 l 728 819 l 297 819 l 297 567 l 713 567 l 713 417 l 297 417 l 297 150 l 728 150 l 728 0 l 115 0 z "},"Ẹ":{"ha":833,"x_min":115,"x_max":728,"o":"m 115 0 l 115 969 l 728 969 l 728 819 l 297 819 l 297 567 l 713 567 l 713 417 l 297 417 l 297 150 l 728 150 l 728 0 l 115 0 m 421 -269 q 341 -247 364 -269 q 318 -189 318 -224 l 318 -158 q 341 -101 318 -124 q 421 -78 364 -78 q 501 -101 478 -78 q 524 -158 524 -124 l 524 -189 q 501 -247 524 -224 q 421 -269 478 -269 z "},"È":{"ha":833,"x_min":115,"x_max":728,"o":"m 228 1271 l 378 1346 l 510 1086 l 403 1035 l 228 1271 m 115 0 l 115 969 l 728 969 l 728 819 l 297 819 l 297 567 l 713 567 l 713 417 l 297 417 l 297 150 l 728 150 l 728 0 l 115 0 z "},"Ẻ":{"ha":833,"x_min":115,"x_max":728,"o":"m 115 0 l 115 969 l 728 969 l 728 819 l 297 819 l 297 567 l 713 567 l 713 417 l 297 417 l 297 150 l 728 150 l 728 0 l 115 0 m 269 1326 l 454 1326 q 551 1298 524 1326 q 578 1232 578 1269 q 557 1151 578 1194 q 503 1067 536 1108 l 465 1021 l 374 1065 l 438 1197 l 269 1197 l 269 1326 z "},"Ē":{"ha":833,"x_min":115,"x_max":728,"o":"m 115 0 l 115 969 l 728 969 l 728 819 l 297 819 l 297 567 l 713 567 l 713 417 l 297 417 l 297 150 l 728 150 l 728 0 l 115 0 m 214 1228 l 628 1228 l 628 1100 l 214 1100 l 214 1228 z "},"Ę":{"ha":833,"x_min":115,"x_max":768,"o":"m 115 969 l 728 969 l 728 819 l 297 819 l 297 567 l 713 567 l 713 417 l 297 417 l 297 150 l 728 150 l 728 0 q 645 -55 676 -32 q 597 -95 614 -78 q 576 -125 581 -112 q 571 -150 571 -137 q 587 -187 571 -178 q 625 -197 603 -197 q 667 -187 649 -197 q 700 -160 685 -176 l 768 -226 q 713 -274 751 -256 q 611 -292 674 -292 q 547 -285 578 -292 q 494 -266 517 -279 q 458 -231 471 -253 q 444 -176 444 -208 q 488 -81 444 -121 q 608 -4 531 -42 l 607 0 l 115 0 l 115 969 z "},"Ẽ":{"ha":833,"x_min":115,"x_max":728,"o":"m 115 0 l 115 969 l 728 969 l 728 819 l 297 819 l 297 567 l 713 567 l 713 417 l 297 417 l 297 150 l 728 150 l 728 0 l 115 0 m 525 1067 q 467 1076 492 1067 q 417 1097 442 1086 q 361 1119 386 1111 q 313 1128 336 1128 q 271 1119 289 1128 q 231 1093 253 1111 l 167 1175 q 227 1235 190 1211 q 317 1260 264 1260 q 375 1250 350 1260 q 425 1229 400 1240 q 481 1207 456 1215 q 529 1199 506 1199 q 571 1207 553 1199 q 611 1233 589 1215 l 675 1151 q 615 1091 651 1115 q 525 1067 578 1067 z "},"Ế":{"ha":833,"x_min":115,"x_max":828,"o":"m 115 0 l 115 969 l 728 969 l 728 819 l 297 819 l 297 567 l 713 567 l 713 417 l 297 417 l 297 150 l 728 150 l 728 0 l 115 0 m 653 1236 l 556 1285 l 688 1544 l 828 1474 l 653 1236 m 488 1301 l 674 1099 l 588 1024 l 419 1174 l 250 1024 l 168 1099 l 354 1301 l 488 1301 z "},"Ệ":{"ha":833,"x_min":115,"x_max":728,"o":"m 501 1319 l 676 1104 l 585 1036 l 418 1196 l 251 1036 l 165 1104 l 340 1319 l 501 1319 m 115 0 l 115 969 l 728 969 l 728 819 l 297 819 l 297 567 l 713 567 l 713 417 l 297 417 l 297 150 l 728 150 l 728 0 l 115 0 m 421 -269 q 341 -247 364 -269 q 318 -189 318 -224 l 318 -158 q 341 -101 318 -124 q 421 -78 364 -78 q 501 -101 478 -78 q 524 -158 524 -124 l 524 -189 q 501 -247 524 -224 q 421 -269 478 -269 z "},"Ề":{"ha":833,"x_min":14,"x_max":728,"o":"m 14 1474 l 154 1544 l 286 1285 l 189 1236 l 14 1474 m 488 1301 l 674 1099 l 588 1024 l 419 1174 l 250 1024 l 168 1099 l 354 1301 l 488 1301 m 115 0 l 115 969 l 728 969 l 728 819 l 297 819 l 297 567 l 713 567 l 713 417 l 297 417 l 297 150 l 728 150 l 728 0 l 115 0 z "},"Ể":{"ha":833,"x_min":115,"x_max":781,"o":"m 481 1526 l 656 1526 q 753 1498 725 1526 q 781 1432 781 1469 q 756 1351 781 1394 q 699 1265 732 1307 l 663 1221 l 578 1264 l 644 1401 l 481 1401 l 481 1526 m 488 1301 l 674 1099 l 588 1024 l 419 1174 l 250 1024 l 168 1099 l 354 1301 l 488 1301 m 115 0 l 115 969 l 728 969 l 728 819 l 297 819 l 297 567 l 713 567 l 713 417 l 297 417 l 297 150 l 728 150 l 728 0 l 115 0 z "},"Ễ":{"ha":833,"x_min":115,"x_max":728,"o":"m 115 0 l 115 969 l 728 969 l 728 819 l 297 819 l 297 567 l 713 567 l 713 417 l 297 417 l 297 150 l 728 150 l 728 0 l 115 0 m 318 1515 q 376 1506 351 1515 q 426 1485 401 1496 q 483 1461 458 1469 q 531 1453 507 1453 q 572 1462 554 1453 q 613 1489 590 1471 l 674 1411 q 613 1351 650 1376 q 524 1326 576 1326 q 465 1336 490 1326 q 415 1357 440 1346 q 359 1381 383 1372 q 311 1389 335 1389 q 269 1380 288 1389 q 229 1353 251 1371 l 168 1431 q 228 1490 192 1465 q 318 1515 265 1515 m 489 1285 l 672 1099 l 588 1024 l 419 1163 l 250 1024 l 169 1099 l 353 1285 l 489 1285 z "},"Ə":{"ha":833,"x_min":50,"x_max":783,"o":"m 417 -17 q 253 17 322 -17 q 138 115 183 51 q 72 272 93 179 q 50 485 50 365 l 50 543 l 597 543 l 597 567 q 588 678 597 628 q 556 764 578 728 q 499 819 535 800 q 410 839 463 839 q 292 795 336 839 q 224 660 247 751 l 68 721 q 188 918 101 850 q 413 986 274 986 q 580 952 510 986 q 695 853 650 918 q 762 697 740 789 q 783 486 783 604 q 694 115 783 247 q 417 -17 606 -17 m 415 129 q 557 202 517 129 q 597 401 597 275 l 597 408 l 235 408 l 235 401 q 275 202 235 275 q 415 129 315 129 z "},"Ğ":{"ha":833,"x_min":57,"x_max":747,"o":"m 585 135 l 574 135 q 543 78 561 106 q 499 29 525 50 q 437 -4 472 8 q 356 -17 401 -17 q 133 113 208 -17 q 57 478 57 243 q 146 856 57 725 q 419 986 235 986 q 547 967 492 986 q 641 913 601 947 q 706 830 681 878 q 747 726 732 782 l 581 679 q 559 739 571 710 q 528 790 547 768 q 483 824 510 811 q 418 838 457 838 q 289 765 328 838 q 250 568 250 693 l 250 413 q 259 298 250 350 q 289 208 268 246 q 343 151 310 171 q 426 131 376 131 q 544 177 504 131 q 585 296 585 224 l 585 375 l 408 375 l 408 507 l 747 507 l 747 0 l 585 0 l 585 135 m 419 1039 q 316 1061 358 1039 q 244 1117 274 1083 q 195 1190 214 1150 q 164 1267 176 1231 l 267 1317 l 296 1271 q 326 1226 313 1246 q 353 1193 339 1207 q 383 1172 367 1179 q 419 1165 399 1165 q 456 1172 440 1165 q 486 1193 472 1179 q 513 1226 500 1207 q 543 1271 526 1246 l 572 1317 l 675 1267 q 644 1190 663 1231 q 595 1117 625 1150 q 522 1061 565 1083 q 419 1039 479 1039 z "},"Ĝ":{"ha":833,"x_min":57,"x_max":747,"o":"m 500 1319 l 675 1104 l 583 1036 l 417 1196 l 250 1036 l 164 1104 l 339 1319 l 500 1319 m 585 135 l 574 135 q 543 78 561 106 q 499 29 525 50 q 437 -4 472 8 q 356 -17 401 -17 q 133 113 208 -17 q 57 478 57 243 q 146 856 57 725 q 419 986 235 986 q 547 967 492 986 q 641 913 601 947 q 706 830 681 878 q 747 726 732 782 l 581 679 q 559 739 571 710 q 528 790 547 768 q 483 824 510 811 q 418 838 457 838 q 289 765 328 838 q 250 568 250 693 l 250 413 q 259 298 250 350 q 289 208 268 246 q 343 151 310 171 q 426 131 376 131 q 544 177 504 131 q 585 296 585 224 l 585 375 l 408 375 l 408 507 l 747 507 l 747 0 l 585 0 l 585 135 z "},"Ģ":{"ha":833,"x_min":57,"x_max":747,"o":"m 317 -79 l 514 -79 l 399 -367 l 288 -367 l 317 -79 m 585 135 l 574 135 q 543 78 561 106 q 499 29 525 50 q 437 -4 472 8 q 356 -17 401 -17 q 133 113 208 -17 q 57 478 57 243 q 146 856 57 725 q 419 986 235 986 q 547 967 492 986 q 641 913 601 947 q 706 830 681 878 q 747 726 732 782 l 581 679 q 559 739 571 710 q 528 790 547 768 q 483 824 510 811 q 418 838 457 838 q 289 765 328 838 q 250 568 250 693 l 250 413 q 259 298 250 350 q 289 208 268 246 q 343 151 310 171 q 426 131 376 131 q 544 177 504 131 q 585 296 585 224 l 585 375 l 408 375 l 408 507 l 747 507 l 747 0 l 585 0 l 585 135 z "},"Ġ":{"ha":833,"x_min":57,"x_max":747,"o":"m 419 1057 q 331 1083 357 1057 q 306 1147 306 1110 l 306 1181 q 331 1244 306 1218 q 419 1271 357 1271 q 508 1244 482 1271 q 533 1181 533 1218 l 533 1147 q 508 1083 533 1110 q 419 1057 482 1057 m 585 135 l 574 135 q 543 78 561 106 q 499 29 525 50 q 437 -4 472 8 q 356 -17 401 -17 q 133 113 208 -17 q 57 478 57 243 q 146 856 57 725 q 419 986 235 986 q 547 967 492 986 q 641 913 601 947 q 706 830 681 878 q 747 726 732 782 l 581 679 q 559 739 571 710 q 528 790 547 768 q 483 824 510 811 q 418 838 457 838 q 289 765 328 838 q 250 568 250 693 l 250 413 q 259 298 250 350 q 289 208 268 246 q 343 151 310 171 q 426 131 376 131 q 544 177 504 131 q 585 296 585 224 l 585 375 l 408 375 l 408 507 l 747 507 l 747 0 l 585 0 l 585 135 z "},"Ħ":{"ha":833,"x_min":10,"x_max":824,"o":"m 558 417 l 275 417 l 275 0 l 93 0 l 93 708 l 10 708 l 10 846 l 93 846 l 93 969 l 275 969 l 275 839 l 558 839 l 558 969 l 740 969 l 740 846 l 824 846 l 824 708 l 740 708 l 740 0 l 558 0 l 558 417 m 558 567 l 558 715 l 275 715 l 275 567 l 558 567 z "},"Ĥ":{"ha":833,"x_min":93,"x_max":740,"o":"m 558 417 l 275 417 l 275 0 l 93 0 l 93 969 l 275 969 l 275 567 l 558 567 l 558 969 l 740 969 l 740 0 l 558 0 l 558 417 m 497 1319 l 672 1104 l 581 1036 l 414 1196 l 247 1036 l 161 1104 l 336 1319 l 497 1319 z "},"Í":{"ha":833,"x_min":108,"x_max":725,"o":"m 108 0 l 108 136 l 326 136 l 326 833 l 108 833 l 108 969 l 725 969 l 725 833 l 507 833 l 507 136 l 725 136 l 725 0 l 108 0 m 435 1035 l 328 1086 l 460 1346 l 610 1271 l 435 1035 z "},"Ĭ":{"ha":833,"x_min":108,"x_max":725,"o":"m 108 0 l 108 136 l 326 136 l 326 833 l 108 833 l 108 969 l 725 969 l 725 833 l 507 833 l 507 136 l 725 136 l 725 0 l 108 0 m 417 1039 q 313 1061 356 1039 q 241 1117 271 1083 q 192 1190 211 1150 q 161 1267 174 1231 l 264 1317 l 293 1271 q 323 1226 310 1246 q 350 1193 336 1207 q 380 1172 364 1179 q 417 1165 396 1165 q 453 1172 438 1165 q 483 1193 469 1179 q 510 1226 497 1207 q 540 1271 524 1246 l 569 1317 l 672 1267 q 641 1190 660 1231 q 592 1117 622 1150 q 519 1061 563 1083 q 417 1039 476 1039 z "},"Ǐ":{"ha":833,"x_min":108,"x_max":725,"o":"m 108 0 l 108 136 l 326 136 l 326 833 l 108 833 l 108 969 l 725 969 l 725 833 l 507 833 l 507 136 l 725 136 l 725 0 l 108 0 m 336 1047 l 161 1263 l 253 1331 l 419 1171 l 586 1331 l 672 1263 l 497 1047 l 336 1047 z "},"Î":{"ha":833,"x_min":108,"x_max":725,"o":"m 108 0 l 108 136 l 326 136 l 326 833 l 108 833 l 108 969 l 725 969 l 725 833 l 507 833 l 507 136 l 725 136 l 725 0 l 108 0 m 497 1319 l 672 1104 l 581 1036 l 414 1196 l 247 1036 l 161 1104 l 336 1319 l 497 1319 z "},"Ï":{"ha":833,"x_min":108,"x_max":725,"o":"m 108 0 l 108 136 l 326 136 l 326 833 l 108 833 l 108 969 l 725 969 l 725 833 l 507 833 l 507 136 l 725 136 l 725 0 l 108 0 m 271 1068 q 192 1092 214 1068 q 169 1149 169 1115 l 169 1179 q 192 1236 169 1213 q 271 1260 214 1260 q 350 1236 328 1260 q 372 1179 372 1213 l 372 1149 q 350 1092 372 1115 q 271 1068 328 1068 m 563 1068 q 483 1092 506 1068 q 461 1149 461 1115 l 461 1179 q 483 1236 461 1213 q 563 1260 506 1260 q 642 1236 619 1260 q 664 1179 664 1213 l 664 1149 q 642 1092 664 1115 q 563 1068 619 1068 z "},"İ":{"ha":833,"x_min":108,"x_max":725,"o":"m 108 0 l 108 136 l 326 136 l 326 833 l 108 833 l 108 969 l 725 969 l 725 833 l 507 833 l 507 136 l 725 136 l 725 0 l 108 0 m 417 1057 q 328 1083 354 1057 q 303 1147 303 1110 l 303 1181 q 328 1244 303 1218 q 417 1271 354 1271 q 505 1244 479 1271 q 531 1181 531 1218 l 531 1147 q 505 1083 531 1110 q 417 1057 479 1057 z "},"Ị":{"ha":833,"x_min":108,"x_max":725,"o":"m 108 0 l 108 136 l 326 136 l 326 833 l 108 833 l 108 969 l 725 969 l 725 833 l 507 833 l 507 136 l 725 136 l 725 0 l 108 0 m 417 -269 q 337 -247 360 -269 q 314 -189 314 -224 l 314 -158 q 337 -101 314 -124 q 417 -78 360 -78 q 497 -101 474 -78 q 519 -158 519 -124 l 519 -189 q 497 -247 519 -224 q 417 -269 474 -269 z "},"Ì":{"ha":833,"x_min":108,"x_max":725,"o":"m 108 0 l 108 136 l 326 136 l 326 833 l 108 833 l 108 969 l 725 969 l 725 833 l 507 833 l 507 136 l 725 136 l 725 0 l 108 0 m 224 1271 l 374 1346 l 506 1086 l 399 1035 l 224 1271 z "},"Ỉ":{"ha":833,"x_min":108,"x_max":725,"o":"m 108 0 l 108 136 l 326 136 l 326 833 l 108 833 l 108 969 l 725 969 l 725 833 l 507 833 l 507 136 l 725 136 l 725 0 l 108 0 m 265 1326 l 450 1326 q 547 1298 519 1326 q 574 1232 574 1269 q 553 1151 574 1194 q 499 1067 532 1108 l 461 1021 l 369 1065 l 433 1197 l 265 1197 l 265 1326 z "},"Ī":{"ha":833,"x_min":108,"x_max":725,"o":"m 108 0 l 108 136 l 326 136 l 326 833 l 108 833 l 108 969 l 725 969 l 725 833 l 507 833 l 507 136 l 725 136 l 725 0 l 108 0 m 210 1228 l 624 1228 l 624 1100 l 210 1100 l 210 1228 z "},"Į":{"ha":833,"x_min":108,"x_max":765,"o":"m 108 136 l 326 136 l 326 833 l 108 833 l 108 969 l 725 969 l 725 833 l 507 833 l 507 136 l 725 136 l 725 0 q 642 -55 674 -32 q 594 -95 611 -78 q 573 -125 578 -112 q 568 -150 568 -137 q 584 -187 568 -178 q 622 -197 600 -197 q 664 -187 646 -197 q 697 -160 682 -176 l 765 -226 q 710 -274 749 -256 q 608 -292 671 -292 q 544 -285 575 -292 q 491 -266 514 -279 q 455 -231 468 -253 q 442 -176 442 -208 q 485 -81 442 -121 q 606 -4 528 -42 l 603 0 l 108 0 l 108 136 z "},"Ĩ":{"ha":833,"x_min":108,"x_max":725,"o":"m 108 0 l 108 136 l 326 136 l 326 833 l 108 833 l 108 969 l 725 969 l 725 833 l 507 833 l 507 136 l 725 136 l 725 0 l 108 0 m 521 1067 q 463 1076 488 1067 q 413 1097 438 1086 q 357 1119 382 1111 q 308 1128 332 1128 q 267 1119 285 1128 q 226 1093 249 1111 l 163 1175 q 223 1235 186 1211 q 313 1260 260 1260 q 371 1250 346 1260 q 421 1229 396 1240 q 476 1207 451 1215 q 525 1199 501 1199 q 567 1207 549 1199 q 607 1233 585 1215 l 671 1151 q 610 1091 647 1115 q 521 1067 574 1067 z "},"Ĳ":{"ha":833,"x_min":86,"x_max":724,"o":"m 724 969 l 724 269 q 701 151 724 204 q 638 61 679 99 q 538 3 597 24 q 407 -17 479 -17 q 188 53 267 -17 q 86 236 108 124 l 263 276 q 279 221 268 247 q 307 175 290 194 q 349 144 324 156 q 410 133 374 133 q 507 172 472 133 q 542 290 542 210 l 542 969 l 724 969 m 97 969 l 279 969 l 279 421 l 97 421 l 97 969 z "},"Ĵ":{"ha":833,"x_min":68,"x_max":697,"o":"m 697 969 l 697 265 q 675 148 697 200 q 612 60 653 96 q 513 3 571 24 q 385 -17 456 -17 q 169 53 247 -17 q 68 238 90 122 l 239 274 q 284 173 251 213 q 385 133 317 133 q 481 170 447 133 q 514 286 514 207 l 514 819 l 186 819 l 186 969 l 697 969 m 522 1319 l 697 1104 l 606 1036 l 439 1196 l 272 1036 l 186 1104 l 361 1319 l 522 1319 z "},"Ķ":{"ha":833,"x_min":101,"x_max":828,"o":"m 351 -79 l 549 -79 l 433 -367 l 322 -367 l 351 -79 m 385 425 l 283 292 l 283 0 l 101 0 l 101 969 l 283 969 l 283 533 l 292 533 l 404 694 l 608 969 l 814 969 l 510 561 l 828 0 l 622 0 l 385 425 z "},"Ĺ":{"ha":833,"x_min":139,"x_max":750,"o":"m 250 1035 l 143 1086 l 275 1346 l 425 1271 l 250 1035 m 139 0 l 139 969 l 321 969 l 321 150 l 750 150 l 750 0 l 139 0 z "},"Ľ":{"ha":833,"x_min":139,"x_max":750,"o":"m 550 740 l 431 740 l 439 1028 l 635 1028 l 550 740 m 139 0 l 139 969 l 321 969 l 321 150 l 750 150 l 750 0 l 139 0 z "},"Ļ":{"ha":833,"x_min":139,"x_max":750,"o":"m 346 -79 l 543 -79 l 428 -367 l 317 -367 l 346 -79 m 139 0 l 139 969 l 321 969 l 321 150 l 750 150 l 750 0 l 139 0 z "},"Ŀ":{"ha":833,"x_min":139,"x_max":750,"o":"m 139 0 l 139 969 l 321 969 l 321 150 l 750 150 l 750 0 l 139 0 m 613 349 q 524 375 550 349 q 499 439 499 401 l 499 472 q 524 536 499 510 q 613 563 550 563 q 701 536 675 563 q 726 472 726 510 l 726 439 q 701 375 726 401 q 613 349 675 349 z "},"Ł":{"ha":833,"x_min":49,"x_max":750,"o":"m 750 0 l 151 0 l 151 350 l 49 317 l 49 456 l 151 489 l 151 969 l 333 969 l 333 543 l 600 631 l 600 492 l 333 404 l 333 150 l 750 150 l 750 0 z "},"Ń":{"ha":833,"x_min":93,"x_max":740,"o":"m 435 1035 l 328 1086 l 460 1346 l 610 1271 l 435 1035 m 263 696 l 249 696 l 249 0 l 93 0 l 93 969 l 317 969 l 571 274 l 585 274 l 585 969 l 740 969 l 740 0 l 517 0 l 263 696 z "},"Ň":{"ha":833,"x_min":93,"x_max":740,"o":"m 263 696 l 249 696 l 249 0 l 93 0 l 93 969 l 317 969 l 571 274 l 585 274 l 585 969 l 740 969 l 740 0 l 517 0 l 263 696 m 336 1047 l 161 1263 l 253 1331 l 419 1171 l 586 1331 l 672 1263 l 497 1047 l 336 1047 z "},"Ņ":{"ha":833,"x_min":93,"x_max":740,"o":"m 319 -79 l 517 -79 l 401 -367 l 290 -367 l 319 -79 m 263 696 l 249 696 l 249 0 l 93 0 l 93 969 l 317 969 l 571 274 l 585 274 l 585 969 l 740 969 l 740 0 l 517 0 l 263 696 z "},"Ñ":{"ha":833,"x_min":93,"x_max":740,"o":"m 521 1067 q 463 1076 488 1067 q 413 1097 438 1086 q 357 1119 382 1111 q 308 1128 332 1128 q 267 1119 285 1128 q 226 1093 249 1111 l 163 1175 q 223 1235 186 1211 q 313 1260 260 1260 q 371 1250 346 1260 q 421 1229 396 1240 q 476 1207 451 1215 q 525 1199 501 1199 q 567 1207 549 1199 q 607 1233 585 1215 l 671 1151 q 610 1091 647 1115 q 521 1067 574 1067 m 263 696 l 249 696 l 249 0 l 93 0 l 93 969 l 317 969 l 571 274 l 585 274 l 585 969 l 740 969 l 740 0 l 517 0 l 263 696 z "},"Ŋ":{"ha":833,"x_min":93,"x_max":740,"o":"m 93 0 l 93 969 l 317 969 l 571 274 l 585 274 l 585 969 l 740 969 l 740 -83 q 692 -224 740 -169 q 540 -278 643 -278 l 250 -278 l 250 -142 l 575 -142 l 575 0 l 517 0 l 263 696 l 249 696 l 249 0 l 93 0 z "},"Ó":{"ha":833,"x_min":50,"x_max":783,"o":"m 435 1035 l 328 1086 l 460 1346 l 610 1271 l 435 1035 m 417 -17 q 253 17 322 -17 q 138 115 183 51 q 72 272 93 179 q 50 485 50 365 q 72 697 50 603 q 138 854 93 790 q 253 952 183 918 q 417 986 322 986 q 694 854 606 986 q 783 485 783 722 q 694 115 783 247 q 417 -17 606 -17 m 417 132 q 499 151 465 132 q 552 204 532 169 q 581 290 572 239 q 590 403 590 340 l 590 568 q 552 765 590 693 q 417 838 514 838 q 281 765 319 838 q 243 568 243 693 l 243 401 q 281 204 243 276 q 417 132 319 132 z "},"Ŏ":{"ha":833,"x_min":50,"x_max":783,"o":"m 417 -17 q 253 17 322 -17 q 138 115 183 51 q 72 272 93 179 q 50 485 50 365 q 72 697 50 603 q 138 854 93 790 q 253 952 183 918 q 417 986 322 986 q 694 854 606 986 q 783 485 783 722 q 694 115 783 247 q 417 -17 606 -17 m 417 132 q 499 151 465 132 q 552 204 532 169 q 581 290 572 239 q 590 403 590 340 l 590 568 q 552 765 590 693 q 417 838 514 838 q 281 765 319 838 q 243 568 243 693 l 243 401 q 281 204 243 276 q 417 132 319 132 m 417 1039 q 313 1061 356 1039 q 241 1117 271 1083 q 192 1190 211 1150 q 161 1267 174 1231 l 264 1317 l 293 1271 q 323 1226 310 1246 q 350 1193 336 1207 q 380 1172 364 1179 q 417 1165 396 1165 q 453 1172 438 1165 q 483 1193 469 1179 q 510 1226 497 1207 q 540 1271 524 1246 l 569 1317 l 672 1267 q 641 1190 660 1231 q 592 1117 622 1150 q 519 1061 563 1083 q 417 1039 476 1039 z "},"Ǒ":{"ha":833,"x_min":50,"x_max":783,"o":"m 417 -17 q 253 17 322 -17 q 138 115 183 51 q 72 272 93 179 q 50 485 50 365 q 72 697 50 603 q 138 854 93 790 q 253 952 183 918 q 417 986 322 986 q 694 854 606 986 q 783 485 783 722 q 694 115 783 247 q 417 -17 606 -17 m 417 132 q 499 151 465 132 q 552 204 532 169 q 581 290 572 239 q 590 403 590 340 l 590 568 q 552 765 590 693 q 417 838 514 838 q 281 765 319 838 q 243 568 243 693 l 243 401 q 281 204 243 276 q 417 132 319 132 m 336 1047 l 161 1263 l 253 1331 l 419 1171 l 586 1331 l 672 1263 l 497 1047 l 336 1047 z "},"Ô":{"ha":833,"x_min":50,"x_max":783,"o":"m 497 1319 l 672 1104 l 581 1036 l 414 1196 l 247 1036 l 161 1104 l 336 1319 l 497 1319 m 417 -17 q 253 17 322 -17 q 138 115 183 51 q 72 272 93 179 q 50 485 50 365 q 72 697 50 603 q 138 854 93 790 q 253 952 183 918 q 417 986 322 986 q 694 854 606 986 q 783 485 783 722 q 694 115 783 247 q 417 -17 606 -17 m 417 132 q 499 151 465 132 q 552 204 532 169 q 581 290 572 239 q 590 403 590 340 l 590 568 q 552 765 590 693 q 417 838 514 838 q 281 765 319 838 q 243 568 243 693 l 243 401 q 281 204 243 276 q 417 132 319 132 z "},"Ö":{"ha":833,"x_min":50,"x_max":783,"o":"m 417 -17 q 253 17 322 -17 q 138 115 183 51 q 72 272 93 179 q 50 485 50 365 q 72 697 50 603 q 138 854 93 790 q 253 952 183 918 q 417 986 322 986 q 694 854 606 986 q 783 485 783 722 q 694 115 783 247 q 417 -17 606 -17 m 417 132 q 499 151 465 132 q 552 204 532 169 q 581 290 572 239 q 590 403 590 340 l 590 568 q 552 765 590 693 q 417 838 514 838 q 281 765 319 838 q 243 568 243 693 l 243 401 q 281 204 243 276 q 417 132 319 132 m 271 1068 q 192 1092 214 1068 q 169 1149 169 1115 l 169 1179 q 192 1236 169 1213 q 271 1260 214 1260 q 350 1236 328 1260 q 372 1179 372 1213 l 372 1149 q 350 1092 372 1115 q 271 1068 328 1068 m 563 1068 q 483 1092 506 1068 q 461 1149 461 1115 l 461 1179 q 483 1236 461 1213 q 563 1260 506 1260 q 642 1236 619 1260 q 664 1179 664 1213 l 664 1149 q 642 1092 664 1115 q 563 1068 619 1068 z "},"Ọ":{"ha":833,"x_min":50,"x_max":783,"o":"m 417 -17 q 253 17 322 -17 q 138 115 183 51 q 72 272 93 179 q 50 485 50 365 q 72 697 50 603 q 138 854 93 790 q 253 952 183 918 q 417 986 322 986 q 694 854 606 986 q 783 485 783 722 q 694 115 783 247 q 417 -17 606 -17 m 417 132 q 499 151 465 132 q 552 204 532 169 q 581 290 572 239 q 590 403 590 340 l 590 568 q 552 765 590 693 q 417 838 514 838 q 281 765 319 838 q 243 568 243 693 l 243 401 q 281 204 243 276 q 417 132 319 132 m 417 -269 q 337 -247 360 -269 q 314 -189 314 -224 l 314 -158 q 337 -101 314 -124 q 417 -78 360 -78 q 497 -101 474 -78 q 519 -158 519 -124 l 519 -189 q 497 -247 519 -224 q 417 -269 474 -269 z "},"Ò":{"ha":833,"x_min":50,"x_max":783,"o":"m 224 1271 l 374 1346 l 506 1086 l 399 1035 l 224 1271 m 417 -17 q 253 17 322 -17 q 138 115 183 51 q 72 272 93 179 q 50 485 50 365 q 72 697 50 603 q 138 854 93 790 q 253 952 183 918 q 417 986 322 986 q 694 854 606 986 q 783 485 783 722 q 694 115 783 247 q 417 -17 606 -17 m 417 132 q 499 151 465 132 q 552 204 532 169 q 581 290 572 239 q 590 403 590 340 l 590 568 q 552 765 590 693 q 417 838 514 838 q 281 765 319 838 q 243 568 243 693 l 243 401 q 281 204 243 276 q 417 132 319 132 z "},"Ỏ":{"ha":833,"x_min":50,"x_max":783,"o":"m 265 1326 l 450 1326 q 547 1298 519 1326 q 574 1232 574 1269 q 553 1151 574 1194 q 499 1067 532 1108 l 461 1021 l 369 1065 l 433 1197 l 265 1197 l 265 1326 m 417 -17 q 253 17 322 -17 q 138 115 183 51 q 72 272 93 179 q 50 485 50 365 q 72 697 50 603 q 138 854 93 790 q 253 952 183 918 q 417 986 322 986 q 694 854 606 986 q 783 485 783 722 q 694 115 783 247 q 417 -17 606 -17 m 417 132 q 499 151 465 132 q 552 204 532 169 q 581 290 572 239 q 590 403 590 340 l 590 568 q 552 765 590 693 q 417 838 514 838 q 281 765 319 838 q 243 568 243 693 l 243 401 q 281 204 243 276 q 417 132 319 132 z "},"Ő":{"ha":833,"x_min":50,"x_max":783,"o":"m 299 1035 l 200 1081 l 332 1342 l 474 1271 l 299 1035 m 565 1035 l 467 1081 l 597 1342 l 740 1271 l 565 1035 m 417 -17 q 253 17 322 -17 q 138 115 183 51 q 72 272 93 179 q 50 485 50 365 q 72 697 50 603 q 138 854 93 790 q 253 952 183 918 q 417 986 322 986 q 694 854 606 986 q 783 485 783 722 q 694 115 783 247 q 417 -17 606 -17 m 417 132 q 499 151 465 132 q 552 204 532 169 q 581 290 572 239 q 590 403 590 340 l 590 568 q 552 765 590 693 q 417 838 514 838 q 281 765 319 838 q 243 568 243 693 l 243 401 q 281 204 243 276 q 417 132 319 132 z "},"Ō":{"ha":833,"x_min":50,"x_max":783,"o":"m 417 -17 q 253 17 322 -17 q 138 115 183 51 q 72 272 93 179 q 50 485 50 365 q 72 697 50 603 q 138 854 93 790 q 253 952 183 918 q 417 986 322 986 q 694 854 606 986 q 783 485 783 722 q 694 115 783 247 q 417 -17 606 -17 m 417 132 q 499 151 465 132 q 552 204 532 169 q 581 290 572 239 q 590 403 590 340 l 590 568 q 552 765 590 693 q 417 838 514 838 q 281 765 319 838 q 243 568 243 693 l 243 401 q 281 204 243 276 q 417 132 319 132 m 210 1228 l 624 1228 l 624 1100 l 210 1100 l 210 1228 z "},"Ø":{"ha":833,"x_min":38,"x_max":796,"o":"m 417 -17 q 225 33 301 -17 l 154 -82 l 38 -15 l 128 131 q 69 283 88 194 q 50 485 50 372 q 72 697 50 603 q 138 854 93 790 q 253 952 183 918 q 417 986 322 986 q 608 936 531 986 l 679 1051 l 796 985 l 706 839 q 765 686 746 775 q 783 485 783 597 q 694 115 783 247 q 417 -17 606 -17 m 243 401 q 244 356 243 378 q 250 313 246 333 l 531 796 q 417 838 489 838 q 281 765 319 838 q 243 568 243 693 l 243 401 m 417 132 q 552 204 514 132 q 590 401 590 276 l 590 568 q 589 614 590 592 q 583 657 588 636 l 303 174 q 417 132 344 132 z "},"Ǿ":{"ha":833,"x_min":38,"x_max":796,"o":"m 417 -17 q 225 33 301 -17 l 154 -82 l 38 -15 l 128 131 q 69 283 88 194 q 50 485 50 372 q 72 697 50 603 q 138 854 93 790 q 253 952 183 918 q 417 986 322 986 q 608 936 531 986 l 679 1051 l 796 985 l 706 839 q 765 686 746 775 q 783 485 783 597 q 694 115 783 247 q 417 -17 606 -17 m 243 401 q 244 356 243 378 q 250 313 246 333 l 531 796 q 417 838 489 838 q 281 765 319 838 q 243 568 243 693 l 243 401 m 417 132 q 552 204 514 132 q 590 401 590 276 l 590 568 q 589 614 590 592 q 583 657 588 636 l 303 174 q 417 132 344 132 m 435 1035 l 328 1086 l 460 1346 l 610 1271 l 435 1035 z "},"Õ":{"ha":833,"x_min":50,"x_max":783,"o":"m 417 -17 q 253 17 322 -17 q 138 115 183 51 q 72 272 93 179 q 50 485 50 365 q 72 697 50 603 q 138 854 93 790 q 253 952 183 918 q 417 986 322 986 q 694 854 606 986 q 783 485 783 722 q 694 115 783 247 q 417 -17 606 -17 m 417 132 q 499 151 465 132 q 552 204 532 169 q 581 290 572 239 q 590 403 590 340 l 590 568 q 552 765 590 693 q 417 838 514 838 q 281 765 319 838 q 243 568 243 693 l 243 401 q 281 204 243 276 q 417 132 319 132 m 521 1067 q 463 1076 488 1067 q 413 1097 438 1086 q 357 1119 382 1111 q 308 1128 332 1128 q 267 1119 285 1128 q 226 1093 249 1111 l 163 1175 q 223 1235 186 1211 q 313 1260 260 1260 q 371 1250 346 1260 q 421 1229 396 1240 q 476 1207 451 1215 q 525 1199 501 1199 q 567 1207 549 1199 q 607 1233 585 1215 l 671 1151 q 610 1091 647 1115 q 521 1067 574 1067 z "},"Ơ":{"ha":833,"x_min":50,"x_max":806,"o":"m 806 986 q 783 896 806 929 q 693 863 760 863 l 683 863 q 762 709 740 804 q 783 485 783 614 q 694 115 783 247 q 417 -17 606 -17 q 253 17 322 -17 q 138 115 183 51 q 72 272 93 179 q 50 485 50 365 q 72 697 50 603 q 138 854 93 790 q 253 952 183 918 q 417 986 322 986 q 536 969 483 986 l 656 969 l 656 1128 l 806 1128 l 806 986 m 417 132 q 499 151 465 132 q 552 204 532 169 q 581 290 572 239 q 590 403 590 340 l 590 568 q 552 765 590 693 q 417 838 514 838 q 281 765 319 838 q 243 568 243 693 l 243 401 q 281 204 243 276 q 417 132 319 132 z "}}}
